<svg width="605" height="54" viewBox="0 0 605 54" fill="none" xmlns="http://www.w3.org/2000/svg">
<path d="M17.9375 46.4375C17.1042 46.4375 16.4792 46.625 16.0625 47C15.6875 47.3333 15.4167 47.7708 15.25 48.3125C14.75 48.1875 14.1667 48.1667 13.5 48.25C12.875 48.3333 12.2292 48.4167 11.5625 48.5C10.9375 48.5833 10.3125 48.625 9.6875 48.625C9.10417 48.6667 8.60417 48.5625 8.1875 48.3125C7.97917 48.1875 7.8125 48.0208 7.6875 47.8125C7.5625 47.5625 7.41667 47.3333 7.25 47.125C7.08333 46.875 6.91667 46.6458 6.75 46.4375C6.54167 46.2292 6.41667 46.0208 6.375 45.8125C6.29167 45.5625 6.35417 45.2083 6.5625 44.75C6.77083 44.25 6.95833 43.8958 7.125 43.6875C7.29167 43.5625 7.47917 43.4583 7.6875 43.375C7.9375 43.2917 8.16667 43.1667 8.375 43C8.95833 42.5417 9.375 41.9792 9.625 41.3125C9.91667 40.6042 10.1667 40.0417 10.375 39.625C10.6667 39.4167 11 39.2083 11.375 39C11.7917 38.75 11.9583 38.4375 11.875 38.0625C11.5 37.8542 11.0625 37.7708 10.5625 37.8125C10.0625 37.8125 9.5625 37.7917 9.0625 37.75C8.22917 37.75 7.39583 37.6875 6.5625 37.5625C5.72917 37.4375 4.97917 37.3333 4.3125 37.25C3.22917 37.0417 2.29167 36.5417 1.5 35.75C0.666667 34.9583 0.3125 33.9583 0.4375 32.75C0.729167 32.625 1.0625 32.5625 1.4375 32.5625C1.77083 32.5625 2.14583 32.5833 2.5625 32.625C2.9375 32.6667 3.33333 32.7083 3.75 32.75C4.125 32.75 4.47917 32.6875 4.8125 32.5625C5.1875 32.8125 5.54167 32.9375 5.875 32.9375C6.16667 32.9375 6.45833 32.875 6.75 32.75C7 32.625 7.25 32.5 7.5 32.375C7.75 32.2083 7.97917 32.1042 8.1875 32.0625C8.39583 32.0208 8.58333 32.0208 8.75 32.0625C8.91667 32.1042 9.10417 32.125 9.3125 32.125C9.64583 32.125 9.97917 32.0833 10.3125 32C10.6458 31.875 11.0417 31.7708 11.5 31.6875C12.125 31.6042 12.7708 31.5625 13.4375 31.5625C14.1042 31.5208 14.6667 31.3958 15.125 31.1875C15.4167 31.0625 15.75 30.8542 16.125 30.5625C16.5 30.2292 16.7708 29.9375 16.9375 29.6875C17.0208 29.4792 17.0417 29.2917 17 29.125C17 28.9167 17.0417 28.7083 17.125 28.5C17.3333 27.7917 17.6875 27.1667 18.1875 26.625C18.7292 26.0833 19.1667 25.4792 19.5 24.8125C19.625 24.4792 19.7083 24.2292 19.75 24.0625C19.8333 23.8958 19.8958 23.75 19.9375 23.625C19.9792 23.5 20.0208 23.3542 20.0625 23.1875C20.1458 23.0208 20.2917 22.7708 20.5 22.4375C20.875 21.8542 21.25 21.2917 21.625 20.75C22.0417 20.2083 22.5208 19.6875 23.0625 19.1875C23.0625 18.9375 23.1042 18.7292 23.1875 18.5625C23.2708 18.3542 23.3542 18.1458 23.4375 17.9375C24.5625 17.4792 25.4792 16.875 26.1875 16.125C26.8958 15.375 27.6042 14.5833 28.3125 13.75C28.2708 13.3333 28.3542 13.0417 28.5625 12.875C28.7708 12.6667 28.875 12.3542 28.875 11.9375C28.875 11.7292 28.7917 11.5 28.625 11.25C28.5 10.9583 28.4375 10.6667 28.4375 10.375C28.4375 10.0417 28.5625 9.70833 28.8125 9.375C29.1042 9 29.3542 8.66667 29.5625 8.375C29.8958 8.04167 30.1458 7.70833 30.3125 7.375C30.5208 7.04167 30.7292 6.72917 30.9375 6.4375C31.2708 6.0625 31.6042 5.72917 31.9375 5.4375C32.3125 5.14583 32.6667 4.79167 33 4.375C33.1667 4.125 33.2917 3.85417 33.375 3.5625C33.5 3.22917 33.6875 2.97917 33.9375 2.8125C34.3125 2.5625 34.8333 2.41667 35.5 2.375C36.1667 2.33333 36.8333 2.29167 37.5 2.25C38.2917 2.20833 39.1458 2.125 40.0625 2C41.0208 1.83333 41.9583 1.66667 42.875 1.5C43.8333 1.33333 44.75 1.1875 45.625 1.0625C46.5417 0.895833 47.375 0.791667 48.125 0.75C48.875 0.666667 49.5833 0.645833 50.25 0.6875C50.9583 0.729167 51.5208 0.666667 51.9375 0.5C52.5208 1 53.1042 1.5 53.6875 2C54.3125 2.45833 54.8958 2.95833 55.4375 3.5C55.6042 4.33333 55.75 5.10417 55.875 5.8125C56 6.52083 56.0208 7.22917 55.9375 7.9375C55.8542 8.27083 55.7083 8.58333 55.5 8.875C55.3333 9.16667 55.2708 9.5 55.3125 9.875C55.3125 10.5 55.5 11.125 55.875 11.75C56.25 12.3333 56.5208 12.9792 56.6875 13.6875C56.7292 14.0208 56.6667 14.3542 56.5 14.6875C56.375 14.9792 56.2917 15.2917 56.25 15.625C56.2083 15.9583 56.2292 16.3333 56.3125 16.75C56.3958 17.125 56.4792 17.5208 56.5625 17.9375C56.5625 18.4375 56.5417 18.9375 56.5 19.4375C56.4583 19.9375 56.4792 20.4583 56.5625 21C56.6458 21.5417 56.75 22.1042 56.875 22.6875C57 23.2292 57.0417 23.7917 57 24.375C56.9167 24.9583 56.7917 25.5 56.625 26C56.5 26.5 56.4375 27.0208 56.4375 27.5625C56.3958 28.3125 56.4375 29.0417 56.5625 29.75C56.6875 30.4167 56.6458 31.1042 56.4375 31.8125C56.7708 32.2292 56.9375 32.6458 56.9375 33.0625C56.9792 33.4792 56.9583 33.8958 56.875 34.3125C56.7917 34.7292 56.7083 35.1667 56.625 35.625C56.5417 36.0417 56.5833 36.4792 56.75 36.9375C56.8333 37.2292 57 37.5 57.25 37.75C57.5 37.9583 57.6667 38.2292 57.75 38.5625C57.875 38.9792 57.9375 39.5 57.9375 40.125C57.9792 40.7083 58 41.2708 58 41.8125C58.0417 43.1458 57.9167 44.3333 57.625 45.375C57.375 46.4167 57.2292 47.5417 57.1875 48.75C57.1875 49.2917 57.1667 49.8958 57.125 50.5625C57.125 51.2292 57.0208 51.75 56.8125 52.125C56.6042 52.375 56.2708 52.625 55.8125 52.875C55.3542 53.1667 54.9583 53.3333 54.625 53.375C54 53.4167 53.2708 53.25 52.4375 52.875C51.6458 52.5 51.0417 52.1042 50.625 51.6875C50.25 51.2708 49.8958 50.8125 49.5625 50.3125C49.2708 49.8125 48.9583 49.2917 48.625 48.75C48.3333 48.2083 48.0208 47.7083 47.6875 47.25C47.3542 46.75 46.9792 46.3333 46.5625 46C46.3542 45.875 46.125 45.75 45.875 45.625C45.625 45.5 45.4375 45.3542 45.3125 45.1875C45.0625 44.7708 44.9167 44.3125 44.875 43.8125C44.875 43.2708 44.8958 42.7292 44.9375 42.1875C45.0208 41.6042 45.0833 41.0417 45.125 40.5C45.2083 39.9583 45.1875 39.4792 45.0625 39.0625C44.9375 38.6458 44.7708 38.3333 44.5625 38.125C44.3542 37.875 44.0833 37.7083 43.75 37.625C43.4583 37.5 43.1042 37.4375 42.6875 37.4375C42.3125 37.3958 41.8542 37.3542 41.3125 37.3125C39.3542 37.1875 37.3333 37.0625 35.25 36.9375C33.1667 36.8125 31.0417 36.7708 28.875 36.8125C28.4167 36.8125 28.0833 36.8333 27.875 36.875C27.6667 36.9167 27.4792 36.9583 27.3125 37C27.1458 37 26.9792 37.0208 26.8125 37.0625C26.6458 37.1042 26.375 37.125 26 37.125C25.1667 37.1667 24.4167 37.2292 23.75 37.3125C23.0833 37.3542 22.5 37.5625 22 37.9375C21.7083 38.1458 21.3958 38.5625 21.0625 39.1875C20.7292 39.8125 20.4792 40.2917 20.3125 40.625C20.1042 41.125 19.9167 41.6458 19.75 42.1875C19.625 42.7292 19.4792 43.2708 19.3125 43.8125C19.1875 44.3125 19.0208 44.7917 18.8125 45.25C18.6042 45.7083 18.3125 46.1042 17.9375 46.4375ZM33.8125 29.9375C35.2292 29.8958 36.5833 29.875 37.875 29.875C39.2083 29.8333 40.4583 29.7708 41.625 29.6875C41.7917 29.6042 41.9375 29.5417 42.0625 29.5C42.2292 29.4583 42.4792 29.4792 42.8125 29.5625C42.8125 29.3542 42.9167 29.25 43.125 29.25C43.3333 29.2083 43.5 29.1458 43.625 29.0625C43.7917 28.7708 43.875 28.5417 43.875 28.375C43.875 28.1667 43.8333 28 43.75 27.875C43.7083 27.7083 43.625 27.5417 43.5 27.375C43.4167 27.1667 43.375 26.8958 43.375 26.5625C43.375 26.2292 43.4167 25.8958 43.5 25.5625C43.625 25.1875 43.7083 24.8125 43.75 24.4375C43.7917 24.1458 43.75 23.8333 43.625 23.5C43.5417 23.1667 43.5208 22.8333 43.5625 22.5C43.6042 22.2083 43.7292 21.9583 43.9375 21.75C44.1458 21.5 44.25 21.2292 44.25 20.9375C44.25 20.7708 44.2083 20.5833 44.125 20.375C44.0833 20.1667 44.0417 19.9583 44 19.75C43.9583 19.4583 43.9375 19.1667 43.9375 18.875C43.9792 18.5833 43.9583 18.3333 43.875 18.125C43.7917 17.7917 43.5833 17.4792 43.25 17.1875C42.9167 16.8958 42.7083 16.5833 42.625 16.25C42.5 15.8333 42.4792 15.375 42.5625 14.875C42.6875 14.3333 42.75 13.8125 42.75 13.3125C42.7083 12.6042 42.6458 11.9583 42.5625 11.375C42.4792 10.7917 42.2708 10.2083 41.9375 9.625C41.4792 9.375 41.125 9.29167 40.875 9.375C40.6667 9.41667 40.4792 9.5625 40.3125 9.8125C40.1875 10.0208 40.0625 10.2708 39.9375 10.5625C39.8542 10.8542 39.6875 11.1042 39.4375 11.3125C38.3125 12.3125 37.4375 13.3333 36.8125 14.375C36.1875 15.375 35.4167 16.4792 34.5 17.6875C34.125 18.1458 33.7292 18.6042 33.3125 19.0625C32.9375 19.5208 32.5833 20.0208 32.25 20.5625C31.9583 21.1042 31.7292 21.6667 31.5625 22.25C31.3958 22.8333 31.3542 23.4792 31.4375 24.1875C31.2292 24.5208 31.0417 24.7708 30.875 24.9375C30.75 25.0625 30.6042 25.1875 30.4375 25.3125C30.2708 25.4375 30.0833 25.5833 29.875 25.75C29.7083 25.9167 29.5 26.1458 29.25 26.4375C28.7917 27.0208 28.2917 27.625 27.75 28.25C27.2083 28.8333 26.8542 29.4792 26.6875 30.1875C27.4375 30.3958 28.0833 30.5 28.625 30.5C29.1667 30.5 29.6875 30.4792 30.1875 30.4375C30.7292 30.3542 31.2708 30.2708 31.8125 30.1875C32.3958 30.0625 33.0625 29.9792 33.8125 29.9375ZM98.1875 15.25C98.2708 15.7083 98.1667 16.1042 97.875 16.4375C97.625 16.7292 97.2917 16.9167 96.875 17C96.9583 17.2917 97.1042 17.4792 97.3125 17.5625C97.5208 17.6042 97.6667 17.7292 97.75 17.9375C97.4167 18.6042 96.8542 19.1042 96.0625 19.4375C95.3125 19.7292 94.5208 19.9792 93.6875 20.1875C93.1875 20.2708 92.6458 20.3125 92.0625 20.3125C91.5208 20.3125 91 20.2708 90.5 20.1875C89.7917 20.0625 89.125 19.8333 88.5 19.5C87.875 19.125 87.2708 18.9792 86.6875 19.0625C86.5208 19.1042 86.3333 19.2083 86.125 19.375C85.9583 19.5417 85.7708 19.6667 85.5625 19.75C85.1458 20.0417 84.625 20.2917 84 20.5C83.4167 20.6667 82.9583 20.8542 82.625 21.0625C81.6667 21.6042 80.7708 22.2708 79.9375 23.0625C79.1042 23.8542 78.2292 24.5417 77.3125 25.125C76.9792 25.7917 76.6458 26.4583 76.3125 27.125C76.0208 27.75 75.7083 28.4792 75.375 29.3125C75.2083 29.6875 75.0208 30.0833 74.8125 30.5C74.6458 30.875 74.5208 31.25 74.4375 31.625C74.3542 32 74.2708 32.4583 74.1875 33C74.1458 33.5417 74.0625 34.0417 73.9375 34.5C73.8542 34.8333 73.7083 35.125 73.5 35.375C73.3333 35.625 73.2708 35.9375 73.3125 36.3125C73.3958 36.6458 73.5625 36.9167 73.8125 37.125C74.1042 37.3333 74.2917 37.5833 74.375 37.875C74.4583 38.0417 74.4583 38.2292 74.375 38.4375C74.3333 38.6042 74.3333 38.7917 74.375 39C74.5417 39.7083 74.8958 40.3542 75.4375 40.9375C76.0208 41.5208 76.5 42.0833 76.875 42.625C77.75 42.7083 78.5208 42.8542 79.1875 43.0625C79.8958 43.2292 80.625 43.375 81.375 43.5C82.0833 43.1667 82.7917 42.8958 83.5 42.6875C84.25 42.4792 85.0417 42.2292 85.875 41.9375C86.5 41.7292 87.1042 41.4167 87.6875 41C88.3125 40.5417 88.9583 40.2708 89.625 40.1875C89.75 40.1875 89.8958 40.2292 90.0625 40.3125C90.2292 40.3542 90.375 40.3542 90.5 40.3125C90.8333 40.2708 91.125 40.1458 91.375 39.9375C91.625 39.7292 91.875 39.5417 92.125 39.375C92.4167 39.1667 92.7083 39 93 38.875C93.3333 38.75 93.7083 38.7292 94.125 38.8125C94.5417 39.5208 94.6042 40.0833 94.3125 40.5C94.0625 40.9167 93.6875 41.3125 93.1875 41.6875C92.6875 42.0208 92.1875 42.3958 91.6875 42.8125C91.2292 43.2292 91 43.7708 91 44.4375C90.625 44.8542 90.1667 45.2917 89.625 45.75C89.0833 46.2083 88.4583 46.5833 87.75 46.875C87.4583 46.9583 87.1458 47.0417 86.8125 47.125C86.5208 47.1667 86.25 47.2292 86 47.3125C85.125 47.6458 84.3125 48 83.5625 48.375C82.8125 48.75 81.875 48.9167 80.75 48.875C80.0833 48.875 79.4792 48.8125 78.9375 48.6875C78.4792 48.6042 78.0417 48.4583 77.625 48.25C77.25 48.0417 76.8333 47.8958 76.375 47.8125C75.7917 47.7292 75.2083 47.7292 74.625 47.8125C74.0417 47.8958 73.5 47.8958 73 47.8125C72.5 47.7292 71.9792 47.5417 71.4375 47.25C70.8958 46.9167 70.375 46.5833 69.875 46.25C69.3333 45.9583 68.8125 45.6875 68.3125 45.4375C67.8542 45.1458 67.3958 44.875 66.9375 44.625C66.3958 44.25 65.9375 43.7917 65.5625 43.25C65.2292 42.6667 64.8125 42.1458 64.3125 41.6875C64.1042 40.8542 64.0208 40.0417 64.0625 39.25C64.1042 38.4167 64.1042 37.5833 64.0625 36.75C64.0208 36 63.875 35.2292 63.625 34.4375C63.4167 33.6458 63.3542 32.9375 63.4375 32.3125C63.5208 32.0208 63.625 31.7083 63.75 31.375C63.875 31.0417 63.9583 30.6875 64 30.3125C64.0833 29.7292 64.1667 29.2083 64.25 28.75C64.375 28.25 64.5625 27.7708 64.8125 27.3125C64.9792 27.0208 65.1667 26.75 65.375 26.5C65.625 26.25 65.8542 26 66.0625 25.75C66.3125 25.5 66.5208 25.2292 66.6875 24.9375C66.8542 24.6458 66.9583 24.2708 67 23.8125C67.25 23.4792 67.5417 23.2292 67.875 23.0625C68.25 22.8958 68.5417 22.6458 68.75 22.3125C68.875 22.1042 68.9375 21.8958 68.9375 21.6875C68.9375 21.4792 69.0208 21.2708 69.1875 21.0625C69.3958 20.8125 69.7083 20.5417 70.125 20.25C70.5417 19.9583 70.8958 19.7083 71.1875 19.5C72.0208 19.0417 72.8958 18.625 73.8125 18.25C74.7292 17.8333 75.5833 17.3333 76.375 16.75C76.875 16.75 77.3542 16.6875 77.8125 16.5625C78.3125 16.3958 78.7708 16.2292 79.1875 16.0625C79.6458 15.8542 80.1042 15.6667 80.5625 15.5C81.0208 15.2917 81.5 15.1458 82 15.0625C82.4583 15.0208 82.9583 15.0208 83.5 15.0625C84.0417 15.0625 84.5625 15.0417 85.0625 15C85.8125 14.9583 86.5625 14.9375 87.3125 14.9375C88.1042 14.8958 88.8125 14.9167 89.4375 15C89.7292 15.0417 90.0208 15.1458 90.3125 15.3125C90.6042 15.4375 90.9167 15.5 91.25 15.5C91.5417 15.5 91.8333 15.4375 92.125 15.3125C92.4583 15.1875 92.7708 15.1042 93.0625 15.0625C93.8958 14.9792 94.75 14.9792 95.625 15.0625C96.5 15.1042 97.3542 15.1667 98.1875 15.25ZM110.062 19.5C110.854 18.9583 111.542 18.3333 112.125 17.625C112.708 16.9167 113.271 16.2083 113.812 15.5C114.146 15.5417 114.438 15.4792 114.688 15.3125C114.938 15.1458 115.208 15.0208 115.5 14.9375C116.083 14.7708 116.667 14.7917 117.25 15C117.875 15.1667 118.479 15.2292 119.062 15.1875C119.771 15.1042 120.438 14.9167 121.062 14.625C121.729 14.3333 122.5 14.1875 123.375 14.1875C123.667 14.1875 123.938 14.2917 124.188 14.5C124.438 14.6667 124.688 14.7708 124.938 14.8125C125.271 14.8958 125.562 14.8542 125.812 14.6875C126.104 14.5208 126.417 14.4375 126.75 14.4375C127.333 14.4375 127.771 14.625 128.062 15C128.396 15.375 128.771 15.75 129.188 16.125C129.396 17.0833 129.417 18.0208 129.25 18.9375C129.083 19.8542 129.042 20.7917 129.125 21.75C129.208 22.375 129.292 22.9792 129.375 23.5625C129.5 24.1458 129.562 24.75 129.562 25.375C129.604 25.9167 129.562 26.5 129.438 27.125C129.354 27.7083 129.333 28.2917 129.375 28.875C129.417 29.0833 129.479 29.2917 129.562 29.5C129.646 29.7083 129.667 29.9167 129.625 30.125C129.542 30.5833 129.354 30.9375 129.062 31.1875C128.771 31.4375 128.604 31.7708 128.562 32.1875C128.479 32.8125 128.604 33.3958 128.938 33.9375C129.312 34.4792 129.542 35.0417 129.625 35.625C129.667 35.875 129.646 36.1458 129.562 36.4375C129.479 36.7292 129.438 37 129.438 37.25C129.354 38.1667 129.354 39.1875 129.438 40.3125C129.562 41.4375 129.646 42.4792 129.688 43.4375C129.688 43.7708 129.708 44.1042 129.75 44.4375C129.833 44.7708 129.833 45.0417 129.75 45.25C129.708 45.4583 129.604 45.625 129.438 45.75C129.312 45.875 129.208 46.0208 129.125 46.1875C129.083 46.3958 129.083 46.6875 129.125 47.0625C129.208 47.4375 129.25 47.7917 129.25 48.125C129.25 48.4167 129.229 48.6875 129.188 48.9375C129.146 49.2292 129.125 49.4792 129.125 49.6875C129.167 49.8125 129.208 49.9375 129.25 50.0625C129.333 50.2292 129.354 50.375 129.312 50.5C129.229 50.875 128.938 51.2708 128.438 51.6875C127.979 52.1458 127.5 52.3542 127 52.3125C126.75 52.2708 126.375 52.0625 125.875 51.6875C125.417 51.3542 125.083 51.0833 124.875 50.875C124.5 50.4167 124.271 49.8333 124.188 49.125C124.104 48.4167 123.917 47.7708 123.625 47.1875C123.5 46.9792 123.312 46.7917 123.062 46.625C122.854 46.4167 122.667 46.1875 122.5 45.9375C122.25 45.4792 122.083 45.0208 122 44.5625C121.917 44.0625 121.854 43.5833 121.812 43.125C121.812 42.625 121.792 42.1458 121.75 41.6875C121.708 41.1875 121.604 40.6875 121.438 40.1875C121.354 40.0208 121.229 39.875 121.062 39.75C120.896 39.625 120.75 39.4583 120.625 39.25C120.375 38.8333 120.208 38.4792 120.125 38.1875C120.042 37.8958 119.771 37.6667 119.312 37.5C117.854 37.5 116.375 37.4583 114.875 37.375C113.417 37.2917 111.979 37.3333 110.562 37.5C110.229 37.5417 109.938 37.625 109.688 37.75C109.438 37.8333 109.146 37.8958 108.812 37.9375C108.646 37.9375 108.479 37.9167 108.312 37.875C108.146 37.8333 108 37.8125 107.875 37.8125C107.292 37.8958 106.729 38.1667 106.188 38.625C105.646 39.0417 105.229 39.4583 104.938 39.875C104.771 40.125 104.667 40.4375 104.625 40.8125C104.625 41.1458 104.562 41.4792 104.438 41.8125C104.312 42.1458 104.104 42.4583 103.812 42.75C103.521 43 103.417 43.3333 103.5 43.75C103.042 44.0833 102.646 44.5 102.312 45C102.021 45.5 101.729 46.0208 101.438 46.5625C101.146 47.0625 100.812 47.5417 100.438 48C100.104 48.4583 99.6875 48.7917 99.1875 49C98.9792 49.0833 98.7708 49.1875 98.5625 49.3125C98.3958 49.4375 98.2083 49.5 98 49.5C97.7917 49.4583 97.6667 49.3958 97.625 49.3125C97.625 49.2292 97.5 49.1042 97.25 48.9375C97 48.7708 96.7083 48.5833 96.375 48.375C96 48.1667 95.6458 47.9375 95.3125 47.6875C94.9792 47.4375 94.6875 47.1875 94.4375 46.9375C94.1458 46.6458 93.9375 46.375 93.8125 46.125C93.4792 45.4167 93.4167 44.9167 93.625 44.625C93.8333 44.2917 94.1042 43.8958 94.4375 43.4375C94.8958 42.7708 95.4167 42.0208 96 41.1875C96.5833 40.3542 97.1042 39.5625 97.5625 38.8125C97.8125 38.3958 98.0208 38 98.1875 37.625C98.3958 37.25 98.6458 36.8958 98.9375 36.5625C99.2708 36.1042 99.6875 35.7292 100.188 35.4375C100.729 35.1458 101.104 34.7708 101.312 34.3125C101.396 34.1042 101.438 33.8958 101.438 33.6875C101.438 33.4375 101.479 33.1875 101.562 32.9375C101.896 32.1042 102.417 31.3542 103.125 30.6875C103.833 30.0208 104.375 29.2708 104.75 28.4375C104.833 28.2292 104.875 28.0417 104.875 27.875C104.917 27.6667 104.979 27.4583 105.062 27.25C105.729 25.7083 106.542 24.3333 107.5 23.125C108.5 21.9167 109.354 20.7083 110.062 19.5ZM118.812 19.3125C118.312 19.6875 117.875 20.125 117.5 20.625C117.167 21.0833 116.708 21.4375 116.125 21.6875C115.958 22.0625 115.75 22.4167 115.5 22.75C115.292 23.0833 115 23.3542 114.625 23.5625C114.5 24.2292 114.25 24.8125 113.875 25.3125C113.5 25.7708 113.146 26.2292 112.812 26.6875C112.646 26.8542 112.5 27.0417 112.375 27.25C112.25 27.4167 112.104 27.6042 111.938 27.8125C111.729 28.0208 111.521 28.1875 111.312 28.3125C111.104 28.3958 110.917 28.5208 110.75 28.6875C110.5 29.0208 110.229 29.4792 109.938 30.0625C109.646 30.6458 109.375 31.125 109.125 31.5C108.917 31.7083 108.708 31.9167 108.5 32.125C108.292 32.3333 108.229 32.6042 108.312 32.9375C108.438 33.2708 108.688 33.5 109.062 33.625C109.438 33.7083 109.854 33.7708 110.312 33.8125C110.812 33.8125 111.292 33.7917 111.75 33.75C112.208 33.7083 112.583 33.6875 112.875 33.6875C113.458 33.6875 114.042 33.7083 114.625 33.75C115.25 33.75 115.833 33.7292 116.375 33.6875C116.958 33.6458 117.458 33.5417 117.875 33.375C118.333 33.2083 118.688 32.9583 118.938 32.625C119.354 31.2917 119.458 29.9583 119.25 28.625C119.042 27.25 118.854 25.8958 118.688 24.5625C118.604 24.1875 118.542 23.7708 118.5 23.3125C118.458 22.8542 118.458 22.4375 118.5 22.0625C118.542 21.6458 118.667 21.25 118.875 20.875C119.125 20.4583 119.167 19.9792 119 19.4375L118.812 19.3125ZM134.812 44.25C135.104 43.5833 135.354 42.9583 135.562 42.375C135.771 41.75 136.042 41.0625 136.375 40.3125C136.542 39.8958 136.667 39.4583 136.75 39C136.833 38.5417 136.979 38.0833 137.188 37.625C137.396 37.25 137.646 36.875 137.938 36.5C138.271 36.125 138.521 35.7083 138.688 35.25C138.938 34.5417 138.958 33.75 138.75 32.875C138.542 31.9583 138.562 31.0417 138.812 30.125C139.021 29.25 139.25 28.3958 139.5 27.5625C139.792 26.6875 139.979 25.9167 140.062 25.25C140.146 24.7917 140.188 24.3333 140.188 23.875C140.188 23.375 140.229 22.875 140.312 22.375C140.396 21.8333 140.562 21.3125 140.812 20.8125C141.062 20.2708 141.208 19.7708 141.25 19.3125C141.333 18.3542 141.104 17.5 140.562 16.75C140.062 15.9583 139.542 15.2917 139 14.75C139.042 14.5 139.167 14.3125 139.375 14.1875C139.625 14.0208 139.812 13.9583 139.938 14C140.438 14.0833 141 14.25 141.625 14.5C142.25 14.75 142.854 14.9167 143.438 15C143.938 15.0833 144.479 15.0833 145.062 15C145.688 14.9167 146.333 14.9167 147 15C147.708 15.0833 148.562 15.1667 149.562 15.25C150.562 15.3333 151.542 15.375 152.5 15.375C153.583 15.4167 154.625 15.3958 155.625 15.3125C156.625 15.2292 157.604 15.25 158.562 15.375C159.271 15.4583 159.917 15.6458 160.5 15.9375C161.083 16.2292 161.729 16.3333 162.438 16.25C163.021 16.9167 163.688 17.4375 164.438 17.8125C165.229 18.1458 165.938 18.5833 166.562 19.125C167.438 19.8333 168.188 20.6875 168.812 21.6875C169.438 22.6458 170.188 23.4792 171.062 24.1875C171.062 24.5208 171.146 24.8333 171.312 25.125C171.479 25.4167 171.583 25.75 171.625 26.125C171.625 26.3333 171.583 26.5833 171.5 26.875C171.417 27.125 171.375 27.375 171.375 27.625C171.417 28 171.542 28.3125 171.75 28.5625C171.958 28.7708 172.042 29.1042 172 29.5625C171.958 31.0208 171.583 32.4583 170.875 33.875C170.167 35.2917 169.458 36.5417 168.75 37.625C168.292 37.6667 167.958 37.8542 167.75 38.1875C167.583 38.5208 167.354 38.8958 167.062 39.3125C166.646 39.8958 166.146 40.3958 165.562 40.8125C165.021 41.1875 164.521 41.6667 164.062 42.25C163.146 42.5833 162.292 43.0208 161.5 43.5625C160.75 44.1042 159.896 44.6042 158.938 45.0625C158.604 45.2292 158.25 45.3958 157.875 45.5625C157.542 45.6875 157.208 45.8333 156.875 46C156.458 46.125 156.062 46.2708 155.688 46.4375C155.312 46.6042 154.958 46.7292 154.625 46.8125C154.375 46.8958 154.104 46.9167 153.812 46.875C153.562 46.8333 153.312 46.8542 153.062 46.9375C152.521 47.0625 152 47.2917 151.5 47.625C151 47.9167 150.5 48.1042 150 48.1875C149.417 48.2708 148.833 48.2292 148.25 48.0625C147.667 47.8958 147.104 47.75 146.562 47.625C145.854 47.7083 145.146 47.75 144.438 47.75C143.729 47.7083 143 47.6667 142.25 47.625C141.5 47.5833 140.708 47.5833 139.875 47.625C139.042 47.6667 138.146 47.7708 137.188 47.9375C136.938 47.9792 136.667 48.0625 136.375 48.1875C136.125 48.3125 135.875 48.3958 135.625 48.4375C135.167 48.5208 134.646 48.5625 134.062 48.5625C133.521 48.5625 133 48.5625 132.5 48.5625C132.292 48.5625 132.042 48.5417 131.75 48.5C131.458 48.5 131.188 48.4792 130.938 48.4375C130.646 48.3958 130.396 48.3125 130.188 48.1875C129.979 48.1042 129.854 47.9792 129.812 47.8125C129.771 47.5625 129.854 47.3542 130.062 47.1875C130.229 46.9792 130.458 46.8125 130.75 46.6875C131 46.5208 131.271 46.3958 131.562 46.3125C131.854 46.1875 132.083 46.0833 132.25 46C132.75 45.7083 133.188 45.3958 133.562 45.0625C133.896 44.6875 134.312 44.4167 134.812 44.25ZM151.438 20.0625C151.104 20.3958 150.854 20.7917 150.688 21.25C150.562 21.7083 150.438 22.2083 150.312 22.75C150.229 23.25 150.146 23.7708 150.062 24.3125C149.979 24.8542 149.854 25.375 149.688 25.875C149.521 26.2083 149.354 26.5417 149.188 26.875C149.021 27.1667 148.896 27.4792 148.812 27.8125C148.604 28.6042 148.479 29.375 148.438 30.125C148.396 30.875 148.271 31.6667 148.062 32.5C147.979 32.9583 147.812 33.4167 147.562 33.875C147.354 34.2917 147.208 34.7292 147.125 35.1875C147.042 35.6458 147.042 36.0833 147.125 36.5C147.208 36.9167 147.208 37.3542 147.125 37.8125C147.042 38.1458 146.917 38.4583 146.75 38.75C146.625 39.0417 146.521 39.3542 146.438 39.6875C146.229 40.8125 146.438 41.6458 147.062 42.1875C147.688 42.6875 148.438 43.0417 149.312 43.25C150.812 43.5833 152.188 43.5 153.438 43C154.729 42.4583 155.75 41.8542 156.5 41.1875C157.042 40.5625 157.604 39.8958 158.188 39.1875C158.771 38.4375 159.229 37.625 159.562 36.75C159.688 36.4167 159.812 35.9792 159.938 35.4375C160.062 34.8542 160.208 34.2917 160.375 33.75C160.5 33.2917 160.646 32.875 160.812 32.5C161.021 32.0833 161.188 31.6667 161.312 31.25C161.771 30.1667 161.938 29.0208 161.812 27.8125C161.729 26.5625 161.521 25.5833 161.188 24.875C161.062 24.625 160.854 24.3542 160.562 24.0625C160.312 23.7708 160.062 23.4792 159.812 23.1875C159.521 22.8542 159.25 22.5208 159 22.1875C158.792 21.8542 158.604 21.6042 158.438 21.4375C157.854 20.8958 157.146 20.5208 156.312 20.3125C155.521 20.0625 154.792 19.6667 154.125 19.125C153.417 19.1667 152.896 19.2917 152.562 19.5C152.229 19.7083 151.854 19.8958 151.438 20.0625ZM204.938 18.8125C203.812 19.3542 202.688 19.625 201.562 19.625C200.438 19.625 199.188 19.5833 197.812 19.5C197.438 19.5 197.021 19.5208 196.562 19.5625C196.146 19.6042 195.75 19.6458 195.375 19.6875C193.417 19.8958 191.771 20.6458 190.438 21.9375C189.104 23.1875 188.125 24.7708 187.5 26.6875C187.292 27.3958 187.125 28.0417 187 28.625C186.875 29.2083 187.146 29.5417 187.812 29.625C188.229 29.7083 188.646 29.7083 189.062 29.625C189.479 29.5417 189.896 29.4375 190.312 29.3125C190.771 29.1458 191.208 29 191.625 28.875C192.042 28.75 192.458 28.6875 192.875 28.6875C193.042 28.6875 193.188 28.7292 193.312 28.8125C193.479 28.8958 193.646 28.9375 193.812 28.9375C194.521 29.0208 195.271 28.9792 196.062 28.8125C196.854 28.6042 197.583 28.5833 198.25 28.75C198.375 28.7917 198.479 28.875 198.562 29C198.688 29.0833 198.854 29.1667 199.062 29.25C199.604 29.4583 200.25 29.6042 201 29.6875C201.75 29.7292 202.354 29.8542 202.812 30.0625C203.021 30.1458 203.229 30.3125 203.438 30.5625C203.646 30.7708 203.75 30.9167 203.75 31C203.75 31.4583 203.479 31.75 202.938 31.875C202.396 32 201.938 32.0833 201.562 32.125C201.229 32.1667 200.896 32.1667 200.562 32.125C200.229 32.0833 199.896 32.1042 199.562 32.1875C198.979 32.2708 198.417 32.3958 197.875 32.5625C197.333 32.6875 196.75 32.8542 196.125 33.0625C195.417 33.3125 194.75 33.625 194.125 34C193.5 34.3333 192.812 34.5417 192.062 34.625C191.521 34.7083 191 34.7083 190.5 34.625C190 34.5417 189.458 34.5417 188.875 34.625C188.667 34.6667 188.458 34.7292 188.25 34.8125C188.083 34.8958 187.896 34.9583 187.688 35C187.312 35.0833 187.021 35.1458 186.812 35.1875C186.646 35.1875 186.5 35.2292 186.375 35.3125C186.292 35.3958 186.188 35.5208 186.062 35.6875C185.979 35.8542 185.833 36.1042 185.625 36.4375C185.292 37.1875 185.083 38 185 38.875C184.917 39.7083 184.833 40.6042 184.75 41.5625C185.208 42.0208 185.646 42.3958 186.062 42.6875C186.479 42.9375 187.125 43.0625 188 43.0625C188.458 43.0625 188.812 43.0208 189.062 42.9375C189.354 42.8125 189.729 42.7292 190.188 42.6875C190.646 42.6875 191.104 42.7292 191.562 42.8125C192.021 42.8542 192.542 42.8542 193.125 42.8125C194.333 42.7292 195.354 42.5833 196.188 42.375C197.021 42.125 198.042 42.0417 199.25 42.125C199.5 42.125 199.938 42.1458 200.562 42.1875C201.229 42.2292 201.896 42.2917 202.562 42.375C203.229 42.4167 203.812 42.5 204.312 42.625C204.854 42.75 205.125 42.9167 205.125 43.125C205.125 43.375 204.958 43.6458 204.625 43.9375C204.333 44.1875 203.979 44.4375 203.562 44.6875C203.188 44.8958 202.792 45.0833 202.375 45.25C202 45.375 201.75 45.4583 201.625 45.5C200.917 45.7083 200.229 45.7708 199.562 45.6875C198.896 45.5625 198.167 45.5417 197.375 45.625C196.792 45.7083 196.271 45.8333 195.812 46C195.354 46.1667 194.896 46.3542 194.438 46.5625C193.979 46.7292 193.5 46.9167 193 47.125C192.542 47.2917 192 47.3958 191.375 47.4375C190.542 47.5208 189.833 47.625 189.25 47.75C188.667 47.8333 187.979 47.9583 187.188 48.125C186.854 48.2083 186.542 48.2917 186.25 48.375C185.958 48.5 185.646 48.6042 185.312 48.6875C184.104 48.9375 182.792 48.9792 181.375 48.8125C180 48.6875 178.5 48.7083 176.875 48.875C175.833 49 174.896 49.1458 174.062 49.3125C173.271 49.5208 172.458 49.5833 171.625 49.5C171.333 49.4583 171.062 49.4167 170.812 49.375C170.521 49.375 170.271 49.2708 170.062 49.0625C170.146 48.7292 170.333 48.4375 170.625 48.1875C170.917 47.9375 171.208 47.7083 171.5 47.5C171.792 47.25 172.062 47 172.312 46.75C172.604 46.4583 172.875 46.1875 173.125 45.9375C173.375 45.6042 173.583 45.2083 173.75 44.75C173.917 44.25 174.062 43.75 174.188 43.25C174.354 42.75 174.521 42.2917 174.688 41.875C174.896 41.4167 175.146 41.0208 175.438 40.6875C175.104 39.9375 175.104 39.0833 175.438 38.125C175.812 37.1667 176.146 36.1667 176.438 35.125C176.521 34.875 176.562 34.625 176.562 34.375C176.562 34.125 176.604 33.8958 176.688 33.6875C176.771 33.2708 176.958 32.9167 177.25 32.625C177.542 32.2917 177.729 31.9583 177.812 31.625C177.854 31.4167 177.854 31.2083 177.812 31C177.812 30.7917 177.833 30.5833 177.875 30.375C177.958 29.75 178.104 29.1667 178.312 28.625C178.562 28.0417 178.729 27.5208 178.812 27.0625C178.896 26.7292 178.896 26.3958 178.812 26.0625C178.771 25.6875 178.771 25.3333 178.812 25C178.896 24.1667 179.062 23.375 179.312 22.625C179.604 21.875 179.771 21.2083 179.812 20.625C179.854 20.1667 179.792 19.6667 179.625 19.125C179.458 18.5833 179.292 18.1667 179.125 17.875C179 17.6667 178.812 17.4583 178.562 17.25C178.312 17 178.062 16.7708 177.812 16.5625C177.562 16.3542 177.333 16.1667 177.125 16C176.958 15.7917 176.875 15.6042 176.875 15.4375C176.917 14.9792 177.104 14.75 177.438 14.75C177.771 14.7083 178.083 14.5625 178.375 14.3125C179.875 14.3542 181.292 14.5208 182.625 14.8125C184 15.1042 185.417 15.2917 186.875 15.375C187.417 15.4583 187.979 15.4583 188.562 15.375C189.146 15.25 189.708 15.1667 190.25 15.125C191.125 15.0833 192.104 15.2083 193.188 15.5C194.312 15.7917 195.417 15.8958 196.5 15.8125C197.958 15.7292 199.333 15.6875 200.625 15.6875C201.917 15.6875 203.271 15.6458 204.688 15.5625C204.938 15.7708 205.312 15.875 205.812 15.875C206.312 15.8333 206.812 15.7917 207.312 15.75C207.854 15.6667 208.333 15.6458 208.75 15.6875C209.208 15.7292 209.521 15.9167 209.688 16.25C209.938 16.8333 209.896 17.3333 209.562 17.75C209.229 18.1667 208.771 18.4375 208.188 18.5625C208.021 18.5625 207.792 18.5833 207.5 18.625C207.208 18.6667 206.896 18.7083 206.562 18.75C206.229 18.7917 205.896 18.8125 205.562 18.8125C205.271 18.8125 205.062 18.8125 204.938 18.8125ZM246.188 49.5C245.979 49.4583 245.875 49.3125 245.875 49.0625C245.875 48.8125 245.792 48.6458 245.625 48.5625C245.083 48.5625 244.646 48.5625 244.312 48.5625C244.021 48.6042 243.583 48.5208 243 48.3125C242.75 47.7292 242.625 47.125 242.625 46.5C242.625 45.875 242.729 45.2708 242.938 44.6875C243.021 44.4375 243.146 44.2292 243.312 44.0625C243.521 43.8542 243.667 43.6458 243.75 43.4375C243.792 43.2292 243.771 43 243.688 42.75C243.646 42.5 243.625 42.2708 243.625 42.0625C243.667 40.8125 243.938 39.5833 244.438 38.375C244.938 37.125 245.292 35.8958 245.5 34.6875C245.542 34.3542 245.521 33.9583 245.438 33.5C245.354 33 245.354 32.5833 245.438 32.25C245.521 31.875 245.667 31.5208 245.875 31.1875C246.125 30.8542 246.292 30.4792 246.375 30.0625C246.542 29.2292 246.625 28.4167 246.625 27.625C246.667 26.7917 246.854 25.9792 247.188 25.1875C245.771 26.6458 244.479 28.1458 243.312 29.6875C242.146 31.1875 241.042 32.9375 240 34.9375C239.542 35.8958 238.979 36.7708 238.312 37.5625C237.646 38.3125 237.083 39.2083 236.625 40.25C236.542 40.4583 236.5 40.6667 236.5 40.875C236.5 41.0417 236.458 41.2292 236.375 41.4375C236.167 41.8958 235.875 42.375 235.5 42.875C235.167 43.375 234.896 43.9375 234.688 44.5625C234.562 45.0208 234.417 45.5208 234.25 46.0625C234.125 46.6042 233.938 47.125 233.688 47.625C233.479 48.0833 233.208 48.4792 232.875 48.8125C232.542 49.1458 232.104 49.3333 231.562 49.375C231.062 49.375 230.646 49.2708 230.312 49.0625C230.021 48.8958 229.667 48.875 229.25 49C228.625 48.5417 227.979 48.125 227.312 47.75C226.688 47.3333 226.188 46.7292 225.812 45.9375C225.396 45.1458 225.083 44.1458 224.875 42.9375C224.708 41.6875 224.5 40.5625 224.25 39.5625C224.167 39.2292 224.042 38.9167 223.875 38.625C223.75 38.2917 223.667 38 223.625 37.75C223.583 37.25 223.583 36.7708 223.625 36.3125C223.667 35.8125 223.646 35.3333 223.562 34.875C223.438 34.375 223.167 33.9375 222.75 33.5625C222.375 33.1875 222.083 32.8333 221.875 32.5C221.75 31.875 221.667 31.2083 221.625 30.5C221.583 29.75 221.542 29.0208 221.5 28.3125C221.083 28.4792 220.833 28.8125 220.75 29.3125C220.667 29.8125 220.521 30.3542 220.312 30.9375C220.188 31.2292 220.042 31.5 219.875 31.75C219.75 32 219.667 32.2292 219.625 32.4375C219.583 32.6875 219.604 32.9375 219.688 33.1875C219.771 33.4375 219.792 33.7292 219.75 34.0625C219.708 34.3125 219.625 34.625 219.5 35C219.417 35.375 219.333 35.7292 219.25 36.0625C219.042 36.6458 218.792 37.2292 218.5 37.8125C218.208 38.3958 217.979 39.0417 217.812 39.75C217.562 40.4583 217.396 41.2292 217.312 42.0625C217.271 42.8542 217.146 43.5417 216.938 44.125C216.854 44.375 216.688 44.6042 216.438 44.8125C216.188 45.0208 215.938 45.2708 215.688 45.5625C215.438 45.8125 215.208 46.1042 215 46.4375C214.833 46.7708 214.75 47.1458 214.75 47.5625C214.292 47.8958 213.792 48.1667 213.25 48.375C212.75 48.625 212.146 48.875 211.438 49.125C211.062 49.25 210.667 49.3333 210.25 49.375C209.875 49.4167 209.521 49.3542 209.188 49.1875C208.854 49.0625 208.604 48.8125 208.438 48.4375C208.271 48.1042 208.229 47.625 208.312 47C208.396 46.4167 208.583 45.7917 208.875 45.125C209.208 44.4167 209.479 43.6458 209.688 42.8125C209.979 41.7292 210.229 40.75 210.438 39.875C210.688 39 211.062 38.25 211.562 37.625V36.4375C211.729 36.1458 211.875 35.875 212 35.625C212.125 35.3333 212.312 35.0833 212.562 34.875C212.438 34.2917 212.396 33.7292 212.438 33.1875C212.521 32.6458 212.646 32.125 212.812 31.625C213.021 31.0833 213.229 30.5833 213.438 30.125C213.646 29.625 213.833 29.1458 214 28.6875C214.167 28.1875 214.271 27.75 214.312 27.375C214.354 26.9583 214.479 26.5833 214.688 26.25C214.771 26.0833 214.917 25.9583 215.125 25.875C215.333 25.75 215.5 25.5833 215.625 25.375C215.833 25 216.062 24.4792 216.312 23.8125C216.604 23.1042 216.792 22.5417 216.875 22.125C217 21.75 217.042 21.375 217 21C217 20.5833 216.979 20.1875 216.938 19.8125C216.896 19.3958 216.875 19 216.875 18.625C216.917 18.25 217.042 17.9167 217.25 17.625C217.375 17.4167 217.583 17.2292 217.875 17.0625C218.208 16.8958 218.479 16.75 218.688 16.625C219.146 16.3333 219.583 16.1042 220 15.9375C220.417 15.7292 220.917 15.5208 221.5 15.3125C221.708 15.2292 221.938 15.1458 222.188 15.0625C222.438 14.9792 222.646 14.9375 222.812 14.9375C223.271 14.9375 223.688 15.0833 224.062 15.375C224.438 15.6667 224.875 15.9167 225.375 16.125C225.583 16.2083 225.792 16.25 226 16.25C226.208 16.25 226.375 16.2708 226.5 16.3125C227.25 16.6458 227.917 17.0625 228.5 17.5625C229.083 18.0208 229.583 18.4583 230 18.875C230.458 20.4583 230.667 22.1042 230.625 23.8125C230.625 25.5208 230.708 27.1667 230.875 28.75C230.958 29 231.042 29.25 231.125 29.5C231.208 29.75 231.271 30 231.312 30.25C231.354 30.7083 231.333 31.1458 231.25 31.5625C231.208 31.9792 231.229 32.3958 231.312 32.8125C231.438 33.6458 231.646 34.3958 231.938 35.0625C232.271 35.7292 232.521 36.4583 232.688 37.25C233.104 37.0417 233.438 36.7292 233.688 36.3125C233.938 35.8542 234.167 35.4167 234.375 35C234.792 34.125 235.208 33.3125 235.625 32.5625C236.042 31.7708 236.542 31.0208 237.125 30.3125C237.583 29.6875 237.938 29 238.188 28.25C238.438 27.5 238.896 26.9167 239.562 26.5C239.812 26.2917 240.083 26.1667 240.375 26.125C240.667 26.0833 240.917 25.9167 241.125 25.625C241.333 24.0417 241.729 22.6875 242.312 21.5625C242.938 20.4375 243.646 19.3333 244.438 18.25C244.771 17.8333 245.146 17.2917 245.562 16.625C246.021 15.9167 246.458 15.4792 246.875 15.3125C247.25 15.1458 247.708 15.125 248.25 15.25C248.833 15.3333 249.354 15.375 249.812 15.375C250.438 15.375 250.958 15.2917 251.375 15.125C251.833 14.9583 252.25 14.7917 252.625 14.625C253.042 14.4583 253.458 14.3125 253.875 14.1875C254.333 14.0625 254.875 14.0417 255.5 14.125C255.583 14.0417 255.688 14 255.812 14C255.938 13.9583 256.062 13.8958 256.188 13.8125C256.562 13.9792 256.938 14.1875 257.312 14.4375C257.688 14.6458 258.021 14.9167 258.312 15.25C258.646 15.5417 258.896 15.8958 259.062 16.3125C259.271 16.6875 259.354 17.1042 259.312 17.5625C259.312 17.7708 259.229 18 259.062 18.25C258.896 18.5 258.75 18.7917 258.625 19.125C258.542 19.375 258.438 19.6458 258.312 19.9375C258.188 20.2292 258.083 20.5 258 20.75C257.875 21.2083 257.896 21.6875 258.062 22.1875C258.229 22.6458 258.208 23.0208 258 23.3125C257.833 23.5208 257.604 23.6875 257.312 23.8125C257.062 23.9375 256.875 24.125 256.75 24.375C256.542 24.6667 256.396 25.0417 256.312 25.5C256.271 25.9583 256.188 26.375 256.062 26.75C255.812 27.5833 255.562 28.3958 255.312 29.1875C255.104 29.9792 254.917 30.8125 254.75 31.6875C254.625 32.3958 254.5 33.0833 254.375 33.75C254.292 34.4167 254.021 34.9167 253.562 35.25C253.438 35.9167 253.375 36.5833 253.375 37.25C253.417 37.875 253.396 38.5 253.312 39.125C253.146 40.3333 252.812 41.5 252.312 42.625C251.812 43.75 251.417 44.8542 251.125 45.9375C250.958 46.5625 250.812 47.125 250.688 47.625C250.604 48.0833 250.354 48.5 249.938 48.875C249.271 48.9583 248.625 49.0833 248 49.25C247.375 49.4167 246.771 49.5 246.188 49.5ZM259.938 44.8125C260.021 43.8542 260.333 43 260.875 42.25C261.458 41.4583 261.896 40.6458 262.188 39.8125C262.354 39.2708 262.458 38.7083 262.5 38.125C262.583 37.5 262.625 36.8958 262.625 36.3125C262.667 35.6875 262.729 35.0833 262.812 34.5C262.896 33.875 263.042 33.2708 263.25 32.6875C263.042 32.3125 262.958 31.8958 263 31.4375C263.042 30.9792 263.062 30.5 263.062 30C263.271 29.7083 263.438 29.375 263.562 29C263.688 28.625 263.979 28.375 264.438 28.25C264.854 27.3333 265.062 26.3958 265.062 25.4375C265.062 24.4375 265.167 23.4167 265.375 22.375C265.417 22.1667 265.5 21.9792 265.625 21.8125C265.75 21.6458 265.854 21.4583 265.938 21.25C266.229 20.375 266.375 19.4583 266.375 18.5C266.375 17.5 266.542 16.5625 266.875 15.6875C267.125 15.6042 267.438 15.4792 267.812 15.3125C268.188 15.1042 268.562 14.9167 268.938 14.75C269.354 14.5417 269.75 14.375 270.125 14.25C270.5 14.125 270.833 14.0833 271.125 14.125C271.333 14.2083 271.542 14.3333 271.75 14.5C271.958 14.625 272.208 14.7917 272.5 15C272.708 15.125 272.896 15.2708 273.062 15.4375C273.271 15.6042 273.479 15.75 273.688 15.875C273.854 15.9583 274.062 16.0417 274.312 16.125C274.604 16.1667 274.792 16.2292 274.875 16.3125C274.917 16.3542 275.042 16.5 275.25 16.75C275.5 17 275.729 17.2708 275.938 17.5625C276.188 17.8542 276.417 18.1458 276.625 18.4375C276.833 18.6875 276.958 18.8542 277 18.9375C277.042 19.1875 277.021 19.4792 276.938 19.8125C276.854 20.1042 276.729 20.4167 276.562 20.75C276.438 21.0417 276.292 21.3542 276.125 21.6875C276 21.9792 275.896 22.25 275.812 22.5C275.688 22.9583 275.562 23.4167 275.438 23.875C275.312 24.2917 275.146 24.7292 274.938 25.1875C274.729 25.7292 274.5 26.3542 274.25 27.0625C274 27.7708 273.833 28.5208 273.75 29.3125C273.667 29.8958 273.438 30.3333 273.062 30.625C272.729 30.9167 272.5 31.3333 272.375 31.875C272.292 32.25 272.25 32.6458 272.25 33.0625C272.25 33.4792 272.25 33.8958 272.25 34.3125C272.292 34.6875 272.292 35.0625 272.25 35.4375C272.25 35.8125 272.167 36.1667 272 36.5C271.875 36.7083 271.688 36.875 271.438 37C271.188 37.0833 270.979 37.2292 270.812 37.4375C270.562 37.8542 270.333 38.375 270.125 39C269.958 39.625 269.812 40.2917 269.688 41C269.562 41.6667 269.5 42.3542 269.5 43.0625C269.542 43.7292 269.667 44.3333 269.875 44.875C269.667 45.5417 269.292 46.125 268.75 46.625C268.25 47.125 267.646 47.5208 266.938 47.8125C266.229 48.0625 265.458 48.1875 264.625 48.1875C263.833 48.2292 263.021 48.1042 262.188 47.8125C261.854 47.3125 261.458 46.8542 261 46.4375C260.542 45.9792 260.188 45.4375 259.938 44.8125ZM312.375 15.25C312.458 15.7083 312.354 16.1042 312.062 16.4375C311.812 16.7292 311.479 16.9167 311.062 17C311.146 17.2917 311.292 17.4792 311.5 17.5625C311.708 17.6042 311.854 17.7292 311.938 17.9375C311.604 18.6042 311.042 19.1042 310.25 19.4375C309.5 19.7292 308.708 19.9792 307.875 20.1875C307.375 20.2708 306.833 20.3125 306.25 20.3125C305.708 20.3125 305.188 20.2708 304.688 20.1875C303.979 20.0625 303.312 19.8333 302.688 19.5C302.062 19.125 301.458 18.9792 300.875 19.0625C300.708 19.1042 300.521 19.2083 300.312 19.375C300.146 19.5417 299.958 19.6667 299.75 19.75C299.333 20.0417 298.812 20.2917 298.188 20.5C297.604 20.6667 297.146 20.8542 296.812 21.0625C295.854 21.6042 294.958 22.2708 294.125 23.0625C293.292 23.8542 292.417 24.5417 291.5 25.125C291.167 25.7917 290.833 26.4583 290.5 27.125C290.208 27.75 289.896 28.4792 289.562 29.3125C289.396 29.6875 289.208 30.0833 289 30.5C288.833 30.875 288.708 31.25 288.625 31.625C288.542 32 288.458 32.4583 288.375 33C288.333 33.5417 288.25 34.0417 288.125 34.5C288.042 34.8333 287.896 35.125 287.688 35.375C287.521 35.625 287.458 35.9375 287.5 36.3125C287.583 36.6458 287.75 36.9167 288 37.125C288.292 37.3333 288.479 37.5833 288.562 37.875C288.646 38.0417 288.646 38.2292 288.562 38.4375C288.521 38.6042 288.521 38.7917 288.562 39C288.729 39.7083 289.083 40.3542 289.625 40.9375C290.208 41.5208 290.688 42.0833 291.062 42.625C291.938 42.7083 292.708 42.8542 293.375 43.0625C294.083 43.2292 294.812 43.375 295.562 43.5C296.271 43.1667 296.979 42.8958 297.688 42.6875C298.438 42.4792 299.229 42.2292 300.062 41.9375C300.688 41.7292 301.292 41.4167 301.875 41C302.5 40.5417 303.146 40.2708 303.812 40.1875C303.938 40.1875 304.083 40.2292 304.25 40.3125C304.417 40.3542 304.562 40.3542 304.688 40.3125C305.021 40.2708 305.312 40.1458 305.562 39.9375C305.812 39.7292 306.062 39.5417 306.312 39.375C306.604 39.1667 306.896 39 307.188 38.875C307.521 38.75 307.896 38.7292 308.312 38.8125C308.729 39.5208 308.792 40.0833 308.5 40.5C308.25 40.9167 307.875 41.3125 307.375 41.6875C306.875 42.0208 306.375 42.3958 305.875 42.8125C305.417 43.2292 305.188 43.7708 305.188 44.4375C304.812 44.8542 304.354 45.2917 303.812 45.75C303.271 46.2083 302.646 46.5833 301.938 46.875C301.646 46.9583 301.333 47.0417 301 47.125C300.708 47.1667 300.438 47.2292 300.188 47.3125C299.312 47.6458 298.5 48 297.75 48.375C297 48.75 296.062 48.9167 294.938 48.875C294.271 48.875 293.667 48.8125 293.125 48.6875C292.667 48.6042 292.229 48.4583 291.812 48.25C291.438 48.0417 291.021 47.8958 290.562 47.8125C289.979 47.7292 289.396 47.7292 288.812 47.8125C288.229 47.8958 287.688 47.8958 287.188 47.8125C286.688 47.7292 286.167 47.5417 285.625 47.25C285.083 46.9167 284.562 46.5833 284.062 46.25C283.521 45.9583 283 45.6875 282.5 45.4375C282.042 45.1458 281.583 44.875 281.125 44.625C280.583 44.25 280.125 43.7917 279.75 43.25C279.417 42.6667 279 42.1458 278.5 41.6875C278.292 40.8542 278.208 40.0417 278.25 39.25C278.292 38.4167 278.292 37.5833 278.25 36.75C278.208 36 278.062 35.2292 277.812 34.4375C277.604 33.6458 277.542 32.9375 277.625 32.3125C277.708 32.0208 277.812 31.7083 277.938 31.375C278.062 31.0417 278.146 30.6875 278.188 30.3125C278.271 29.7292 278.354 29.2083 278.438 28.75C278.562 28.25 278.75 27.7708 279 27.3125C279.167 27.0208 279.354 26.75 279.562 26.5C279.812 26.25 280.042 26 280.25 25.75C280.5 25.5 280.708 25.2292 280.875 24.9375C281.042 24.6458 281.146 24.2708 281.188 23.8125C281.438 23.4792 281.729 23.2292 282.062 23.0625C282.438 22.8958 282.729 22.6458 282.938 22.3125C283.062 22.1042 283.125 21.8958 283.125 21.6875C283.125 21.4792 283.208 21.2708 283.375 21.0625C283.583 20.8125 283.896 20.5417 284.312 20.25C284.729 19.9583 285.083 19.7083 285.375 19.5C286.208 19.0417 287.083 18.625 288 18.25C288.917 17.8333 289.771 17.3333 290.562 16.75C291.062 16.75 291.542 16.6875 292 16.5625C292.5 16.3958 292.958 16.2292 293.375 16.0625C293.833 15.8542 294.292 15.6667 294.75 15.5C295.208 15.2917 295.688 15.1458 296.188 15.0625C296.646 15.0208 297.146 15.0208 297.688 15.0625C298.229 15.0625 298.75 15.0417 299.25 15C300 14.9583 300.75 14.9375 301.5 14.9375C302.292 14.8958 303 14.9167 303.625 15C303.917 15.0417 304.208 15.1458 304.5 15.3125C304.792 15.4375 305.104 15.5 305.438 15.5C305.729 15.5 306.021 15.4375 306.312 15.3125C306.646 15.1875 306.958 15.1042 307.25 15.0625C308.083 14.9792 308.938 14.9792 309.812 15.0625C310.688 15.1042 311.542 15.1667 312.375 15.25ZM341.75 46.4375C340.917 46.4375 340.292 46.625 339.875 47C339.5 47.3333 339.229 47.7708 339.062 48.3125C338.562 48.1875 337.979 48.1667 337.312 48.25C336.688 48.3333 336.042 48.4167 335.375 48.5C334.75 48.5833 334.125 48.625 333.5 48.625C332.917 48.6667 332.417 48.5625 332 48.3125C331.792 48.1875 331.625 48.0208 331.5 47.8125C331.375 47.5625 331.229 47.3333 331.062 47.125C330.896 46.875 330.729 46.6458 330.562 46.4375C330.354 46.2292 330.229 46.0208 330.188 45.8125C330.104 45.5625 330.167 45.2083 330.375 44.75C330.583 44.25 330.771 43.8958 330.938 43.6875C331.104 43.5625 331.292 43.4583 331.5 43.375C331.75 43.2917 331.979 43.1667 332.188 43C332.771 42.5417 333.188 41.9792 333.438 41.3125C333.729 40.6042 333.979 40.0417 334.188 39.625C334.479 39.4167 334.812 39.2083 335.188 39C335.604 38.75 335.771 38.4375 335.688 38.0625C335.312 37.8542 334.875 37.7708 334.375 37.8125C333.875 37.8125 333.375 37.7917 332.875 37.75C332.042 37.75 331.208 37.6875 330.375 37.5625C329.542 37.4375 328.792 37.3333 328.125 37.25C327.042 37.0417 326.104 36.5417 325.312 35.75C324.479 34.9583 324.125 33.9583 324.25 32.75C324.542 32.625 324.875 32.5625 325.25 32.5625C325.583 32.5625 325.958 32.5833 326.375 32.625C326.75 32.6667 327.146 32.7083 327.562 32.75C327.938 32.75 328.292 32.6875 328.625 32.5625C329 32.8125 329.354 32.9375 329.688 32.9375C329.979 32.9375 330.271 32.875 330.562 32.75C330.812 32.625 331.062 32.5 331.312 32.375C331.562 32.2083 331.792 32.1042 332 32.0625C332.208 32.0208 332.396 32.0208 332.562 32.0625C332.729 32.1042 332.917 32.125 333.125 32.125C333.458 32.125 333.792 32.0833 334.125 32C334.458 31.875 334.854 31.7708 335.312 31.6875C335.938 31.6042 336.583 31.5625 337.25 31.5625C337.917 31.5208 338.479 31.3958 338.938 31.1875C339.229 31.0625 339.562 30.8542 339.938 30.5625C340.312 30.2292 340.583 29.9375 340.75 29.6875C340.833 29.4792 340.854 29.2917 340.812 29.125C340.812 28.9167 340.854 28.7083 340.938 28.5C341.146 27.7917 341.5 27.1667 342 26.625C342.542 26.0833 342.979 25.4792 343.312 24.8125C343.438 24.4792 343.521 24.2292 343.562 24.0625C343.646 23.8958 343.708 23.75 343.75 23.625C343.792 23.5 343.833 23.3542 343.875 23.1875C343.958 23.0208 344.104 22.7708 344.312 22.4375C344.688 21.8542 345.062 21.2917 345.438 20.75C345.854 20.2083 346.333 19.6875 346.875 19.1875C346.875 18.9375 346.917 18.7292 347 18.5625C347.083 18.3542 347.167 18.1458 347.25 17.9375C348.375 17.4792 349.292 16.875 350 16.125C350.708 15.375 351.417 14.5833 352.125 13.75C352.083 13.3333 352.167 13.0417 352.375 12.875C352.583 12.6667 352.688 12.3542 352.688 11.9375C352.688 11.7292 352.604 11.5 352.438 11.25C352.312 10.9583 352.25 10.6667 352.25 10.375C352.25 10.0417 352.375 9.70833 352.625 9.375C352.917 9 353.167 8.66667 353.375 8.375C353.708 8.04167 353.958 7.70833 354.125 7.375C354.333 7.04167 354.542 6.72917 354.75 6.4375C355.083 6.0625 355.417 5.72917 355.75 5.4375C356.125 5.14583 356.479 4.79167 356.812 4.375C356.979 4.125 357.104 3.85417 357.188 3.5625C357.312 3.22917 357.5 2.97917 357.75 2.8125C358.125 2.5625 358.646 2.41667 359.312 2.375C359.979 2.33333 360.646 2.29167 361.312 2.25C362.104 2.20833 362.958 2.125 363.875 2C364.833 1.83333 365.771 1.66667 366.688 1.5C367.646 1.33333 368.562 1.1875 369.438 1.0625C370.354 0.895833 371.188 0.791667 371.938 0.75C372.688 0.666667 373.396 0.645833 374.062 0.6875C374.771 0.729167 375.333 0.666667 375.75 0.5C376.333 1 376.917 1.5 377.5 2C378.125 2.45833 378.708 2.95833 379.25 3.5C379.417 4.33333 379.562 5.10417 379.688 5.8125C379.812 6.52083 379.833 7.22917 379.75 7.9375C379.667 8.27083 379.521 8.58333 379.312 8.875C379.146 9.16667 379.083 9.5 379.125 9.875C379.125 10.5 379.312 11.125 379.688 11.75C380.062 12.3333 380.333 12.9792 380.5 13.6875C380.542 14.0208 380.479 14.3542 380.312 14.6875C380.188 14.9792 380.104 15.2917 380.062 15.625C380.021 15.9583 380.042 16.3333 380.125 16.75C380.208 17.125 380.292 17.5208 380.375 17.9375C380.375 18.4375 380.354 18.9375 380.312 19.4375C380.271 19.9375 380.292 20.4583 380.375 21C380.458 21.5417 380.562 22.1042 380.688 22.6875C380.812 23.2292 380.854 23.7917 380.812 24.375C380.729 24.9583 380.604 25.5 380.438 26C380.312 26.5 380.25 27.0208 380.25 27.5625C380.208 28.3125 380.25 29.0417 380.375 29.75C380.5 30.4167 380.458 31.1042 380.25 31.8125C380.583 32.2292 380.75 32.6458 380.75 33.0625C380.792 33.4792 380.771 33.8958 380.688 34.3125C380.604 34.7292 380.521 35.1667 380.438 35.625C380.354 36.0417 380.396 36.4792 380.562 36.9375C380.646 37.2292 380.812 37.5 381.062 37.75C381.312 37.9583 381.479 38.2292 381.562 38.5625C381.688 38.9792 381.75 39.5 381.75 40.125C381.792 40.7083 381.812 41.2708 381.812 41.8125C381.854 43.1458 381.729 44.3333 381.438 45.375C381.188 46.4167 381.042 47.5417 381 48.75C381 49.2917 380.979 49.8958 380.938 50.5625C380.938 51.2292 380.833 51.75 380.625 52.125C380.417 52.375 380.083 52.625 379.625 52.875C379.167 53.1667 378.771 53.3333 378.438 53.375C377.812 53.4167 377.083 53.25 376.25 52.875C375.458 52.5 374.854 52.1042 374.438 51.6875C374.062 51.2708 373.708 50.8125 373.375 50.3125C373.083 49.8125 372.771 49.2917 372.438 48.75C372.146 48.2083 371.833 47.7083 371.5 47.25C371.167 46.75 370.792 46.3333 370.375 46C370.167 45.875 369.938 45.75 369.688 45.625C369.438 45.5 369.25 45.3542 369.125 45.1875C368.875 44.7708 368.729 44.3125 368.688 43.8125C368.688 43.2708 368.708 42.7292 368.75 42.1875C368.833 41.6042 368.896 41.0417 368.938 40.5C369.021 39.9583 369 39.4792 368.875 39.0625C368.75 38.6458 368.583 38.3333 368.375 38.125C368.167 37.875 367.896 37.7083 367.562 37.625C367.271 37.5 366.917 37.4375 366.5 37.4375C366.125 37.3958 365.667 37.3542 365.125 37.3125C363.167 37.1875 361.146 37.0625 359.062 36.9375C356.979 36.8125 354.854 36.7708 352.688 36.8125C352.229 36.8125 351.896 36.8333 351.688 36.875C351.479 36.9167 351.292 36.9583 351.125 37C350.958 37 350.792 37.0208 350.625 37.0625C350.458 37.1042 350.188 37.125 349.812 37.125C348.979 37.1667 348.229 37.2292 347.562 37.3125C346.896 37.3542 346.312 37.5625 345.812 37.9375C345.521 38.1458 345.208 38.5625 344.875 39.1875C344.542 39.8125 344.292 40.2917 344.125 40.625C343.917 41.125 343.729 41.6458 343.562 42.1875C343.438 42.7292 343.292 43.2708 343.125 43.8125C343 44.3125 342.833 44.7917 342.625 45.25C342.417 45.7083 342.125 46.1042 341.75 46.4375ZM357.625 29.9375C359.042 29.8958 360.396 29.875 361.688 29.875C363.021 29.8333 364.271 29.7708 365.438 29.6875C365.604 29.6042 365.75 29.5417 365.875 29.5C366.042 29.4583 366.292 29.4792 366.625 29.5625C366.625 29.3542 366.729 29.25 366.938 29.25C367.146 29.2083 367.312 29.1458 367.438 29.0625C367.604 28.7708 367.688 28.5417 367.688 28.375C367.688 28.1667 367.646 28 367.562 27.875C367.521 27.7083 367.438 27.5417 367.312 27.375C367.229 27.1667 367.188 26.8958 367.188 26.5625C367.188 26.2292 367.229 25.8958 367.312 25.5625C367.438 25.1875 367.521 24.8125 367.562 24.4375C367.604 24.1458 367.562 23.8333 367.438 23.5C367.354 23.1667 367.333 22.8333 367.375 22.5C367.417 22.2083 367.542 21.9583 367.75 21.75C367.958 21.5 368.062 21.2292 368.062 20.9375C368.062 20.7708 368.021 20.5833 367.938 20.375C367.896 20.1667 367.854 19.9583 367.812 19.75C367.771 19.4583 367.75 19.1667 367.75 18.875C367.792 18.5833 367.771 18.3333 367.688 18.125C367.604 17.7917 367.396 17.4792 367.062 17.1875C366.729 16.8958 366.521 16.5833 366.438 16.25C366.312 15.8333 366.292 15.375 366.375 14.875C366.5 14.3333 366.562 13.8125 366.562 13.3125C366.521 12.6042 366.458 11.9583 366.375 11.375C366.292 10.7917 366.083 10.2083 365.75 9.625C365.292 9.375 364.938 9.29167 364.688 9.375C364.479 9.41667 364.292 9.5625 364.125 9.8125C364 10.0208 363.875 10.2708 363.75 10.5625C363.667 10.8542 363.5 11.1042 363.25 11.3125C362.125 12.3125 361.25 13.3333 360.625 14.375C360 15.375 359.229 16.4792 358.312 17.6875C357.938 18.1458 357.542 18.6042 357.125 19.0625C356.75 19.5208 356.396 20.0208 356.062 20.5625C355.771 21.1042 355.542 21.6667 355.375 22.25C355.208 22.8333 355.167 23.4792 355.25 24.1875C355.042 24.5208 354.854 24.7708 354.688 24.9375C354.562 25.0625 354.417 25.1875 354.25 25.3125C354.083 25.4375 353.896 25.5833 353.688 25.75C353.521 25.9167 353.312 26.1458 353.062 26.4375C352.604 27.0208 352.104 27.625 351.562 28.25C351.021 28.8333 350.667 29.4792 350.5 30.1875C351.25 30.3958 351.896 30.5 352.438 30.5C352.979 30.5 353.5 30.4792 354 30.4375C354.542 30.3542 355.083 30.2708 355.625 30.1875C356.208 30.0625 356.875 29.9792 357.625 29.9375ZM387.75 44.25C388.042 43.5833 388.292 42.9583 388.5 42.375C388.708 41.75 388.979 41.0625 389.312 40.3125C389.479 39.8958 389.604 39.4583 389.688 39C389.771 38.5417 389.917 38.0833 390.125 37.625C390.333 37.25 390.583 36.875 390.875 36.5C391.208 36.125 391.458 35.7083 391.625 35.25C391.875 34.5417 391.896 33.75 391.688 32.875C391.479 31.9583 391.5 31.0417 391.75 30.125C391.958 29.25 392.188 28.3958 392.438 27.5625C392.729 26.6875 392.917 25.9167 393 25.25C393.083 24.7917 393.125 24.3333 393.125 23.875C393.125 23.375 393.167 22.875 393.25 22.375C393.333 21.8333 393.5 21.3125 393.75 20.8125C394 20.2708 394.146 19.7708 394.188 19.3125C394.271 18.3542 394.042 17.5 393.5 16.75C393 15.9583 392.479 15.2917 391.938 14.75C391.979 14.5 392.104 14.3125 392.312 14.1875C392.562 14.0208 392.75 13.9583 392.875 14C393.375 14.0833 393.938 14.25 394.562 14.5C395.188 14.75 395.792 14.9167 396.375 15C396.875 15.0833 397.417 15.0833 398 15C398.625 14.9167 399.271 14.9167 399.938 15C400.646 15.0833 401.5 15.1667 402.5 15.25C403.5 15.3333 404.479 15.375 405.438 15.375C406.521 15.4167 407.562 15.3958 408.562 15.3125C409.562 15.2292 410.542 15.25 411.5 15.375C412.208 15.4583 412.854 15.6458 413.438 15.9375C414.021 16.2292 414.667 16.3333 415.375 16.25C415.958 16.9167 416.625 17.4375 417.375 17.8125C418.167 18.1458 418.875 18.5833 419.5 19.125C420.375 19.8333 421.125 20.6875 421.75 21.6875C422.375 22.6458 423.125 23.4792 424 24.1875C424 24.5208 424.083 24.8333 424.25 25.125C424.417 25.4167 424.521 25.75 424.562 26.125C424.562 26.3333 424.521 26.5833 424.438 26.875C424.354 27.125 424.312 27.375 424.312 27.625C424.354 28 424.479 28.3125 424.688 28.5625C424.896 28.7708 424.979 29.1042 424.938 29.5625C424.896 31.0208 424.521 32.4583 423.812 33.875C423.104 35.2917 422.396 36.5417 421.688 37.625C421.229 37.6667 420.896 37.8542 420.688 38.1875C420.521 38.5208 420.292 38.8958 420 39.3125C419.583 39.8958 419.083 40.3958 418.5 40.8125C417.958 41.1875 417.458 41.6667 417 42.25C416.083 42.5833 415.229 43.0208 414.438 43.5625C413.688 44.1042 412.833 44.6042 411.875 45.0625C411.542 45.2292 411.188 45.3958 410.812 45.5625C410.479 45.6875 410.146 45.8333 409.812 46C409.396 46.125 409 46.2708 408.625 46.4375C408.25 46.6042 407.896 46.7292 407.562 46.8125C407.312 46.8958 407.042 46.9167 406.75 46.875C406.5 46.8333 406.25 46.8542 406 46.9375C405.458 47.0625 404.938 47.2917 404.438 47.625C403.938 47.9167 403.438 48.1042 402.938 48.1875C402.354 48.2708 401.771 48.2292 401.188 48.0625C400.604 47.8958 400.042 47.75 399.5 47.625C398.792 47.7083 398.083 47.75 397.375 47.75C396.667 47.7083 395.938 47.6667 395.188 47.625C394.438 47.5833 393.646 47.5833 392.812 47.625C391.979 47.6667 391.083 47.7708 390.125 47.9375C389.875 47.9792 389.604 48.0625 389.312 48.1875C389.062 48.3125 388.812 48.3958 388.562 48.4375C388.104 48.5208 387.583 48.5625 387 48.5625C386.458 48.5625 385.938 48.5625 385.438 48.5625C385.229 48.5625 384.979 48.5417 384.688 48.5C384.396 48.5 384.125 48.4792 383.875 48.4375C383.583 48.3958 383.333 48.3125 383.125 48.1875C382.917 48.1042 382.792 47.9792 382.75 47.8125C382.708 47.5625 382.792 47.3542 383 47.1875C383.167 46.9792 383.396 46.8125 383.688 46.6875C383.938 46.5208 384.208 46.3958 384.5 46.3125C384.792 46.1875 385.021 46.0833 385.188 46C385.688 45.7083 386.125 45.3958 386.5 45.0625C386.833 44.6875 387.25 44.4167 387.75 44.25ZM404.375 20.0625C404.042 20.3958 403.792 20.7917 403.625 21.25C403.5 21.7083 403.375 22.2083 403.25 22.75C403.167 23.25 403.083 23.7708 403 24.3125C402.917 24.8542 402.792 25.375 402.625 25.875C402.458 26.2083 402.292 26.5417 402.125 26.875C401.958 27.1667 401.833 27.4792 401.75 27.8125C401.542 28.6042 401.417 29.375 401.375 30.125C401.333 30.875 401.208 31.6667 401 32.5C400.917 32.9583 400.75 33.4167 400.5 33.875C400.292 34.2917 400.146 34.7292 400.062 35.1875C399.979 35.6458 399.979 36.0833 400.062 36.5C400.146 36.9167 400.146 37.3542 400.062 37.8125C399.979 38.1458 399.854 38.4583 399.688 38.75C399.562 39.0417 399.458 39.3542 399.375 39.6875C399.167 40.8125 399.375 41.6458 400 42.1875C400.625 42.6875 401.375 43.0417 402.25 43.25C403.75 43.5833 405.125 43.5 406.375 43C407.667 42.4583 408.688 41.8542 409.438 41.1875C409.979 40.5625 410.542 39.8958 411.125 39.1875C411.708 38.4375 412.167 37.625 412.5 36.75C412.625 36.4167 412.75 35.9792 412.875 35.4375C413 34.8542 413.146 34.2917 413.312 33.75C413.438 33.2917 413.583 32.875 413.75 32.5C413.958 32.0833 414.125 31.6667 414.25 31.25C414.708 30.1667 414.875 29.0208 414.75 27.8125C414.667 26.5625 414.458 25.5833 414.125 24.875C414 24.625 413.792 24.3542 413.5 24.0625C413.25 23.7708 413 23.4792 412.75 23.1875C412.458 22.8542 412.188 22.5208 411.938 22.1875C411.729 21.8542 411.542 21.6042 411.375 21.4375C410.792 20.8958 410.083 20.5208 409.25 20.3125C408.458 20.0625 407.729 19.6667 407.062 19.125C406.354 19.1667 405.833 19.2917 405.5 19.5C405.167 19.7083 404.792 19.8958 404.375 20.0625ZM441.562 39.1875C442.188 38.8125 442.667 38.3125 443 37.6875C443.375 37.0208 443.771 36.3958 444.188 35.8125C444.646 35.2708 445.104 34.75 445.562 34.25C446.021 33.75 446.458 33.2083 446.875 32.625C446.917 32.375 446.938 32.2292 446.938 32.1875C446.979 32.1458 447 32.125 447 32.125C447.042 32.0833 447.062 32.0417 447.062 32C447.104 31.9583 447.167 31.8333 447.25 31.625C447.792 31.2917 448.312 30.9167 448.812 30.5C449.354 30.0417 449.5 29.3125 449.25 28.3125C449.542 27.7292 449.812 27.25 450.062 26.875C450.312 26.4583 450.562 26.0833 450.812 25.75C451.104 25.375 451.375 25 451.625 24.625C451.917 24.2083 452.229 23.7292 452.562 23.1875C453.146 23.1042 453.5 22.8125 453.625 22.3125C453.75 21.7708 453.917 21.2292 454.125 20.6875C454.333 20.2292 454.562 19.7917 454.812 19.375C455.062 18.9583 455.292 18.5625 455.5 18.1875C455.792 17.7708 456.062 17.375 456.312 17C456.562 16.625 456.833 16.2917 457.125 16C457.25 15.5417 457.479 15.0417 457.812 14.5C458.146 13.9583 458.542 13.4792 459 13.0625C459.5 12.6458 460.042 12.375 460.625 12.25C461.25 12.0833 461.896 12.1458 462.562 12.4375C462.938 12.6042 463.271 12.9375 463.562 13.4375C463.896 13.9375 464.083 14.4167 464.125 14.875C464.125 15.625 463.875 16.3542 463.375 17.0625C462.875 17.7708 462.521 18.375 462.312 18.875C462.354 19.25 462.292 19.5833 462.125 19.875C461.958 20.1667 461.75 20.4375 461.5 20.6875C461.25 20.9375 461 21.1667 460.75 21.375C460.5 21.5833 460.312 21.8125 460.188 22.0625C459.688 22.4792 459.292 22.8333 459 23.125C458.75 23.375 458.333 23.7083 457.75 24.125C457.375 24.4583 457.083 24.8125 456.875 25.1875C456.667 25.5625 456.5 25.9792 456.375 26.4375C456.25 26.8542 456.125 27.3125 456 27.8125C455.875 28.3125 455.688 28.8333 455.438 29.375C455.062 30.2083 454.562 30.9583 453.938 31.625C453.312 32.25 452.771 32.9583 452.312 33.75C451.771 34.5833 451.417 35.3958 451.25 36.1875C451.125 36.9375 450.792 37.7292 450.25 38.5625C450.083 38.8542 449.875 39.1458 449.625 39.4375C449.375 39.6875 449.146 39.9583 448.938 40.25C448.146 41.2917 447.333 42.3333 446.5 43.375C445.708 44.4167 445.021 45.5625 444.438 46.8125C444.188 46.8542 443.958 47 443.75 47.25C443.583 47.5 443.396 47.7292 443.188 47.9375C443.062 48.0208 442.896 48.0833 442.688 48.125C442.479 48.2083 442.292 48.2917 442.125 48.375C441.875 48.5833 441.646 48.7917 441.438 49C441.229 49.2083 440.896 49.3958 440.438 49.5625C440.104 49.6458 439.708 49.7083 439.25 49.75C438.833 49.8333 438.5 49.8542 438.25 49.8125C437.583 49.6875 436.979 49.25 436.438 48.5C435.896 47.7917 435.521 47.0833 435.312 46.375C434.646 45.7917 434.167 45.125 433.875 44.375C433.583 43.5833 433.354 42.6667 433.188 41.625C433.146 41.4167 433.125 41.2292 433.125 41.0625C433.167 40.8958 433.188 40.7083 433.188 40.5C433.146 40.0833 433.021 39.6667 432.812 39.25C432.604 38.7917 432.375 38.3333 432.125 37.875C431.875 37.4167 431.646 36.9583 431.438 36.5C431.229 36 431.125 35.5208 431.125 35.0625C431.125 34.6458 431.146 34.2292 431.188 33.8125C431.229 33.3958 431.208 32.9583 431.125 32.5C431.042 32.0833 430.875 31.7292 430.625 31.4375C430.417 31.1042 430.292 30.6458 430.25 30.0625C430.208 29.7292 430.146 29.2917 430.062 28.75C430.021 28.1667 429.958 27.5833 429.875 27C429.833 26.375 429.792 25.7917 429.75 25.25C429.708 24.6667 429.667 24.2292 429.625 23.9375C429.542 23.1042 429.333 22.1875 429 21.1875C428.667 20.1458 428.417 19.2708 428.25 18.5625C428.167 18.1458 428.125 17.6042 428.125 16.9375C428.125 16.2708 428.146 15.875 428.188 15.75C428.271 15.4167 428.521 15.1042 428.938 14.8125C429.396 14.4792 429.812 14.3125 430.188 14.3125C430.562 14.3125 430.875 14.4375 431.125 14.6875C431.375 14.9375 431.708 15.125 432.125 15.25C432.458 15.3333 432.729 15.3958 432.938 15.4375C433.146 15.4792 433.479 15.5 433.938 15.5C434.354 15.4583 434.771 15.5 435.188 15.625C435.646 15.75 436.042 15.8542 436.375 15.9375C437.083 16.1458 437.604 16.6458 437.938 17.4375C438.271 18.2292 438.375 19.1042 438.25 20.0625C438.167 20.4375 438.125 20.8542 438.125 21.3125C438.125 21.7708 438.062 22.1875 437.938 22.5625C437.854 22.8542 437.875 23.125 438 23.375C438.167 23.5833 438.229 23.8125 438.188 24.0625C438.188 24.3125 438.229 24.7083 438.312 25.25C438.396 25.75 438.5 26.3125 438.625 26.9375C438.75 27.5208 438.875 28.0833 439 28.625C439.125 29.1667 439.229 29.5625 439.312 29.8125C439.479 30.3542 439.708 30.875 440 31.375C440.292 31.8333 440.438 32.2917 440.438 32.75C440.438 33 440.396 33.25 440.312 33.5C440.229 33.7083 440.188 33.9167 440.188 34.125C440.104 35.1667 440.188 36.1042 440.438 36.9375C440.729 37.7292 441.104 38.4792 441.562 39.1875ZM459.938 44.8125C460.021 43.8542 460.333 43 460.875 42.25C461.458 41.4583 461.896 40.6458 462.188 39.8125C462.354 39.2708 462.458 38.7083 462.5 38.125C462.583 37.5 462.625 36.8958 462.625 36.3125C462.667 35.6875 462.729 35.0833 462.812 34.5C462.896 33.875 463.042 33.2708 463.25 32.6875C463.042 32.3125 462.958 31.8958 463 31.4375C463.042 30.9792 463.062 30.5 463.062 30C463.271 29.7083 463.438 29.375 463.562 29C463.688 28.625 463.979 28.375 464.438 28.25C464.854 27.3333 465.062 26.3958 465.062 25.4375C465.062 24.4375 465.167 23.4167 465.375 22.375C465.417 22.1667 465.5 21.9792 465.625 21.8125C465.75 21.6458 465.854 21.4583 465.938 21.25C466.229 20.375 466.375 19.4583 466.375 18.5C466.375 17.5 466.542 16.5625 466.875 15.6875C467.125 15.6042 467.438 15.4792 467.812 15.3125C468.188 15.1042 468.562 14.9167 468.938 14.75C469.354 14.5417 469.75 14.375 470.125 14.25C470.5 14.125 470.833 14.0833 471.125 14.125C471.333 14.2083 471.542 14.3333 471.75 14.5C471.958 14.625 472.208 14.7917 472.5 15C472.708 15.125 472.896 15.2708 473.062 15.4375C473.271 15.6042 473.479 15.75 473.688 15.875C473.854 15.9583 474.062 16.0417 474.312 16.125C474.604 16.1667 474.792 16.2292 474.875 16.3125C474.917 16.3542 475.042 16.5 475.25 16.75C475.5 17 475.729 17.2708 475.938 17.5625C476.188 17.8542 476.417 18.1458 476.625 18.4375C476.833 18.6875 476.958 18.8542 477 18.9375C477.042 19.1875 477.021 19.4792 476.938 19.8125C476.854 20.1042 476.729 20.4167 476.562 20.75C476.438 21.0417 476.292 21.3542 476.125 21.6875C476 21.9792 475.896 22.25 475.812 22.5C475.688 22.9583 475.562 23.4167 475.438 23.875C475.312 24.2917 475.146 24.7292 474.938 25.1875C474.729 25.7292 474.5 26.3542 474.25 27.0625C474 27.7708 473.833 28.5208 473.75 29.3125C473.667 29.8958 473.438 30.3333 473.062 30.625C472.729 30.9167 472.5 31.3333 472.375 31.875C472.292 32.25 472.25 32.6458 472.25 33.0625C472.25 33.4792 472.25 33.8958 472.25 34.3125C472.292 34.6875 472.292 35.0625 472.25 35.4375C472.25 35.8125 472.167 36.1667 472 36.5C471.875 36.7083 471.688 36.875 471.438 37C471.188 37.0833 470.979 37.2292 470.812 37.4375C470.562 37.8542 470.333 38.375 470.125 39C469.958 39.625 469.812 40.2917 469.688 41C469.562 41.6667 469.5 42.3542 469.5 43.0625C469.542 43.7292 469.667 44.3333 469.875 44.875C469.667 45.5417 469.292 46.125 468.75 46.625C468.25 47.125 467.646 47.5208 466.938 47.8125C466.229 48.0625 465.458 48.1875 464.625 48.1875C463.833 48.2292 463.021 48.1042 462.188 47.8125C461.854 47.3125 461.458 46.8542 461 46.4375C460.542 45.9792 460.188 45.4375 459.938 44.8125ZM499.688 21.875C500.062 22.0417 500.312 22.2708 500.438 22.5625C500.562 22.8125 500.646 23.0833 500.688 23.375C500.771 23.6667 500.854 23.9583 500.938 24.25C501.021 24.5417 501.229 24.7708 501.562 24.9375C501.646 25.0208 501.792 25.125 502 25.25C502.208 25.375 502.438 25.5208 502.688 25.6875C502.938 25.8125 503.167 25.9375 503.375 26.0625C503.625 26.1458 503.812 26.1667 503.938 26.125C504.188 26.0833 504.417 25.8958 504.625 25.5625C504.833 25.2292 505 24.8542 505.125 24.4375C505.292 23.9792 505.396 23.5208 505.438 23.0625C505.479 22.6042 505.458 22.2292 505.375 21.9375C505.292 21.8125 505.062 21.6458 504.688 21.4375C504.312 21.1875 504.021 21.0208 503.812 20.9375C503.229 20.7292 502.688 20.4792 502.188 20.1875C501.688 19.8958 501.146 19.6458 500.562 19.4375C500.312 19.3542 500.042 19.2292 499.75 19.0625C499.5 18.8542 499.25 18.75 499 18.75C498.833 18.7083 498.646 18.75 498.438 18.875C498.229 18.9583 498.021 19 497.812 19C497.562 19.0417 497.25 19.0625 496.875 19.0625C496.542 19.0208 496.188 19.0208 495.812 19.0625C495.438 19.1042 495.042 19.1667 494.625 19.25C494.25 19.3333 493.917 19.4792 493.625 19.6875C493.083 20.1458 492.688 20.6667 492.438 21.25C492.229 21.7917 491.938 22.4167 491.562 23.125C491.479 23.2917 491.333 23.4792 491.125 23.6875C490.917 23.8958 490.812 24.1458 490.812 24.4375C490.812 24.6042 490.875 24.75 491 24.875C491.167 25 491.292 25.1875 491.375 25.4375C491.5 25.6875 491.583 25.9583 491.625 26.25C491.667 26.5 491.729 26.7292 491.812 26.9375C491.938 27.0625 492.062 27.1875 492.188 27.3125C492.312 27.3958 492.417 27.4792 492.5 27.5625C492.625 27.6875 492.708 27.8333 492.75 28C492.833 28.1667 492.938 28.2917 493.062 28.375C493.271 28.5 493.625 28.7292 494.125 29.0625C494.667 29.3542 495.167 29.5417 495.625 29.625C496.417 29.7917 497.125 30.0625 497.75 30.4375C498.417 30.7708 499.062 31.0625 499.688 31.3125C500.146 31.5208 500.5 31.7708 500.75 32.0625C501.042 32.3125 501.292 32.5833 501.5 32.875C501.708 33.125 501.917 33.375 502.125 33.625C502.375 33.875 502.708 34.0625 503.125 34.1875C503.333 34.2708 503.521 34.3125 503.688 34.3125C503.854 34.3125 504.042 34.3542 504.25 34.4375C504.458 34.5208 504.667 34.6667 504.875 34.875C505.083 35.0417 505.312 35.2292 505.562 35.4375C505.729 35.6042 505.875 35.7917 506 36C506.167 36.1667 506.292 36.3333 506.375 36.5C506.5 36.75 506.583 37.0833 506.625 37.5C506.667 37.875 506.688 38.1875 506.688 38.4375C506.729 39.4375 506.708 40.2292 506.625 40.8125C506.542 41.3958 506.396 41.9375 506.188 42.4375C505.979 42.9375 505.708 43.4375 505.375 43.9375C505.083 44.4375 504.75 45.0833 504.375 45.875C503.833 46.125 503.271 46.4167 502.688 46.75C502.104 47.0417 501.604 47.3542 501.188 47.6875C500.979 47.8542 500.688 48.0625 500.312 48.3125C499.938 48.5625 499.604 48.7292 499.312 48.8125C498.729 49.0208 498.021 49.1458 497.188 49.1875C496.354 49.2292 495.583 49.375 494.875 49.625C494.458 49.75 493.958 49.7708 493.375 49.6875C492.833 49.6042 492.333 49.5833 491.875 49.625C491.333 49.7083 490.875 49.7917 490.5 49.875C490.125 50 489.688 50.0208 489.188 49.9375C488.604 49.8542 487.958 49.625 487.25 49.25C486.542 48.9167 485.917 48.5833 485.375 48.25C485.167 48.1667 485 48.0625 484.875 47.9375C484.75 47.7708 484.583 47.625 484.375 47.5C484.083 47.3333 483.792 47.2292 483.5 47.1875C483.208 47.1042 482.938 46.9583 482.688 46.75C482.438 46.5417 482.208 46.3542 482 46.1875C481.792 45.9792 481.583 45.7708 481.375 45.5625C480.875 45.2292 480.312 44.8958 479.688 44.5625C479.104 44.1875 478.688 43.8125 478.438 43.4375C478.271 43.2292 478.167 42.9583 478.125 42.625C478.125 42.25 478.042 41.8958 477.875 41.5625C477.792 41.2708 477.646 41.0208 477.438 40.8125C477.229 40.6042 477.104 40.3958 477.062 40.1875C476.938 39.6042 477 38.9583 477.25 38.25C477.5 37.5417 477.729 36.9375 477.938 36.4375C478.729 36.3125 479.375 36.3958 479.875 36.6875C480.417 36.9375 480.875 37.2917 481.25 37.75C481.625 38.2083 481.958 38.7292 482.25 39.3125C482.542 39.8542 482.833 40.3333 483.125 40.75C483.458 41.2917 483.979 41.7083 484.688 42C485.396 42.2917 486.083 42.5833 486.75 42.875C487 43 487.229 43.125 487.438 43.25C487.688 43.3333 487.917 43.4167 488.125 43.5C488.667 43.7083 489.125 43.9375 489.5 44.1875C489.917 44.3958 490.354 44.5208 490.812 44.5625C491.229 44.5625 491.625 44.5417 492 44.5C492.417 44.4167 492.875 44.3333 493.375 44.25C493.875 44.0833 494.375 44.0208 494.875 44.0625C495.375 44.0625 495.854 43.9583 496.312 43.75C496.854 43.5417 497.167 43.2917 497.25 43C497.333 42.7083 497.521 42.3125 497.812 41.8125C497.646 41.0208 497.458 40.4583 497.25 40.125C497.042 39.7917 496.667 39.3958 496.125 38.9375C495.917 38.7708 495.667 38.6458 495.375 38.5625C495.125 38.4375 494.896 38.3125 494.688 38.1875C493.812 37.6458 492.854 37.1042 491.812 36.5625C490.771 36.0208 489.625 35.6458 488.375 35.4375C487.583 35.1875 486.75 34.8542 485.875 34.4375C485.042 33.9792 484.438 33.375 484.062 32.625C483.938 32.4583 483.854 32.2917 483.812 32.125C483.812 31.9583 483.771 31.7708 483.688 31.5625C483.354 30.7292 482.875 29.9375 482.25 29.1875C481.667 28.4375 481.271 27.5833 481.062 26.625C480.979 26.3333 480.958 26.0417 481 25.75C481.042 25.4167 481.083 25.1042 481.125 24.8125C481.208 24.5208 481.271 24.2083 481.312 23.875C481.354 23.5417 481.333 23.1875 481.25 22.8125C481.417 22.6458 481.521 22.4792 481.562 22.3125C481.604 22.1458 481.667 21.9792 481.75 21.8125C481.917 21.5625 482.021 21.3125 482.062 21.0625C482.146 20.7708 482.333 20.5 482.625 20.25C482.917 20 483.146 19.75 483.312 19.5C483.521 19.2083 483.729 18.9792 483.938 18.8125C484.062 18.7292 484.208 18.6875 484.375 18.6875C484.542 18.6458 484.688 18.5833 484.812 18.5C485.021 18.375 485.208 18.2292 485.375 18.0625C485.542 17.8542 485.729 17.6667 485.938 17.5C486.771 16.875 487.708 16.3542 488.75 15.9375C489.792 15.4792 490.854 15.125 491.938 14.875C492.104 14.6667 492.375 14.5 492.75 14.375C493.125 14.2083 493.521 14.1042 493.938 14.0625C494.396 13.9792 494.833 13.9167 495.25 13.875C495.667 13.8333 496.021 13.7917 496.312 13.75C497.604 13.9167 498.625 14.125 499.375 14.375C500.167 14.625 500.896 14.8958 501.562 15.1875C502.271 15.4375 503.021 15.6875 503.812 15.9375C504.604 16.1875 505.625 16.3958 506.875 16.5625C507.375 16.9375 507.896 17.3958 508.438 17.9375C509.021 18.4375 509.521 19 509.938 19.625C510.354 20.25 510.646 20.9167 510.812 21.625C511.021 22.2917 510.979 22.9792 510.688 23.6875C510.479 24.1042 510.312 24.5833 510.188 25.125C510.062 25.625 509.875 26.0833 509.625 26.5C509.417 26.8333 509.188 27.2292 508.938 27.6875C508.729 28.1458 508.479 28.5208 508.188 28.8125C507.604 29.3958 506.854 29.8125 505.938 30.0625C505.021 30.3125 504.125 30.3958 503.25 30.3125C503 29.8958 502.604 29.5417 502.062 29.25C501.562 28.9583 501.042 28.6667 500.5 28.375C500 28.0417 499.521 27.6875 499.062 27.3125C498.646 26.8958 498.375 26.3958 498.25 25.8125C498.125 25.1042 498.146 24.3542 498.312 23.5625C498.521 22.7708 498.979 22.2083 499.688 21.875ZM511.562 44.8125C511.646 43.8542 511.958 43 512.5 42.25C513.083 41.4583 513.521 40.6458 513.812 39.8125C513.979 39.2708 514.083 38.7083 514.125 38.125C514.208 37.5 514.25 36.8958 514.25 36.3125C514.292 35.6875 514.354 35.0833 514.438 34.5C514.521 33.875 514.667 33.2708 514.875 32.6875C514.667 32.3125 514.583 31.8958 514.625 31.4375C514.667 30.9792 514.688 30.5 514.688 30C514.896 29.7083 515.062 29.375 515.188 29C515.312 28.625 515.604 28.375 516.062 28.25C516.479 27.3333 516.688 26.3958 516.688 25.4375C516.688 24.4375 516.792 23.4167 517 22.375C517.042 22.1667 517.125 21.9792 517.25 21.8125C517.375 21.6458 517.479 21.4583 517.562 21.25C517.854 20.375 518 19.4583 518 18.5C518 17.5 518.167 16.5625 518.5 15.6875C518.75 15.6042 519.062 15.4792 519.438 15.3125C519.812 15.1042 520.188 14.9167 520.562 14.75C520.979 14.5417 521.375 14.375 521.75 14.25C522.125 14.125 522.458 14.0833 522.75 14.125C522.958 14.2083 523.167 14.3333 523.375 14.5C523.583 14.625 523.833 14.7917 524.125 15C524.333 15.125 524.521 15.2708 524.688 15.4375C524.896 15.6042 525.104 15.75 525.312 15.875C525.479 15.9583 525.688 16.0417 525.938 16.125C526.229 16.1667 526.417 16.2292 526.5 16.3125C526.542 16.3542 526.667 16.5 526.875 16.75C527.125 17 527.354 17.2708 527.562 17.5625C527.812 17.8542 528.042 18.1458 528.25 18.4375C528.458 18.6875 528.583 18.8542 528.625 18.9375C528.667 19.1875 528.646 19.4792 528.562 19.8125C528.479 20.1042 528.354 20.4167 528.188 20.75C528.062 21.0417 527.917 21.3542 527.75 21.6875C527.625 21.9792 527.521 22.25 527.438 22.5C527.312 22.9583 527.188 23.4167 527.062 23.875C526.938 24.2917 526.771 24.7292 526.562 25.1875C526.354 25.7292 526.125 26.3542 525.875 27.0625C525.625 27.7708 525.458 28.5208 525.375 29.3125C525.292 29.8958 525.062 30.3333 524.688 30.625C524.354 30.9167 524.125 31.3333 524 31.875C523.917 32.25 523.875 32.6458 523.875 33.0625C523.875 33.4792 523.875 33.8958 523.875 34.3125C523.917 34.6875 523.917 35.0625 523.875 35.4375C523.875 35.8125 523.792 36.1667 523.625 36.5C523.5 36.7083 523.312 36.875 523.062 37C522.812 37.0833 522.604 37.2292 522.438 37.4375C522.188 37.8542 521.958 38.375 521.75 39C521.583 39.625 521.438 40.2917 521.312 41C521.188 41.6667 521.125 42.3542 521.125 43.0625C521.167 43.7292 521.292 44.3333 521.5 44.875C521.292 45.5417 520.917 46.125 520.375 46.625C519.875 47.125 519.271 47.5208 518.562 47.8125C517.854 48.0625 517.083 48.1875 516.25 48.1875C515.458 48.2292 514.646 48.1042 513.812 47.8125C513.479 47.3125 513.083 46.8542 512.625 46.4375C512.167 45.9792 511.812 45.4375 511.562 44.8125ZM531.938 46.875C531.062 47.1667 530.292 47.0625 529.625 46.5625C528.958 46.0208 528.542 45.3958 528.375 44.6875C528.292 44.3542 528.292 43.8542 528.375 43.1875C528.458 42.4792 528.583 41.9167 528.75 41.5C528.917 41.0417 529.271 40.5 529.812 39.875C530.354 39.25 530.771 38.5417 531.062 37.75C531.354 37 531.583 36.2917 531.75 35.625C531.958 34.9167 532.25 34.3542 532.625 33.9375C532.917 33.6458 533.229 33.3958 533.562 33.1875C533.896 32.9375 534.083 32.625 534.125 32.25C534.125 31.9167 534.021 31.625 533.812 31.375C533.646 31.125 533.583 30.7917 533.625 30.375C533.625 30 533.729 29.5208 533.938 28.9375C534.188 28.3542 534.417 27.8333 534.625 27.375C535.083 26.375 535.438 25.3542 535.688 24.3125C535.771 24.0208 535.833 23.6875 535.875 23.3125C535.958 22.8958 536.042 22.5833 536.125 22.375C536.25 22.2083 536.375 21.9375 536.5 21.5625C536.667 21.1875 536.854 20.8125 537.062 20.4375C537.271 20.0625 537.5 19.7292 537.75 19.4375C538 19.1042 538.271 18.875 538.562 18.75C538.896 18.625 539.25 18.5417 539.625 18.5C540.042 18.4167 540.417 18.2917 540.75 18.125C541.125 18 541.354 17.8542 541.438 17.6875C541.521 17.5208 541.729 17.3542 542.062 17.1875C542.312 17.1042 542.562 17.0625 542.812 17.0625C543.104 17.0625 543.396 17.0208 543.688 16.9375C544.021 16.8125 544.375 16.625 544.75 16.375C545.125 16.125 545.562 16.1458 546.062 16.4375C546.271 16.5625 546.479 16.9375 546.688 17.5625C546.896 18.1875 547.104 18.7708 547.312 19.3125C547.396 19.6042 547.5 19.9583 547.625 20.375C547.792 20.7917 547.938 21.2292 548.062 21.6875C548.188 22.1042 548.312 22.5 548.438 22.875C548.562 23.2083 548.667 23.4583 548.75 23.625C548.958 24.0417 549.104 24.4792 549.188 24.9375C549.271 25.3958 549.396 25.8125 549.562 26.1875C549.771 26.6042 549.979 27 550.188 27.375C550.396 27.75 550.604 28.1667 550.812 28.625C551.021 29.0833 551.208 29.5208 551.375 29.9375C551.542 30.3542 551.75 30.7917 552 31.25C552.167 31.5833 552.417 31.8958 552.75 32.1875C553.083 32.4375 553.292 32.7292 553.375 33.0625C553.5 33.3958 553.5 33.7708 553.375 34.1875C553.25 34.5625 553.229 34.9167 553.312 35.25C553.438 35.7083 553.708 36.0833 554.125 36.375C554.542 36.6667 554.917 36.9792 555.25 37.3125C555.458 37.5625 555.583 37.8125 555.625 38.0625C555.667 38.3125 555.854 38.4792 556.188 38.5625C556.271 37.7708 556.354 37.0833 556.438 36.5C556.562 35.9167 556.688 35.3542 556.812 34.8125C556.938 34.2292 557.062 33.6458 557.188 33.0625C557.312 32.4375 557.417 31.75 557.5 31C557.917 30.4583 558.292 29.9583 558.625 29.5C558.958 29 559.104 28.3542 559.062 27.5625C559.021 27.3125 558.938 27.0625 558.812 26.8125C558.729 26.5625 558.708 26.2917 558.75 26C558.792 25.5833 558.875 25.2083 559 24.875C559.125 24.5417 559.292 24.125 559.5 23.625C559.625 23.2917 559.729 22.9583 559.812 22.625C559.896 22.25 560 21.8542 560.125 21.4375C560.25 21.1042 560.354 20.8333 560.438 20.625C560.562 20.4167 560.688 20.2292 560.812 20.0625C560.938 19.8542 561.042 19.6458 561.125 19.4375C561.208 19.1875 561.292 18.8333 561.375 18.375C561.5 17.6667 561.562 17.0625 561.562 16.5625C561.562 16.0625 561.667 15.5625 561.875 15.0625C562.208 14.3125 562.729 13.6875 563.438 13.1875C564.188 12.6458 564.896 12.2083 565.562 11.875C566.729 11.9167 567.688 12.2292 568.438 12.8125C569.188 13.3542 569.667 14.0208 569.875 14.8125C570.167 15.5625 570.146 16.1875 569.812 16.6875C569.479 17.1458 569.146 17.6667 568.812 18.25C568.604 18.625 568.438 18.9792 568.312 19.3125C568.229 19.6458 568.146 19.9792 568.062 20.3125C568.021 20.6042 567.958 20.9167 567.875 21.25C567.833 21.5833 567.729 21.9583 567.562 22.375C567.438 22.7917 567.25 23.1458 567 23.4375C566.75 23.6875 566.583 23.9583 566.5 24.25C566.625 24.8333 566.667 25.3125 566.625 25.6875C566.625 26.0625 566.562 26.4167 566.438 26.75C566.354 27.0417 566.25 27.3542 566.125 27.6875C566.042 27.9792 565.958 28.3125 565.875 28.6875C565.792 28.9792 565.75 29.2708 565.75 29.5625C565.75 29.8542 565.708 30.125 565.625 30.375C565.5 30.875 565.333 31.3333 565.125 31.75C564.917 32.1667 564.708 32.5625 564.5 32.9375C564.208 33.5625 563.875 34.1458 563.5 34.6875C563.167 35.2292 562.958 35.9583 562.875 36.875C562.833 37.4583 562.792 37.9792 562.75 38.4375C562.75 38.8542 562.729 39.25 562.688 39.625C562.688 40 562.625 40.3958 562.5 40.8125C562.417 41.2292 562.292 41.7292 562.125 42.3125C562.042 42.6458 561.917 42.9792 561.75 43.3125C561.625 43.6042 561.521 43.9167 561.438 44.25C561.188 45.3333 560.833 46.1667 560.375 46.75C559.917 47.2917 559.229 47.8542 558.312 48.4375C557.812 48.5625 557.312 48.6875 556.812 48.8125C556.312 48.9375 555.812 49 555.312 49C554.854 49 554.417 48.9167 554 48.75C553.583 48.625 553.229 48.3333 552.938 47.875C552.729 47.5417 552.5 47.0625 552.25 46.4375C552.042 45.7708 551.792 45.125 551.5 44.5C551.375 44.2083 551.229 43.9375 551.062 43.6875C550.938 43.3958 550.833 43.1042 550.75 42.8125C550.542 42.3542 550.396 41.9583 550.312 41.625C550.271 41.2917 550.146 40.8333 549.938 40.25C549.646 39.3333 549.188 38.6458 548.562 38.1875C547.938 37.7292 547.396 37.2292 546.938 36.6875C546.896 36.2708 546.833 35.8958 546.75 35.5625C546.667 35.2292 546.479 34.9583 546.188 34.75C546.104 34.6667 546 34.625 545.875 34.625C545.75 34.5833 545.646 34.5 545.562 34.375C545.438 34.2083 545.354 34.0208 545.312 33.8125C545.271 33.5625 545.188 33.375 545.062 33.25C544.979 33.1667 544.854 32.9792 544.688 32.6875C544.521 32.3958 544.354 32.1042 544.188 31.8125C544.062 31.5208 543.917 31.2708 543.75 31.0625C543.583 30.8125 543.458 30.7083 543.375 30.75C543.167 30.75 542.958 30.9167 542.75 31.25C542.583 31.5833 542.396 31.9583 542.188 32.375C542.021 32.7917 541.854 33.2083 541.688 33.625C541.521 34 541.375 34.2708 541.25 34.4375C541.042 34.7292 540.875 35.1667 540.75 35.75C540.667 36.2917 540.542 36.7292 540.375 37.0625C540.083 37.5625 539.812 38.0625 539.562 38.5625C539.354 39.0625 539.417 39.6042 539.75 40.1875C539.75 40.4792 539.667 40.7292 539.5 40.9375C539.375 41.1042 539.354 41.3958 539.438 41.8125C539.188 42.2708 538.938 42.7917 538.688 43.375C538.479 43.9583 538.25 44.6042 538 45.3125C537.875 45.7292 537.771 46.1667 537.688 46.625C537.604 47.0417 537.5 47.4583 537.375 47.875C537.25 48.25 537.062 48.5833 536.812 48.875C536.604 49.1667 536.312 49.3333 535.938 49.375C535.438 49.4583 535.021 49.3958 534.688 49.1875C534.354 48.9792 534.042 48.7292 533.75 48.4375C533.458 48.1875 533.167 47.9167 532.875 47.625C532.583 47.2917 532.271 47.0417 531.938 46.875ZM604.875 15.4375C604.792 15.8542 604.646 16.2083 604.438 16.5C604.271 16.7917 604.083 17.1042 603.875 17.4375C603.125 17.6042 602.417 17.9375 601.75 18.4375C601.125 18.8958 600.396 19.1667 599.562 19.25C599.396 19.25 599.229 19.2292 599.062 19.1875C598.938 19.1042 598.792 19.0625 598.625 19.0625C598.125 19.0208 597.562 19.0417 596.938 19.125C596.354 19.2083 595.771 19.2917 595.188 19.375C594.396 19.4583 593.729 19.6458 593.188 19.9375C592.646 20.2292 592.021 20.4583 591.312 20.625C589.688 21.0417 588.229 21.6458 586.938 22.4375C585.688 23.1875 584.708 24.2292 584 25.5625C583.667 26.1875 583.312 26.9167 582.938 27.75C582.604 28.5417 582.104 29.1875 581.438 29.6875C581.646 30.1458 581.708 30.5625 581.625 30.9375C581.583 31.3125 581.479 31.6667 581.312 32C581.188 32.2917 581.021 32.6042 580.812 32.9375C580.646 33.2292 580.521 33.5208 580.438 33.8125C580.354 33.9792 580.312 34.1667 580.312 34.375C580.354 34.5833 580.354 34.7917 580.312 35C580.104 36.3333 580.188 37.5833 580.562 38.75C580.938 39.875 581.646 40.6667 582.688 41.125C583.354 41.4583 584 41.6458 584.625 41.6875C585.25 41.7292 586.021 41.7083 586.938 41.625C587.896 41.5417 588.938 41.4792 590.062 41.4375C591.188 41.3958 592.062 41.1458 592.688 40.6875C593.021 40.4375 593.271 40.1042 593.438 39.6875C593.604 39.2708 593.854 38.8542 594.188 38.4375C594.521 37.9792 594.792 37.4375 595 36.8125C595.208 36.1458 595.292 35.5417 595.25 35C595.208 34.7083 595 34.4167 594.625 34.125C594.292 33.8333 594 33.6458 593.75 33.5625C593.458 33.4375 593.146 33.375 592.812 33.375C592.521 33.3333 592.229 33.2917 591.938 33.25C591.688 33.1667 591.458 33.0625 591.25 32.9375C591.083 32.8125 591 32.5833 591 32.25C591 31.8333 591.271 31.5417 591.812 31.375C592.396 31.1667 593.083 31.0417 593.875 31C594.667 30.9167 595.479 30.875 596.312 30.875C597.188 30.875 597.875 30.8333 598.375 30.75C599 30.625 599.646 30.3542 600.312 29.9375C601.021 29.5208 601.729 29.3333 602.438 29.375C602.854 29.375 603.167 29.3958 603.375 29.4375C603.583 29.4792 603.75 29.5417 603.875 29.625C604 29.7083 604.104 29.8333 604.188 30C604.312 30.125 604.438 30.2917 604.562 30.5C604.812 31.4167 604.854 32.25 604.688 33C604.521 33.7083 604.271 34.4167 603.938 35.125C603.812 35.5 603.729 35.8958 603.688 36.3125C603.688 36.6875 603.646 37.0417 603.562 37.375C603.479 37.7083 603.292 38.0625 603 38.4375C602.75 38.8125 602.5 39.2292 602.25 39.6875C602.042 40.1458 601.854 40.625 601.688 41.125C601.562 41.625 601.396 42.1042 601.188 42.5625C601.104 42.6875 601 42.8125 600.875 42.9375C600.792 43.0208 600.708 43.1458 600.625 43.3125C600.417 43.7708 600.292 44.2292 600.25 44.6875C600.208 45.1042 600.104 45.4792 599.938 45.8125C599.688 46.6042 599.292 47.2917 598.75 47.875C598.25 48.4583 597.812 49.0417 597.438 49.625C597.146 49.7083 596.875 49.75 596.625 49.75C596.375 49.7917 596.146 49.8333 595.938 49.875C595.729 49.9583 595.604 49.8958 595.562 49.6875C595.562 49.4792 595.479 49.3333 595.312 49.25C594.854 49.5833 594.333 49.9375 593.75 50.3125C593.208 50.6875 592.583 50.75 591.875 50.5C591.792 50.0417 591.812 49.625 591.938 49.25C592.062 48.9167 592.208 48.5833 592.375 48.25C592.583 47.9583 592.792 47.6667 593 47.375C593.208 47.0833 593.354 46.75 593.438 46.375C592.854 46.4583 592.292 46.7083 591.75 47.125C591.208 47.5417 590.625 47.8542 590 48.0625C589.792 48.1458 589.542 48.1458 589.25 48.0625C589 48.0208 588.729 48.0417 588.438 48.125C587.396 48.2917 586.25 48.5417 585 48.875C583.75 49.2083 582.625 49.2708 581.625 49.0625C581.375 49.0208 581.167 48.9167 581 48.75C580.875 48.625 580.708 48.5 580.5 48.375C580.042 48.125 579.521 47.9583 578.938 47.875C578.354 47.7917 577.833 47.6667 577.375 47.5C576.583 47.25 575.938 46.8542 575.438 46.3125C574.938 45.7292 574.458 45.2292 574 44.8125C573.958 44.4792 573.833 44.1875 573.625 43.9375C573.417 43.6458 573.167 43.3958 572.875 43.1875C572.625 42.9375 572.375 42.7083 572.125 42.5C571.875 42.25 571.688 41.9792 571.562 41.6875C571.438 41.3542 571.354 40.9792 571.312 40.5625C571.312 40.1458 571.25 39.7292 571.125 39.3125C570.958 38.6458 570.771 38.0625 570.562 37.5625C570.396 37.0208 570.25 36.5 570.125 36C570.042 35.4583 570 34.8958 570 34.3125C570 33.7292 570.104 33.0625 570.312 32.3125C570.562 31.6042 570.854 30.8542 571.188 30.0625C571.521 29.2708 571.833 28.5417 572.125 27.875C572.625 26.8333 573.25 25.75 574 24.625C574.458 23.9583 574.896 23.3958 575.312 22.9375C575.729 22.4375 576.167 21.9375 576.625 21.4375C577.375 20.5625 578.354 19.75 579.562 19C580.812 18.2083 582.021 17.5208 583.188 16.9375C584.188 16.4792 585.312 16.0208 586.562 15.5625C587.854 15.1042 589.208 14.8333 590.625 14.75C591.875 14.625 593.104 14.6875 594.312 14.9375C595.521 15.1875 596.729 15.3542 597.938 15.4375C598.646 15.4792 599.417 15.5208 600.25 15.5625C601.083 15.5625 601.854 15.4792 602.562 15.3125C602.771 15.2708 602.979 15.2292 603.188 15.1875C603.396 15.1042 603.583 15.0417 603.75 15C603.958 14.9583 604.146 14.9792 604.312 15.0625C604.521 15.1042 604.708 15.2292 604.875 15.4375Z" fill="black"/>
</svg>
