<svg width="289" height="289" viewBox="0 0 289 289" fill="none" xmlns="http://www.w3.org/2000/svg">
<path d="M143.914 16.6631L143.909 16.6685L143.903 16.6736C143.859 16.7154 143.806 16.7498 143.785 16.7632L143.783 16.7645C143.75 16.7856 143.71 16.8101 143.665 16.8369C143.575 16.8909 143.452 16.962 143.299 17.0482C142.993 17.2212 142.559 17.461 142.014 17.7585C140.925 18.3539 139.386 19.184 137.527 20.1806C133.809 22.1739 128.807 24.8352 123.548 27.6206C113.033 33.1907 101.486 39.2605 97.1355 41.4781L97.1345 41.4786C96.1053 42.0002 95.1778 42.4781 94.5158 42.8318C94.4302 42.8776 94.3493 42.9211 94.2736 42.9622C94.5724 43.1052 94.9457 43.2825 95.3793 43.4875C96.5426 44.0374 98.1364 44.7849 99.8861 45.6033C101.968 46.5771 104.74 47.8811 107.316 49.0926C109.069 49.9173 110.731 50.6991 112.022 51.3045L112.026 51.3061C115.212 52.8288 122.322 56.158 127.824 58.6976L127.826 58.6984C133.329 61.2667 139.34 64.0603 141.174 64.9065L141.175 64.9073L144.292 66.3599L145.966 65.56C145.967 65.5598 145.967 65.5595 145.968 65.5593C147.017 65.0488 149.588 63.8343 151.677 62.8741C153.764 61.9155 157.572 60.1382 160.139 58.9252L160.143 58.9233C160.903 58.5728 161.87 58.1259 162.946 57.6287C165.507 56.4449 168.686 54.9759 171.151 53.8429L171.153 53.8421C174.567 52.2903 177.386 50.9863 179.351 50.0532C180.181 49.6592 180.856 49.3324 181.358 49.0815C181.062 49.0114 180.727 48.9356 180.372 48.8596C179.149 48.6035 173.218 47.2478 167.155 45.8378C161.11 44.4538 154.658 42.9888 152.806 42.6238L152.806 42.6239L152.799 42.6226L149.714 41.9744L149.375 42.3315C148.262 43.5683 146.836 44.0432 144.781 44.0726V44.0726H144.774C143.957 44.0726 143.387 44.0463 142.878 43.9067C142.357 43.7637 141.933 43.512 141.387 43.1386L141.387 43.1387L141.381 43.1341C139.409 41.7386 138.504 39.6666 138.663 37.6696C138.822 35.671 140.045 33.794 142.222 32.7892L142.225 32.788C143.926 32.0146 145.824 32.0608 147.82 32.9242C148.654 33.273 150.9 33.9133 152.838 34.3348C157.53 35.3242 174.831 39.1907 182.76 40.9966L182.76 40.9967C185.73 41.6754 188.076 42.3005 189.686 42.8372C190.488 43.1046 191.127 43.3562 191.572 43.589C191.793 43.7043 191.989 43.8269 192.138 43.9594C192.221 44.0333 192.33 44.1467 192.398 44.2974C192.667 44.2285 193.109 44.0408 193.759 43.6959C194.142 43.49 194.54 43.3056 194.879 43.1712C194.994 43.1256 195.106 43.0848 195.209 43.0505C194.974 42.9194 194.654 42.7471 194.223 42.5189C192.566 41.6428 189.337 39.9875 183.051 36.7653C182.112 36.2835 181.103 35.7666 180.022 35.2121C173.19 31.7114 162.378 26.0657 155.998 22.6779L155.997 22.6775C152.796 20.9709 149.849 19.427 147.675 18.3101C146.587 17.7514 145.695 17.3006 145.062 16.9899C144.745 16.8343 144.496 16.7156 144.322 16.6364C144.248 16.6032 144.192 16.5786 144.151 16.5617C144.118 16.5677 144.079 16.5783 144.037 16.5948C144.003 16.6081 143.973 16.6229 143.95 16.6371C143.946 16.6394 143.943 16.6416 143.94 16.6437C143.933 16.648 143.928 16.6518 143.924 16.6551C143.92 16.6575 143.918 16.6594 143.916 16.6609L143.915 16.6625C143.914 16.6629 143.914 16.6631 143.914 16.6631ZM195.798 43.4089C195.801 43.4118 195.802 43.4132 195.802 43.4131C195.802 43.4131 195.801 43.4117 195.798 43.4089Z" fill="white" stroke="black"/>
<path d="M155.132 40.327C148.92 38.8511 147.797 38.5444 147.134 38.9639C146.947 39.0819 146.797 39.2573 146.58 39.4803L155.132 40.327ZM155.132 40.327C160.099 41.5124 168.848 43.4879 174.464 44.7297L155.132 40.327ZM143.415 36.6642L143.414 36.6643C142.929 37.1738 142.779 37.6836 142.809 38.1205C142.839 38.5673 143.062 38.9901 143.414 39.3053C144.109 39.9272 145.258 40.0933 146.224 39.1292C146.255 39.0976 146.286 39.0644 146.319 39.0302C146.502 38.8366 146.714 38.6124 146.986 38.4731C147.34 38.2918 147.747 38.2614 148.292 38.3161C149.245 38.4117 150.905 38.8069 154.085 39.5641C154.452 39.6514 154.839 39.7435 155.247 39.8405L155.248 39.8407C160.211 41.025 168.957 42.9999 174.572 44.2415L174.573 44.2416L174.614 44.2509L174.635 44.2556L174.646 44.2579L174.656 44.2602L174.677 44.2649L174.699 44.2696L174.709 44.272L174.72 44.2743L174.73 44.2767L174.741 44.279L174.783 44.2884L174.826 44.2979L174.847 44.3027L174.869 44.3074L174.879 44.3098L174.89 44.3122L174.912 44.317L174.922 44.3193L174.933 44.3217L174.944 44.3241L174.955 44.3265L174.965 44.3289L174.976 44.3313L174.998 44.3361L175.041 44.3458L175.085 44.3554L175.107 44.3603L175.117 44.3627L175.128 44.3651L175.172 44.3748L175.183 44.3773L175.194 44.3797L175.216 44.3846L175.227 44.387L175.238 44.3895L175.249 44.3919L175.26 44.3943L175.304 44.4041L175.326 44.409L175.337 44.4115L175.348 44.4139L175.359 44.4164L175.37 44.4188L175.392 44.4238L175.437 44.4336L175.481 44.4435L175.526 44.4534L175.548 44.4583L175.57 44.4633L175.581 44.4658L175.592 44.4682L175.604 44.4707L175.615 44.4732L175.637 44.4782L175.648 44.4806L175.659 44.4831L175.671 44.4856L175.682 44.4881L175.704 44.4931L175.727 44.4981L175.749 44.503L175.794 44.513L175.805 44.5155L175.816 44.518L175.828 44.5205L175.839 44.523L175.861 44.528L175.872 44.5305L175.884 44.533L175.895 44.5355L175.906 44.538L175.917 44.5405L175.929 44.543L175.94 44.5455L175.951 44.548L175.974 44.553L176.019 44.563L176.064 44.573L176.075 44.5755L176.086 44.578L176.098 44.5805L176.109 44.583L176.12 44.5855L176.131 44.588L176.154 44.593L176.199 44.603L176.222 44.608L176.233 44.6106L176.244 44.6131L176.255 44.6156L176.267 44.6181L176.278 44.6206L176.289 44.6231L176.312 44.6281L176.323 44.6306L176.334 44.6331L176.357 44.6381L176.368 44.6406L176.379 44.6431L176.402 44.6481L176.424 44.6531L176.435 44.6556L176.447 44.6581L176.469 44.6631L176.514 44.6731L176.537 44.6781L176.548 44.6806L176.559 44.6831L176.604 44.693L176.615 44.6955L176.626 44.698L176.638 44.7005L176.649 44.703L176.66 44.7055L176.671 44.708L176.694 44.7129L176.738 44.7229L176.783 44.7328L176.805 44.7378L176.827 44.7427L176.872 44.7526L176.916 44.7625L176.961 44.7723L176.983 44.7772L176.994 44.7797L177.005 44.7822L177.016 44.7846L177.027 44.7871L177.038 44.7895L177.049 44.792L177.071 44.7969L177.082 44.7993L177.093 44.8018L177.104 44.8042L177.115 44.8067L177.137 44.8115L177.148 44.814L177.159 44.8164L177.17 44.8188L177.181 44.8213L177.225 44.831L177.236 44.8334L177.247 44.8358L177.268 44.8407L177.312 44.8504L177.355 44.86L177.366 44.8624L177.377 44.8648L177.388 44.8672L177.399 44.8696L177.442 44.8792L177.463 44.884L177.474 44.8863L177.485 44.8887L177.495 44.8911L177.506 44.8935L177.527 44.8982L177.538 44.9006L177.549 44.903L177.559 44.9053L177.57 44.9077L177.612 44.9171L177.655 44.9265L177.676 44.9312L177.686 44.9336L177.697 44.9359L177.707 44.9382L177.718 44.9406L177.739 44.9452L177.781 44.9545L177.791 44.9568L177.802 44.9592L177.822 44.9638L177.864 44.973L177.905 44.9821L177.915 44.9844L177.925 44.9867L177.946 44.9913L177.966 44.9958L177.977 44.9981L177.987 45.0003L178.027 45.0093L178.037 45.0116L178.048 45.0138L178.058 45.0161L178.068 45.0183L178.078 45.0206L178.088 45.0228L178.098 45.025L178.108 45.0272L178.118 45.0295L178.128 45.0317L178.138 45.0339L178.148 45.0361L178.158 45.0383L178.168 45.0405L178.188 45.0449L178.227 45.0537L178.247 45.0581L178.266 45.0624L178.286 45.0668L178.296 45.0689L178.305 45.0711L178.344 45.0797L178.382 45.0883L178.402 45.0925L178.421 45.0967L178.43 45.0989L178.44 45.101L178.459 45.1052L178.478 45.1094L178.496 45.1136L178.534 45.1219L178.543 45.1239L178.552 45.126L178.562 45.1281L178.571 45.1301L178.608 45.1383L178.617 45.1403L178.626 45.1424L178.644 45.1464L178.653 45.1484L178.662 45.1505L178.68 45.1545L178.689 45.1565L178.698 45.1585L178.707 45.1605L178.716 45.1625L178.752 45.1704L178.77 45.1743L178.787 45.1782L178.805 45.1821L178.822 45.186L178.84 45.1899L178.848 45.1918L178.857 45.1937L178.891 45.2013L178.9 45.2032L178.908 45.2051L178.925 45.2089L178.934 45.2108L178.942 45.2127L178.951 45.2145L178.959 45.2164L178.992 45.2238L179.009 45.2275L179.025 45.2311L179.058 45.2384L179.066 45.2402L179.074 45.242L179.09 45.2456L179.106 45.2491L179.122 45.2526L179.138 45.2562L179.146 45.2579L179.154 45.2597L179.162 45.2614L179.169 45.2631L179.177 45.2649L179.185 45.2666L179.216 45.2734L179.231 45.2768L179.239 45.2785L179.246 45.2802L179.261 45.2835L179.269 45.2852L179.276 45.2869L179.284 45.2885L179.291 45.2902L179.298 45.2918L179.306 45.2934L179.313 45.2951L179.32 45.2967L179.328 45.2983L179.335 45.2999L179.342 45.3015L179.349 45.3032L179.357 45.3047L179.364 45.3063L179.392 45.3127L179.42 45.3189L179.434 45.322L179.441 45.3235L179.448 45.325L179.461 45.328L179.468 45.3295L179.475 45.331L179.502 45.337L179.508 45.3385L179.515 45.3399L179.521 45.3414L179.528 45.3428L179.554 45.3486L179.56 45.35L179.567 45.3514L179.579 45.3542L179.586 45.3556L179.592 45.357L179.604 45.3598L179.629 45.3652L179.653 45.3706C180.671 45.5969 182.442 45.9903 183.591 46.2146L183.594 46.215C185.144 46.5251 186.199 46.8131 187.006 47.3095C187.838 47.8204 188.362 48.5224 188.928 49.5382L188.929 49.5401C189.378 50.355 189.65 50.8705 189.786 51.5898C189.917 52.2785 189.922 53.146 189.922 54.6641V57.8533V58.0808L189.751 58.2303L188.876 58.9923L188.876 58.9924L188.866 59.0003C187.978 59.7366 187.382 60.9564 187.382 61.9173C187.382 62.3557 187.596 62.9994 187.963 63.6308C188.33 64.2607 188.791 64.7782 189.194 65.0133L189.194 65.0132L189.203 65.0182C189.965 65.4826 190.998 65.5779 191.994 65.324C192.989 65.0704 193.874 64.4866 194.357 63.6902L194.359 63.6866C194.869 62.861 194.97 61.8212 194.715 60.8725C194.459 59.9233 193.863 59.1194 193.046 58.7283C193.046 58.7281 193.045 58.7279 193.045 58.7277L192.088 58.2775L191.81 58.1468L191.801 57.8401L191.688 54.0865L191.688 54.0845C191.646 52.4568 191.597 51.5149 191.493 50.846C191.393 50.2043 191.245 49.8181 190.982 49.3059C189.912 47.2484 188.883 46.2004 187.619 45.642C187.458 45.5776 187.024 45.4473 186.338 45.2618C185.658 45.0779 184.76 44.8478 183.707 44.5871C181.601 44.066 178.882 43.4248 176.048 42.7905C174.655 42.4786 173.055 42.1208 171.351 41.7399C166.118 40.5702 159.916 39.1836 155.785 38.2467C153.049 37.6404 150.449 37.0837 148.46 36.6788C147.465 36.4763 146.625 36.3122 145.998 36.1989C145.684 36.1422 145.427 36.0988 145.232 36.0697C145.024 36.0388 144.918 36.0292 144.887 36.0292C144.517 36.0292 144.274 36.074 144.073 36.161C143.871 36.2482 143.671 36.3953 143.415 36.6642Z" fill="white" stroke="black"/>
<path d="M152.463 66.9997L152.464 66.9993C156.837 64.9677 162.85 62.1733 165.787 60.7895C167.265 60.0994 168.644 59.4733 169.677 59.0203C170.194 58.7935 170.621 58.6113 170.929 58.4865C170.974 58.4683 171.016 58.4514 171.056 58.436C171.062 58.4881 171.068 58.5486 171.073 58.6184C171.113 59.1404 171.114 60.0121 171.086 61.3991L171.009 64.6601L167.072 66.3399L152.463 66.9997ZM152.463 66.9997L144.532 70.6686L144.323 70.7654L144.114 70.6692L135.816 66.8592L135.814 66.858C134.741 66.3583 133.609 65.8304 132.474 65.3014C128.801 63.5887 125.102 61.8642 123.314 61.0455L123.314 61.0456L123.308 61.0424C121.655 60.2562 120.024 59.5157 119.031 59.0649C118.631 58.8831 118.334 58.7484 118.182 58.6768M152.463 66.9997L118.182 58.6768M118.182 58.6768L117.954 58.5803V61.4658V64.7478L120.697 65.9158C124.09 67.3297 139.744 74.0989 142.324 75.2613C142.768 75.4554 143.209 75.6345 143.561 75.7642C143.737 75.8294 143.886 75.8802 143.999 75.914C144.051 75.9294 144.086 75.9386 144.109 75.9441C144.11 75.9437 144.112 75.9432 144.113 75.9427C144.17 75.9256 144.253 75.8975 144.368 75.8563C144.595 75.7742 144.926 75.6476 145.37 75.4713C146.257 75.1193 147.583 74.5756 149.418 73.8103C153.089 72.2801 158.788 69.8677 167.071 66.34L118.182 58.6768ZM144.062 75.9571C144.062 75.9571 144.062 75.9571 144.062 75.9571L144.062 75.9571ZM171.002 58.1607C171.002 58.1608 171.002 58.1618 171.003 58.1634C171.002 58.1614 171.002 58.1605 171.002 58.1607ZM171.38 58.3178C171.386 58.3167 171.388 58.3159 171.388 58.3159C171.388 58.3159 171.385 58.3164 171.38 58.3178Z" fill="white" stroke="black"/>
<path d="M188.317 70.4667L188.316 70.4683C185.197 76.6514 184.626 82.8941 186.633 87.3964L186.634 87.3984C186.985 88.1952 187.681 89.4041 188.342 90.4216C188.668 90.9228 188.977 91.366 189.225 91.6819C189.305 91.4033 189.391 91.051 189.468 90.6629L189.468 90.6629L189.469 90.6601C189.54 90.3164 189.625 89.894 189.715 89.4507C189.875 88.6637 190.048 87.8106 190.175 87.214L190.175 87.214L190.175 87.2119L190.542 85.5185L191.513 85.4918L191.824 86.6207L191.824 86.6217C191.995 87.2478 192.419 88.8887 192.758 90.2445L192.758 90.2458L193.135 91.7691L193.151 91.7485L193.151 91.7485L193.153 91.7458C194.162 90.4919 195.466 88.2207 196.242 86.363L196.242 86.3629L196.245 86.3578C196.591 85.555 196.76 85.0821 196.854 84.3769C196.951 83.6439 196.966 82.6573 196.966 80.8266C196.966 78.6171 196.894 77.278 196.553 75.8829C196.21 74.479 195.588 72.996 194.444 70.5098C194.444 70.5094 194.443 70.509 194.443 70.5085L193.366 68.203H191.426H189.449L188.317 70.4667Z" fill="white" stroke="black"/>
<mask id="path-5-inside-1_26_117" fill="white">
<path d="M165.235 71.626C163.655 72.3315 162.329 72.9806 162.329 73.0653C162.329 73.15 163.006 73.6298 163.824 74.1096C171.19 78.5687 176.779 86.2735 179.177 95.3048C179.798 97.5908 179.939 98.8326 180.024 102.981C180.137 107.243 180.081 108.315 179.544 110.884C177.456 121.128 170.259 130.47 160.776 135.24C152.761 139.247 141.811 140.009 132.977 137.103C124.764 134.421 117.426 128.325 112.995 120.451C108.282 112.097 107.548 100.357 111.161 91.2971C113.701 84.8906 117.567 79.8105 123.014 75.6618C124.284 74.7022 125.639 73.7709 126.034 73.6015C126.966 73.1782 126.966 72.9806 126.006 72.5855C125.554 72.4162 124.228 71.88 123.043 71.372L120.869 70.4688L119.091 71.88C118.104 72.642 116.241 74.42 114.914 75.8029C104.359 86.838 100.747 102.332 105.46 116.444C110.117 130.386 122.224 140.602 137.493 143.509C141.133 144.186 147.991 144.215 151.463 143.537C168.142 140.292 180.617 128.805 184.568 113C188.124 98.889 182.649 82.4352 171.162 72.7266C169.808 71.5695 168.566 70.5535 168.396 70.4688C168.255 70.3842 166.816 70.8922 165.235 71.626Z"/>
</mask>
<path d="M165.235 71.626C163.655 72.3315 162.329 72.9806 162.329 73.0653C162.329 73.15 163.006 73.6298 163.824 74.1096C171.19 78.5687 176.779 86.2735 179.177 95.3048C179.798 97.5908 179.939 98.8326 180.024 102.981C180.137 107.243 180.081 108.315 179.544 110.884C177.456 121.128 170.259 130.47 160.776 135.24C152.761 139.247 141.811 140.009 132.977 137.103C124.764 134.421 117.426 128.325 112.995 120.451C108.282 112.097 107.548 100.357 111.161 91.2971C113.701 84.8906 117.567 79.8105 123.014 75.6618C124.284 74.7022 125.639 73.7709 126.034 73.6015C126.966 73.1782 126.966 72.9806 126.006 72.5855C125.554 72.4162 124.228 71.88 123.043 71.372L120.869 70.4688L119.091 71.88C118.104 72.642 116.241 74.42 114.914 75.8029C104.359 86.838 100.747 102.332 105.46 116.444C110.117 130.386 122.224 140.602 137.493 143.509C141.133 144.186 147.991 144.215 151.463 143.537C168.142 140.292 180.617 128.805 184.568 113C188.124 98.889 182.649 82.4352 171.162 72.7266C169.808 71.5695 168.566 70.5535 168.396 70.4688C168.255 70.3842 166.816 70.8922 165.235 71.626Z" fill="white"/>
<path d="M165.235 71.626L165.657 72.533L165.65 72.5361L165.643 72.5391L165.235 71.626ZM163.824 74.1096L164.33 73.2468L164.342 73.2541L163.824 74.1096ZM179.177 95.3048L178.212 95.5669L178.211 95.5615L179.177 95.3048ZM180.024 102.981L179.024 103.008L179.024 103.002L180.024 102.981ZM179.544 110.884L178.564 110.684L178.565 110.679L179.544 110.884ZM160.776 135.24L161.226 136.133L161.223 136.134L160.776 135.24ZM132.977 137.103L133.287 136.152L133.29 136.153L132.977 137.103ZM112.995 120.451L113.866 119.96L113.867 119.961L112.995 120.451ZM111.161 91.2971L112.09 91.6657L112.09 91.6675L111.161 91.2971ZM123.014 75.6618L122.408 74.8663L122.412 74.8639L123.014 75.6618ZM126.034 73.6015L126.448 74.5119L126.438 74.5164L126.428 74.5207L126.034 73.6015ZM126.006 72.5855L126.357 71.6492L126.372 71.6548L126.387 71.6609L126.006 72.5855ZM123.043 71.372L123.426 70.4485L123.436 70.4528L123.043 71.372ZM120.869 70.4688L120.248 69.6855L120.709 69.3193L121.253 69.5454L120.869 70.4688ZM119.091 71.88L119.713 72.6633L119.702 72.6717L119.091 71.88ZM114.914 75.8029L114.192 75.1117L114.193 75.1107L114.914 75.8029ZM105.46 116.444L104.511 116.76L104.511 116.76L105.46 116.444ZM137.493 143.509L137.31 144.492L137.306 144.491L137.493 143.509ZM151.463 143.537L151.271 142.556L151.272 142.556L151.463 143.537ZM184.568 113L183.598 112.758L183.598 112.756L184.568 113ZM171.162 72.7266L170.517 73.4904L170.513 73.487L171.162 72.7266ZM168.396 70.4688L167.949 71.3633L167.915 71.3461L167.882 71.3263L168.396 70.4688ZM165.643 72.5391C164.86 72.8886 164.146 73.2217 163.632 73.4753C163.372 73.6032 163.176 73.705 163.05 73.7756C163.02 73.7927 162.997 73.8064 162.979 73.8168C162.961 73.8278 162.955 73.8321 162.958 73.8305C162.959 73.8294 162.966 73.8247 162.976 73.8165C162.986 73.8092 163.006 73.7929 163.032 73.7686C163.053 73.7485 163.104 73.6982 163.157 73.621C163.195 73.5663 163.329 73.3644 163.329 73.0653H161.329C161.329 72.7609 161.465 72.5527 161.507 72.4905C161.565 72.4058 161.624 72.3469 161.656 72.3173C161.721 72.2557 161.784 72.2102 161.82 72.1857C161.898 72.1318 161.988 72.0787 162.07 72.0322C162.243 71.9352 162.477 71.8148 162.747 71.6817C163.291 71.4132 164.03 71.0689 164.828 70.7128L165.643 72.5391ZM163.329 73.0653C163.329 72.9075 163.291 72.7852 163.264 72.7162C163.236 72.6435 163.205 72.5892 163.185 72.5569C163.146 72.4941 163.11 72.4541 163.1 72.4426C163.076 72.4169 163.067 72.4117 163.092 72.4325C163.136 72.4692 163.218 72.5326 163.344 72.6205C163.589 72.7928 163.94 73.0181 164.33 73.2469L163.319 74.9723C162.89 74.7212 162.493 74.4668 162.195 74.258C162.049 74.1554 161.911 74.0531 161.802 73.9609C161.751 73.9174 161.682 73.857 161.619 73.787C161.588 73.7534 161.537 73.6939 161.488 73.6146C161.458 73.5666 161.329 73.3604 161.329 73.0653H163.329ZM164.342 73.2541C171.949 77.8589 177.685 85.7893 180.144 95.048L178.211 95.5615C175.872 86.7577 170.432 79.2785 163.306 74.965L164.342 73.2541ZM180.142 95.0427C180.795 97.4441 180.939 98.7799 181.024 102.961L179.024 103.002C178.94 98.8853 178.802 97.7375 178.212 95.5669L180.142 95.0427ZM181.024 102.955C181.138 107.249 181.082 108.41 180.523 111.088L178.565 110.679C179.079 108.221 179.137 107.237 179.024 103.008L181.024 102.955ZM180.524 111.083C178.373 121.634 170.977 131.228 161.226 136.133L160.327 134.346C169.541 129.712 176.538 120.623 178.564 110.684L180.524 111.083ZM161.223 136.134C152.966 140.263 141.742 141.039 132.664 138.052L133.29 136.153C141.88 138.979 152.557 138.232 160.329 134.345L161.223 136.134ZM132.667 138.053C124.206 135.291 116.672 129.025 112.124 120.942L113.867 119.961C118.18 127.626 125.323 133.552 133.287 136.152L132.667 138.053ZM112.124 120.943C107.259 112.319 106.51 100.261 110.232 90.9268L112.09 91.6675C108.587 100.452 109.305 111.875 113.866 119.96L112.124 120.943ZM110.231 90.9286C112.839 84.3523 116.817 79.1248 122.408 74.8663L123.62 76.4573C118.318 80.4962 114.563 85.4289 112.09 91.6657L110.231 90.9286ZM122.412 74.8639C123.057 74.3759 123.726 73.8938 124.288 73.5099C124.811 73.1524 125.334 72.8135 125.64 72.6824L126.428 74.5207C126.43 74.5197 126.423 74.5226 126.405 74.5321C126.387 74.5411 126.364 74.5538 126.334 74.5707C126.273 74.6048 126.196 74.6506 126.103 74.7087C125.917 74.8247 125.683 74.9785 125.417 75.1608C124.885 75.5248 124.241 75.9881 123.617 76.4597L122.412 74.8639ZM125.62 72.6912C125.844 72.5896 125.941 72.532 125.97 72.5106C125.983 72.5009 125.936 72.5314 125.88 72.6086C125.817 72.6944 125.724 72.867 125.729 73.1062C125.735 73.3445 125.836 73.5111 125.9 73.5916C125.958 73.6646 126.004 73.6921 125.989 73.6821C125.957 73.6603 125.855 73.6049 125.625 73.5102L126.387 71.6609C126.636 71.7637 126.895 71.8811 127.103 72.0208C127.247 72.1175 127.715 72.446 127.729 73.0597C127.743 73.6779 127.286 74.0267 127.145 74.1289C126.943 74.276 126.69 74.4018 126.448 74.5119L125.62 72.6912ZM125.655 73.5219C125.183 73.3449 123.841 72.802 122.649 72.2911L123.436 70.4528C124.615 70.958 125.926 71.4875 126.357 71.6492L125.655 73.5219ZM122.659 72.2954L120.486 71.3923L121.253 69.5454L123.426 70.4485L122.659 72.2954ZM121.491 71.2521L119.713 72.6633L118.47 71.0967L120.248 69.6855L121.491 71.2521ZM119.702 72.6717C118.776 73.3864 116.955 75.1201 115.636 76.4951L114.193 75.1107C115.527 73.7199 117.431 71.8975 118.481 71.0882L119.702 72.6717ZM115.637 76.4941C105.329 87.2705 101.817 102.379 106.408 116.127L104.511 116.76C99.6766 102.285 103.389 86.4054 114.192 75.1117L115.637 76.4941ZM106.408 116.127C110.942 129.701 122.741 139.683 137.68 142.527L137.306 144.491C121.708 141.522 109.291 131.07 104.511 116.76L106.408 116.127ZM137.675 142.526C139.412 142.849 141.969 143.024 144.544 143.031C147.122 143.038 149.629 142.876 151.271 142.556L151.654 144.519C149.825 144.876 147.168 145.038 144.538 145.031C141.906 145.024 139.214 144.847 137.31 144.492L137.675 142.526ZM151.272 142.556C167.592 139.38 179.746 128.164 183.598 112.758L185.538 113.243C181.487 129.446 168.692 141.203 151.654 144.519L151.272 142.556ZM183.598 112.756C187.057 99.0304 181.724 82.9628 170.517 73.4904L171.808 71.9629C183.574 81.9076 189.191 98.7476 185.538 113.245L183.598 112.756ZM170.513 73.487C169.84 72.912 169.196 72.3736 168.702 71.97C168.455 71.7678 168.248 71.6026 168.096 71.4847C168.02 71.4253 167.962 71.3819 167.923 71.3533C167.861 71.3086 167.886 71.3319 167.949 71.3633L168.844 69.5744C168.949 69.627 169.05 69.7005 169.094 69.7321C169.16 69.7797 169.238 69.8387 169.323 69.9046C169.493 70.0371 169.714 70.2141 169.967 70.4211C170.475 70.836 171.13 71.3842 171.812 71.9663L170.513 73.487ZM167.882 71.3263C168.094 71.4533 168.287 71.4579 168.315 71.459C168.374 71.4614 168.411 71.4561 168.413 71.4559C168.419 71.4552 168.392 71.4589 168.319 71.4779C168.181 71.5141 167.971 71.5814 167.696 71.6808C167.152 71.8776 166.424 72.1765 165.657 72.533L164.814 70.7189C165.627 70.3417 166.409 70.0196 167.015 69.8002C167.316 69.6914 167.59 69.6017 167.811 69.5436C167.918 69.5154 168.039 69.4875 168.157 69.4724C168.214 69.465 168.299 69.4567 168.395 69.4606C168.46 69.4632 168.682 69.4737 168.911 69.6113L167.882 71.3263Z" fill="black" mask="url(#path-5-inside-1_26_117)"/>
<path d="M121.918 82.6708C121.872 82.6441 121.826 82.6181 121.78 82.5927C122.17 83.2572 122.722 84.163 123.396 85.2433C124.84 87.5566 126.834 90.6573 128.963 93.8716L128.964 93.8735C129.798 95.1451 130.554 96.319 131.103 97.1902C131.378 97.6253 131.601 97.9874 131.758 98.2493C131.835 98.3796 131.899 98.4895 131.944 98.573C131.966 98.614 131.988 98.6552 132.005 98.6926C132.013 98.7107 132.024 98.7356 132.034 98.7634L132.034 98.765C132.04 98.7801 132.066 98.8535 132.066 98.9455C132.066 99.1741 131.921 99.3113 131.892 99.3388L131.891 99.3395C131.84 99.3879 131.785 99.4228 131.748 99.4449C131.67 99.4914 131.573 99.5356 131.475 99.5764C131.274 99.6601 130.996 99.7585 130.665 99.8656C130.001 100.081 129.089 100.345 128.083 100.614L128.081 100.614C123.666 101.785 119.385 102.942 116.193 103.816C114.597 104.254 113.275 104.62 112.345 104.883C112.219 104.918 112.101 104.951 111.99 104.983C112.41 105.112 112.937 105.272 113.545 105.455C115.134 105.933 117.273 106.566 119.511 107.222C123.985 108.533 128.841 109.934 130.476 110.371C131.015 110.502 131.491 110.659 131.842 110.821C132.016 110.901 132.18 110.992 132.31 111.095C132.375 111.146 132.446 111.213 132.505 111.296C132.564 111.379 132.63 111.508 132.63 111.674C132.63 111.749 132.614 111.81 132.606 111.836C132.597 111.87 132.586 111.9 132.576 111.924C132.556 111.972 132.532 112.024 132.505 112.076C132.453 112.179 132.379 112.311 132.289 112.463C132.109 112.77 131.852 113.183 131.539 113.672C130.911 114.652 130.047 115.948 129.099 117.32C126.317 121.354 124.104 124.591 122.911 126.368C123.516 126.013 124.259 125.587 124.968 125.182L124.968 125.182L124.978 125.176C126.385 124.416 130.022 122.387 133.07 120.665L133.072 120.664C135.339 119.396 136.754 118.631 137.617 118.23C138.04 118.034 138.374 117.903 138.629 117.858C138.746 117.837 138.902 117.823 139.059 117.87C138.431 115.239 137.919 113.168 137.691 112.381C137.635 112.195 137.632 111.996 137.706 111.796C137.775 111.607 137.9 111.453 138.037 111.326C138.302 111.079 138.719 110.833 139.268 110.552L139.268 110.552L139.273 110.549L140.74 109.816L140.979 109.696L141.211 109.828L142.255 110.421L142.256 110.421C142.53 110.578 142.825 110.716 143.075 110.813C143.2 110.862 143.308 110.898 143.393 110.921C143.466 110.942 143.501 110.947 143.507 110.948C143.509 110.948 143.508 110.948 143.504 110.948C143.77 110.948 144.004 111.073 144.165 111.199C144.333 111.331 144.488 111.513 144.582 111.725L144.595 111.754L144.604 111.784C144.626 111.857 144.634 111.943 144.638 111.989C144.645 112.053 144.65 112.133 144.656 112.226C144.666 112.413 144.677 112.666 144.686 112.977C144.706 113.6 144.724 114.465 144.738 115.509C144.766 117.597 144.78 120.408 144.766 123.445C144.738 129.466 144.738 135.011 144.738 135.77C144.74 135.863 144.744 135.949 144.748 136.028C144.761 136 144.773 135.97 144.786 135.94C144.979 135.491 145.203 134.87 145.454 134.073L145.455 134.072C147.007 129.189 148.242 125.356 149.111 122.718C149.545 121.4 149.889 120.378 150.134 119.672C150.257 119.32 150.356 119.043 150.431 118.846C150.469 118.749 150.502 118.666 150.53 118.601C150.544 118.569 150.559 118.537 150.574 118.507L150.574 118.506C150.584 118.488 150.61 118.436 150.652 118.385C150.829 118.167 151.093 118.149 151.193 118.146C151.332 118.143 151.48 118.165 151.618 118.196C151.899 118.259 152.231 118.379 152.553 118.532L152.553 118.532L152.559 118.535C153.545 119.021 157.141 120.968 160.58 122.86C162.302 123.808 163.99 124.744 165.299 125.481C166.329 126.061 167.151 126.533 167.56 126.785C166.886 125.585 165.456 123.391 163.041 119.769C160.448 115.879 158.985 113.65 158.236 112.375C157.868 111.751 157.642 111.308 157.555 110.994C157.512 110.843 157.474 110.632 157.552 110.423C157.641 110.181 157.832 110.065 157.989 110.015C158.05 109.993 158.135 109.968 158.213 109.946C158.323 109.914 158.471 109.873 158.652 109.824C159.013 109.727 159.51 109.596 160.107 109.44C161.301 109.13 162.896 108.72 164.603 108.283L164.605 108.282C169.444 107.055 172.861 106.16 175.066 105.541C175.996 105.28 176.705 105.07 177.212 104.905C177.099 104.872 176.971 104.836 176.828 104.797C176.458 104.694 175.993 104.57 175.408 104.417C175.403 104.435 175.398 104.453 175.391 104.472C175.351 104.582 175.283 104.655 175.226 104.7C175.177 104.739 175.133 104.759 175.113 104.768C175.08 104.783 175.052 104.791 175.034 104.796C175 104.805 174.969 104.81 174.95 104.812C174.91 104.818 174.866 104.821 174.827 104.823C174.746 104.827 174.639 104.829 174.513 104.829C174.259 104.829 173.903 104.822 173.474 104.808C172.614 104.779 171.444 104.722 170.169 104.637C167.638 104.469 163.214 104.271 160.336 104.158C158.893 104.116 157.457 104.052 156.306 103.985C155.182 103.919 154.288 103.848 153.946 103.785C153.927 103.782 153.908 103.779 153.889 103.776C153.425 103.703 152.958 103.63 152.626 103.217C152.468 103.022 152.361 102.778 152.265 102.505C152.168 102.227 152.067 101.87 151.941 101.423L151.941 101.422C151.659 100.407 151.425 99.3907 151.391 99.1573L151.386 99.1221V99.0866C151.386 98.9538 151.415 98.7362 151.599 98.5602C151.764 98.4018 151.975 98.3576 152.136 98.343C152.454 98.3141 152.942 98.3768 153.66 98.5144C154.469 98.6697 155.652 98.9378 157.371 99.3499C157.372 99.3431 157.373 99.3369 157.374 99.3315C157.385 99.267 157.406 99.2079 157.422 99.1666C157.455 99.0784 157.507 98.9702 157.569 98.8494C157.695 98.6032 157.894 98.2484 158.168 97.7793C158.718 96.8385 159.589 95.4086 160.831 93.4045C163.117 89.7074 164.937 86.7593 166.185 84.718C166.652 83.9542 167.038 83.3184 167.339 82.8182C166.88 83.0426 166.323 83.3195 165.688 83.6384C165.718 83.7289 165.715 83.8091 165.71 83.8516C165.697 83.9692 165.644 84.0559 165.634 84.0718L165.633 84.0735C165.6 84.1285 165.557 84.1812 165.527 84.2173C165.457 84.2999 165.353 84.4115 165.226 84.5434C164.967 84.8105 164.58 85.1926 164.098 85.6593C163.132 86.5936 161.768 87.8796 160.243 89.2915C157.223 92.1423 154.06 95.0507 153.237 95.7893C153.236 95.7895 153.236 95.7897 153.236 95.7899L151.77 97.1151L151.115 97.7067L150.944 96.8411L150.436 94.2729L150.436 94.2703C150.401 94.089 150.367 93.9172 150.335 93.7548C150.241 93.2806 150.162 92.8857 150.125 92.5655C150.073 92.1268 150.081 91.7147 150.293 91.3355C150.315 91.2948 150.34 91.2555 150.366 91.2174C150.271 91.21 150.163 91.1856 150.059 91.1242C149.873 91.0144 149.785 90.8393 149.757 90.6799C149.615 89.9457 148.949 86.9523 148.308 84.1154C147.987 82.6959 147.673 81.32 147.436 80.2939C147.318 79.7808 147.219 79.356 147.148 79.0573C147.147 79.0547 147.146 79.0521 147.146 79.0496C147.142 79.0507 147.139 79.0519 147.135 79.0531C146.848 79.1501 146.459 79.3 146.045 79.4791L146.045 79.4792L146.036 79.4828L144.766 80.0046V89.2369C144.766 92.2729 144.738 94.6565 144.688 96.2761C144.663 97.0845 144.633 97.7099 144.598 98.1332C144.58 98.3417 144.56 98.5169 144.536 98.6445C144.525 98.7023 144.507 98.7832 144.474 98.8585C144.46 98.8909 144.424 98.9711 144.348 99.0448C144.257 99.1342 144.063 99.2451 143.826 99.1658L143.812 99.1612L143.798 99.1557C143.767 99.1434 143.735 99.127 143.706 99.1103C143.703 99.1914 143.687 99.2775 143.647 99.3648C143.541 99.6015 143.332 99.7065 143.185 99.7526C143.044 99.7966 142.89 99.8106 142.743 99.8122C142.734 99.8149 142.717 99.8205 142.691 99.831C142.63 99.8555 142.548 99.8954 142.45 99.9511C142.255 100.062 142.029 100.22 141.829 100.394L141.83 100.394L141.82 100.402L140.974 101.108L140.623 101.4L140.3 101.077L134.599 95.3761L134.598 95.3754C131.152 91.9153 129.172 89.8724 128.494 89.0232C128.407 88.9145 128.333 88.8145 128.277 88.7267C128.249 88.6829 128.221 88.634 128.197 88.5828C128.177 88.5391 128.143 88.4573 128.134 88.3562C128.126 88.249 128.144 88.0301 128.347 87.8807C128.514 87.7572 128.692 87.7741 128.75 87.7819C128.882 87.7996 129.006 87.8609 129.081 87.9001C129.42 88.0782 130.051 88.5289 130.908 89.1767L130.908 89.1767L130.913 89.1805C132.285 90.2445 134.276 91.6469 135.364 92.3438L135.364 92.3438L135.368 92.347C136.003 92.7648 137.076 93.5033 138.208 94.3056C138.169 94.1675 138.15 94.0253 138.15 93.8744C138.146 93.7359 138.173 93.5144 138.208 93.2719C138.247 93.0014 138.306 92.6474 138.381 92.2235C138.416 92.0296 138.454 91.8205 138.495 91.5971C138.442 91.6154 138.38 91.6278 138.311 91.6278C138.246 91.6278 138.195 91.6148 138.181 91.6113C138.159 91.6057 138.141 91.5997 138.129 91.5956C138.105 91.5872 138.083 91.5779 138.065 91.5702C138.028 91.5544 137.984 91.5337 137.936 91.5105C137.839 91.4634 137.705 91.3958 137.542 91.3113C137.215 91.1417 136.755 90.8971 136.195 90.5958C135.074 89.9928 133.544 89.1585 131.861 88.2321C128.494 86.3794 124.505 84.1552 121.919 82.6714L121.918 82.6708ZM174.633 104.695C174.633 104.695 174.632 104.695 174.632 104.695L174.633 104.695ZM144.86 136.769C144.861 136.769 144.859 136.765 144.855 136.758C144.858 136.766 144.86 136.77 144.86 136.769ZM144.385 136.676C144.384 136.676 144.383 136.677 144.383 136.677C144.383 136.677 144.384 136.677 144.385 136.676ZM136.598 103.984L136.598 103.985C137.039 104.588 137.388 105.093 137.648 105.506C137.902 105.911 138.09 106.26 138.18 106.544C138.225 106.684 138.262 106.853 138.241 107.025C138.217 107.221 138.119 107.417 137.92 107.541C137.748 107.649 137.56 107.664 137.422 107.66C137.279 107.655 137.128 107.627 136.979 107.588C136.819 107.552 136.2 107.468 135.199 107.349C134.203 107.23 132.866 107.08 131.322 106.915C128.234 106.583 124.322 106.188 120.656 105.85C119.338 105.737 118.07 105.602 117.093 105.481C116.605 105.421 116.187 105.364 115.872 105.314C115.714 105.289 115.578 105.266 115.47 105.244C115.377 105.225 115.264 105.201 115.18 105.167L115.18 105.167L115.174 105.164C115.13 105.146 115.043 105.106 114.965 105.027C114.871 104.932 114.765 104.745 114.829 104.513C114.879 104.335 115.005 104.24 115.049 104.209C115.107 104.168 115.166 104.141 115.209 104.124C115.369 104.059 115.613 104.007 115.889 103.96C116.466 103.861 117.378 103.754 118.564 103.641L118.566 103.641C122.226 103.303 129.633 102.345 131.898 101.925L131.9 101.925L131.914 101.922C132.518 101.813 133.012 101.723 133.42 101.693C133.842 101.663 134.222 101.692 134.589 101.853C134.951 102.012 135.248 102.277 135.548 102.619C135.845 102.958 136.179 103.412 136.598 103.984ZM155.609 111.082L155.612 111.085C159.559 116.175 161.698 118.951 162.633 120.255C162.866 120.58 163.033 120.827 163.136 120.999C163.184 121.08 163.234 121.171 163.265 121.258C163.278 121.294 163.309 121.383 163.305 121.492C163.302 121.552 163.289 121.649 163.227 121.749C163.158 121.859 163.055 121.934 162.943 121.969C162.764 122.025 162.615 121.967 162.581 121.954L162.58 121.954C162.523 121.932 162.475 121.904 162.442 121.883C162.374 121.841 162.3 121.784 162.229 121.727C162.084 121.609 161.897 121.442 161.682 121.245C161.541 121.119 161.315 120.915 161.028 120.656C160.21 119.919 158.894 118.734 157.623 117.608L157.62 117.605C155.922 116.078 153.21 113.563 151.599 112.037L151.596 112.034L148.689 109.24L148.36 108.924L148.645 108.568L149.207 107.865C149.207 107.865 149.208 107.864 149.208 107.864C149.471 107.528 149.774 106.898 149.873 106.49L150.04 105.599L150.228 104.595L150.906 105.359L152.006 106.601L152.008 106.602C152.609 107.286 154.081 109.149 155.408 110.828L155.609 111.082ZM145.979 101.785C146.678 102.07 147.231 102.496 147.606 103.072C147.98 103.645 148.153 104.331 148.153 105.098C148.153 105.829 148.004 106.481 147.669 107.041C147.333 107.602 146.833 108.035 146.189 108.364C145.465 108.741 144.793 108.929 144.102 108.792C143.423 108.657 142.821 108.226 142.191 107.597C141.284 106.69 140.833 105.644 140.95 104.611C141.068 103.576 141.742 102.678 142.826 102.043C143.432 101.685 143.896 101.435 144.397 101.396C144.901 101.357 145.378 101.539 145.979 101.785Z" fill="white" stroke="black"/>
<path d="M80.9279 105.191L80.928 105.191L80.9299 105.197C82.2769 109.319 85.7457 112.072 90.2446 112.56C91.984 112.743 93.2183 113.398 94.5028 114.742C94.9224 115.174 95.2838 115.379 95.511 115.43C95.6181 115.454 95.6597 115.436 95.6637 115.434C95.6658 115.433 95.6686 115.432 95.6738 115.426C95.6778 115.421 95.685 115.412 95.6934 115.395C95.6923 115.387 95.6906 115.377 95.6885 115.366C95.673 115.288 95.6376 115.172 95.577 115.022C95.4571 114.726 95.2616 114.352 95.0214 113.978C94.4853 113.16 94.1438 112.553 94.0751 111.801C94.0089 111.077 94.2019 110.267 94.5351 109.059C95.8283 104.261 93.9275 99.6907 89.4883 97.0916C89.2596 96.9595 88.6318 96.6918 87.7588 96.3519C86.9018 96.0182 85.8494 95.6302 84.8068 95.261C83.7641 94.8918 82.7353 94.5427 81.9253 94.2866C81.5198 94.1583 81.1733 94.0547 80.9093 93.9837C80.8131 93.9578 80.7304 93.9369 80.6613 93.9209C80.6317 93.9804 80.6005 94.0537 80.5717 94.1364C80.5703 94.1445 80.5688 94.1546 80.567 94.1669C80.5629 94.1964 80.5584 94.2346 80.5536 94.2821C80.544 94.3772 80.5342 94.501 80.5245 94.6516C80.5051 94.9525 80.4868 95.3492 80.471 95.8156C80.4395 96.7478 80.4184 97.9486 80.4184 99.1995C80.4184 102.908 80.5071 103.955 80.9279 105.191ZM88.1828 102.905L88.1837 102.907C89.5484 105.011 91.0731 107.991 91.5455 109.612C91.5906 109.76 91.6411 109.932 91.6543 110.067C91.6582 110.106 91.661 110.16 91.6541 110.221C91.6476 110.278 91.6285 110.379 91.5593 110.479C91.4788 110.597 91.3556 110.677 91.215 110.702C91.0938 110.724 90.9933 110.7 90.9375 110.682C90.8304 110.648 90.7405 110.586 90.6859 110.546C90.6214 110.499 90.5513 110.441 90.4778 110.376C90.331 110.247 90.1404 110.065 89.9021 109.834C88.8689 108.858 88.1251 107.939 87.4874 106.678C86.8564 105.431 86.3378 103.866 85.7294 101.616L85.7293 101.616L85.7279 101.61C85.6978 101.494 85.6729 101.382 85.6595 101.285C85.6528 101.236 85.6474 101.18 85.6481 101.122C85.6487 101.072 85.6538 100.979 85.695 100.88C85.7422 100.766 85.856 100.609 86.0709 100.56C86.2504 100.519 86.3935 100.581 86.4523 100.611C86.5729 100.673 86.6706 100.774 86.7321 100.841C87.0028 101.135 87.4728 101.819 88.1828 102.905ZM91.2964 109.753C91.2964 109.753 91.2956 109.752 91.2941 109.751C91.2957 109.752 91.2964 109.753 91.2964 109.753Z" fill="white" stroke="black"/>
<path d="M194.732 109.485L194.732 109.485L194.733 109.489L195.297 111.691L195.35 111.895L195.24 112.075L194.224 113.741L194.224 113.741L194.222 113.744C193.815 114.398 193.581 114.897 193.479 115.241C193.459 115.309 193.445 115.367 193.436 115.414C193.49 115.395 193.557 115.367 193.636 115.327C193.969 115.16 194.433 114.835 195.017 114.32C195.417 113.963 195.797 113.64 196.091 113.404C196.237 113.287 196.367 113.187 196.469 113.115C196.519 113.079 196.571 113.045 196.618 113.017C196.642 113.003 196.673 112.986 196.709 112.971C196.709 112.971 196.71 112.97 196.71 112.97C196.73 112.962 196.803 112.93 196.9 112.925C196.904 112.924 196.914 112.923 196.93 112.92C196.963 112.915 197.011 112.907 197.074 112.896C197.198 112.875 197.371 112.843 197.579 112.802C197.995 112.722 198.549 112.61 199.139 112.483L199.139 112.483L199.144 112.482C201.707 111.959 203.693 111.043 205.185 109.723C206.673 108.405 207.7 106.654 208.3 104.405L208.3 104.403C208.426 103.939 208.523 103.029 208.583 101.881C208.642 100.748 208.662 99.4282 208.646 98.1721C208.631 96.9144 208.579 95.7312 208.496 94.87C208.46 94.4961 208.419 94.1963 208.375 93.9819C208.3 94.0034 208.215 94.0273 208.123 94.0535C207.491 94.2322 206.491 94.5152 205.424 94.825C201.964 95.8476 199.533 96.9605 197.827 98.3458C196.137 99.7179 195.132 101.378 194.563 103.558C194.288 104.631 194.164 105.464 194.187 106.341C194.21 107.223 194.383 108.174 194.732 109.485ZM193.271 115.453C193.271 115.453 193.271 115.453 193.272 115.453L193.271 115.453ZM203.048 103.365L203.048 103.365L203.047 103.368C202.072 106.236 201.022 108.065 199.45 109.578C199.169 109.852 198.944 110.068 198.77 110.225C198.611 110.368 198.448 110.507 198.303 110.579C198.262 110.6 198.2 110.627 198.126 110.641C198.051 110.655 197.932 110.663 197.803 110.609C197.507 110.484 197.474 110.195 197.469 110.122C197.462 110.021 197.478 109.924 197.491 109.859C197.505 109.787 197.525 109.707 197.547 109.627C197.747 108.845 198.301 107.623 198.964 106.373C199.635 105.11 200.444 103.771 201.18 102.746L201.18 102.746L201.185 102.739C201.595 102.188 201.981 101.681 202.272 101.317C202.417 101.137 202.545 100.984 202.644 100.877C202.691 100.826 202.746 100.77 202.8 100.725C202.823 100.706 202.875 100.665 202.945 100.634C202.979 100.619 203.051 100.591 203.145 100.588C203.252 100.585 203.4 100.617 203.52 100.737L203.578 100.794L203.614 100.867C203.656 100.951 203.664 101.027 203.666 101.051C203.669 101.084 203.669 101.113 203.668 101.131C203.667 101.167 203.663 101.2 203.659 101.225C203.651 101.276 203.639 101.337 203.626 101.399C203.598 101.525 203.555 101.694 203.501 101.89C203.392 102.284 203.234 102.807 203.048 103.365Z" fill="white" stroke="black"/>
<path d="M77.1858 121.782C75.4637 119.856 72.7987 118.062 70.2159 117.104C69.2283 116.73 68.4657 116.458 67.935 116.301C67.6732 116.224 67.4445 116.167 67.2644 116.145C67.1777 116.134 67.0687 116.127 66.9601 116.144C66.8685 116.159 66.6347 116.216 66.5151 116.46C66.3991 116.697 66.4896 116.913 66.5285 116.991C66.5765 117.087 66.6439 117.171 66.703 117.237C66.8253 117.373 67.0031 117.53 67.218 117.703C67.653 118.055 68.3149 118.533 69.1895 119.139C70.8257 120.292 72.9323 121.625 74.6585 122.642C75.5215 123.151 76.2961 123.584 76.8733 123.878C77.1598 124.024 77.4093 124.141 77.6012 124.216C77.6944 124.252 77.7939 124.286 77.8866 124.305C77.9314 124.314 77.9985 124.325 78.074 124.321C78.1301 124.318 78.2711 124.304 78.3998 124.197C78.5568 124.071 78.5887 123.898 78.5919 123.809C78.5953 123.717 78.5743 123.642 78.5626 123.605C78.5373 123.526 78.4978 123.451 78.466 123.396C78.3977 123.276 78.2962 123.13 78.1775 122.971C77.9367 122.648 77.5879 122.227 77.1858 121.782ZM77.1858 121.782C77.1855 121.782 77.1852 121.781 77.1849 121.781L76.8139 122.116L77.1858 121.782ZM60.0982 109.684L60.0979 109.684C58.9305 109.865 57.2158 110.222 55.789 110.556C55.0763 110.722 54.4422 110.882 53.9891 111.009C53.9325 111.025 53.8794 111.04 53.8297 111.055C53.9947 111.305 54.219 111.628 54.4701 111.972L54.4722 111.974C54.9921 112.697 56.2419 114.629 57.2061 116.274C61.2136 122.99 62.9802 124.948 65.814 126.232C69.2001 127.734 72.3843 127.956 76.3476 126.91L76.3476 126.91L76.3539 126.909C77.296 126.673 78.7478 126.499 79.6079 126.499H79.6168L79.6258 126.499C80.0058 126.513 80.3737 126.506 80.6499 126.483C80.7045 126.478 80.7535 126.473 80.7969 126.468C80.7967 126.467 80.7966 126.465 80.7965 126.464C80.779 126.281 80.7303 126.031 80.6521 125.757C80.0247 123.674 79.7362 122.376 79.4785 120.258L79.4783 120.256C78.8836 115.283 75.767 111.734 70.4575 110.091C69.6108 109.831 67.6625 109.627 65.5576 109.542C63.4649 109.457 61.3179 109.495 60.0982 109.684ZM78.0848 123.325C78.0862 123.325 78.0858 123.325 78.0837 123.325L78.0848 123.325Z" fill="white" stroke="black"/>
<path d="M219.861 109.85L219.861 109.85L219.855 109.851C218.501 110.108 216.966 110.675 215.588 111.385C214.203 112.098 213.023 112.932 212.347 113.698L212.347 113.698L212.345 113.701C210.509 115.753 209.612 117.931 209.338 121.199L209.338 121.199L209.337 121.202C209.265 121.993 209.15 122.813 209.024 123.495C208.961 123.836 208.894 124.147 208.827 124.405C208.763 124.653 208.691 124.884 208.61 125.048C208.413 125.449 208.308 125.773 208.272 126.018C208.236 126.267 208.276 126.389 208.307 126.439C208.328 126.473 208.374 126.526 208.528 126.551C208.695 126.578 208.955 126.563 209.327 126.46L209.327 126.46L209.332 126.459C209.515 126.41 209.742 126.405 209.964 126.415C210.198 126.425 210.476 126.455 210.783 126.501C211.397 126.592 212.156 126.752 212.973 126.967C215.942 127.736 219.121 127.704 221.648 126.944C224.676 126.005 227.721 123.266 229.939 119.385L229.94 119.383C230.481 118.444 231.952 116.012 233.224 114.004C233.858 112.99 234.42 112.076 234.817 111.416C234.924 111.238 235.019 111.079 235.099 110.942C234.789 110.866 234.395 110.767 233.977 110.663L233.977 110.663L233.97 110.661C229.369 109.434 223.522 109.106 219.861 109.85ZM220.323 118.834L220.323 118.834C218.636 119.968 216.477 121.334 214.698 122.416C213.808 122.958 213.01 123.43 212.412 123.768C212.113 123.937 211.859 124.075 211.665 124.172C211.57 124.22 211.482 124.261 211.408 124.292C211.371 124.307 211.33 124.323 211.289 124.335C211.26 124.344 211.186 124.366 211.097 124.366C210.962 124.366 210.795 124.316 210.672 124.168C210.566 124.04 210.546 123.899 210.543 123.823C210.537 123.675 210.582 123.536 210.616 123.448C210.692 123.248 210.829 123.007 210.996 122.764L210.996 122.764L211 122.758C212.087 121.23 214.203 119.345 215.736 118.49L215.736 118.49L215.743 118.487C216.51 118.074 217.964 117.478 219.304 116.987C219.978 116.739 220.633 116.515 221.171 116.35C221.44 116.267 221.684 116.198 221.888 116.148C222.075 116.103 222.261 116.065 222.408 116.057C222.443 116.055 222.492 116.054 222.547 116.064C222.62 116.077 222.748 116.116 222.851 116.237C222.961 116.367 222.979 116.514 222.971 116.611C222.964 116.7 222.936 116.767 222.919 116.801C222.866 116.914 222.773 117.005 222.733 117.045L222.732 117.045C222.618 117.158 222.437 117.309 222.218 117.48C221.772 117.828 221.105 118.308 220.323 118.834ZM211.538 123.841C211.538 123.841 211.539 123.84 211.539 123.839L211.538 123.841ZM222.058 116.304C222.058 116.304 222.057 116.305 222.055 116.307C222.057 116.305 222.058 116.304 222.058 116.304Z" fill="white" stroke="black"/>
<path d="M84.7836 119.678C84.8534 119.664 84.9387 119.651 85.0393 119.638C85.3811 119.596 85.8466 119.568 86.3531 119.568C95.3949 119.568 101.373 123.692 102.284 130.116C102.58 132.272 102.318 134.278 101.318 137.251C101.119 137.82 100.94 138.369 100.811 138.796C100.747 139.009 100.694 139.195 100.656 139.339C100.638 139.41 100.622 139.476 100.61 139.531C100.602 139.571 100.585 139.651 100.585 139.727C100.585 139.859 100.636 139.968 100.651 140L100.652 140.003C100.677 140.056 100.707 140.11 100.738 140.16C100.8 140.261 100.884 140.382 100.98 140.512C101.174 140.773 101.439 141.096 101.731 141.418M84.7836 119.678L84.4622 122.907C84.2929 121.072 84.2364 119.435 84.3211 119.322C84.4058 119.181 85.3089 119.068 86.3531 119.068C95.5255 119.068 101.819 123.273 102.779 130.047C103.089 132.305 102.807 134.393 101.791 137.413C101.396 138.542 101.085 139.586 101.085 139.727C101.085 139.84 101.537 140.461 102.101 141.082C103.146 142.239 103.258 142.916 102.44 143.453M84.7836 119.678C84.7836 119.679 84.7835 119.681 84.7835 119.682C84.7798 119.866 84.7839 120.128 84.796 120.45C84.8203 121.092 84.8761 121.951 84.9601 122.861L84.9604 122.864C85.5711 129.943 88.3353 135.124 93.1797 138.409M84.7836 119.678L93.1797 138.409M101.731 141.418C101.731 141.418 101.731 141.418 101.731 141.418L102.101 141.082L101.73 141.417C101.73 141.417 101.731 141.417 101.731 141.418ZM101.731 141.418C102.248 141.991 102.442 142.353 102.475 142.573C102.488 142.661 102.474 142.72 102.443 142.774C102.408 142.837 102.333 142.923 102.177 143.027M102.177 143.027C102.178 143.027 102.179 143.027 102.179 143.027M102.177 143.027C102.165 143.029 102.14 143.031 102.093 143.025C101.978 143.013 101.792 142.964 101.49 142.846C100.887 142.61 99.9513 142.15 98.4364 141.372C96.3794 140.301 94.0036 138.958 93.1797 138.409M102.177 143.027C102.173 143.03 102.17 143.032 102.166 143.034L102.44 143.453M102.179 143.027C102.182 143.026 102.184 143.025 102.184 143.026C102.184 143.026 102.183 143.026 102.179 143.027ZM102.179 143.027C102.177 143.028 102.174 143.03 102.17 143.032L102.44 143.453M102.44 143.453C102.045 143.707 101.226 143.368 98.2066 141.816C96.1464 140.743 93.7475 139.389 92.9008 138.824L93.1797 138.409M93.7064 128.622L93.7068 128.622C95.7727 132.415 96.4597 133.816 97.6549 136.804L97.6549 136.804L97.658 136.812L98.1942 138.223L97.3768 138.758L95.9375 137.347L95.9366 137.346C93.9886 135.427 92.9305 133.721 92.0593 131.079C91.7149 130.046 91.3022 128.55 90.9972 127.316C90.8446 126.699 90.7171 126.139 90.638 125.73C90.599 125.528 90.5693 125.351 90.5556 125.217C90.5492 125.156 90.5434 125.077 90.5488 125.003C90.551 124.972 90.5577 124.896 90.5929 124.812C90.6247 124.737 90.7575 124.495 91.0663 124.495C91.2098 124.495 91.3087 124.557 91.3322 124.571C91.3693 124.595 91.3953 124.618 91.4075 124.629C91.4329 124.652 91.4507 124.674 91.4575 124.682C91.4735 124.701 91.4865 124.72 91.4934 124.73C91.5094 124.753 91.5271 124.78 91.5446 124.808C91.5807 124.865 91.6298 124.946 91.6891 125.046C91.8084 125.246 91.9757 125.534 92.1775 125.886C92.5813 126.591 93.1262 127.56 93.7064 128.622ZM90.672 125.3C90.672 125.3 90.6722 125.3 90.6727 125.301C90.6726 125.301 90.6726 125.301 90.6725 125.301C90.6722 125.3 90.672 125.3 90.672 125.3Z" fill="white" stroke="black"/>
<path d="M198.255 119.984L198.255 119.985C192.532 120.952 188.931 123.552 187.319 127.633C186.845 128.846 186.733 129.706 186.705 131.913C186.705 133.136 186.734 133.882 186.853 134.588C186.972 135.294 187.185 135.978 187.579 137.075L187.579 137.075L187.58 137.079L188.455 139.591L188.54 139.833L188.392 140.043L187.859 140.8C187.561 141.246 187.084 141.79 186.775 142.034C186.492 142.278 186.474 142.7 186.811 142.987L186.811 142.987C186.819 142.994 186.864 143.024 187.026 143.008C187.225 142.988 187.532 142.906 188.012 142.713C188.966 142.33 190.451 141.576 192.826 140.303C196.521 138.303 199.222 135.916 201.053 132.995C202.885 130.074 203.87 126.585 204.078 122.346L204.078 122.345L204.221 119.575L202.529 119.596C202.528 119.596 202.527 119.596 202.527 119.596C201.332 119.624 199.383 119.792 198.255 119.984ZM197.624 125.173C197.624 125.173 197.624 125.174 197.623 125.176C197.624 125.176 197.624 125.175 197.624 125.175C197.624 125.174 197.624 125.173 197.624 125.173ZM192.663 133.823L192.663 133.822C193.167 132.698 194.384 130.416 195.488 128.448C196.041 127.461 196.571 126.545 196.975 125.884C197.176 125.555 197.35 125.281 197.483 125.092C197.547 125.001 197.612 124.913 197.672 124.848C197.697 124.82 197.747 124.767 197.813 124.723C197.844 124.703 197.918 124.658 198.021 124.64C198.134 124.621 198.288 124.637 198.421 124.741C198.521 124.818 198.566 124.912 198.581 124.951C198.606 125.009 198.614 125.06 198.618 125.086C198.625 125.139 198.624 125.188 198.623 125.216C198.62 125.277 198.612 125.348 198.602 125.417C198.581 125.559 198.545 125.751 198.499 125.975C198.405 126.425 198.262 127.032 198.092 127.686C197.006 132.141 195.59 135 193.191 137.4C192.85 137.74 192.536 138.048 192.298 138.271C192.179 138.382 192.075 138.477 191.995 138.546C191.955 138.579 191.914 138.613 191.876 138.641C191.857 138.654 191.83 138.673 191.797 138.691C191.781 138.7 191.755 138.713 191.722 138.726C191.696 138.736 191.628 138.76 191.539 138.76C191.403 138.76 191.269 138.706 191.17 138.605C191.083 138.518 191.049 138.422 191.035 138.368C191.007 138.265 191.014 138.171 191.017 138.128C191.027 138.026 191.055 137.908 191.085 137.795C191.15 137.56 191.261 137.233 191.406 136.847C191.696 136.068 192.138 135 192.663 133.823Z" fill="white" stroke="black"/>
<path d="M78.0967 135.038L78.0933 135.039C76.0119 135.697 74.3984 136.569 72.4626 138.063C71.4783 138.825 70.1866 139.963 69.1401 140.96C68.6168 141.459 68.1614 141.917 67.8396 142.27C67.7278 142.393 67.6356 142.499 67.5639 142.588C67.6502 142.649 67.759 142.721 67.8903 142.804C68.3055 143.064 68.8973 143.395 69.5868 143.753C70.9645 144.47 72.6973 145.28 74.1164 145.837C80.6631 148.361 86.6446 147.249 89.5624 143.27L89.5624 143.27L89.5671 143.264C89.9285 142.786 90.2599 142.411 90.5768 142.152C90.8924 141.894 91.2421 141.711 91.6308 141.711C91.715 141.711 91.8512 141.683 91.9926 141.622C92.1391 141.558 92.2246 141.488 92.2521 141.452L92.2521 141.452L92.2563 141.447C92.2757 141.423 92.2894 141.404 92.2991 141.39C92.2647 141.334 92.1932 141.242 92.0509 141.096C91.8994 140.941 91.6918 140.748 91.4113 140.496C90.6793 139.851 89.6622 138.72 89.1533 137.943C88.2066 136.523 86.6983 135.433 84.9667 134.9C84.1332 134.653 82.8796 134.534 81.5787 134.558C80.2783 134.582 78.9917 134.749 78.0967 135.038ZM91.7437 140.122V140.122ZM67.4071 142.807C67.4074 142.807 67.4092 142.803 67.4119 142.797C67.4082 142.804 67.4068 142.807 67.4071 142.807ZM80.2228 140.636C80.2228 140.636 80.2234 140.636 80.2248 140.637C80.2235 140.636 80.2228 140.636 80.2228 140.636ZM80.9304 139.992L80.9304 139.992L80.9348 139.99C84.2716 138.793 86.7053 138.47 88.9139 139.104C89.025 139.134 89.1394 139.169 89.237 139.215C89.3052 139.247 89.5138 139.348 89.5975 139.585C89.7032 139.885 89.53 140.112 89.4582 140.19C89.3775 140.278 89.2748 140.349 89.1912 140.402C88.7788 140.668 88.1124 140.895 87.3737 141.083C86.6168 141.277 85.7263 141.443 84.8266 141.567C83.9267 141.69 83.0087 141.772 82.196 141.795C81.3951 141.817 80.6562 141.782 80.1358 141.652C80.0599 141.633 79.9835 141.612 79.9145 141.588C79.8537 141.567 79.7601 141.531 79.6746 141.469C79.5921 141.409 79.4109 141.241 79.4367 140.962C79.4579 140.732 79.6121 140.598 79.664 140.555C79.7888 140.452 79.9743 140.367 80.1503 140.293C80.346 140.211 80.606 140.112 80.9304 139.992Z" fill="white" stroke="black"/>
<path d="M200.898 137.338L200.897 137.339C200.305 138.044 199.227 139.32 198.487 140.146L198.481 140.152L198.475 140.159C198.111 140.536 197.789 140.932 197.562 141.258C197.448 141.422 197.363 141.561 197.308 141.665C197.29 141.702 197.276 141.73 197.268 141.752C197.288 141.756 197.313 141.761 197.342 141.766C197.467 141.786 197.637 141.804 197.877 141.826L197.89 141.827L197.903 141.829C198.013 141.844 198.105 141.888 198.161 141.918C198.224 141.952 198.286 141.993 198.343 142.035C198.457 142.118 198.583 142.227 198.712 142.348C198.969 142.59 199.266 142.909 199.545 143.247L199.545 143.247L199.551 143.255C200.658 144.649 201.799 145.608 203.12 146.224C204.444 146.841 205.982 147.13 207.908 147.13C211.666 147.13 215.447 146.007 219.737 143.528L219.738 143.528L221.391 142.573L220.896 142.049C220.896 142.048 220.895 142.048 220.895 142.047C218.379 139.42 215.153 136.897 212.968 135.831C211.879 135.308 211.266 135.041 210.644 134.885C210.024 134.73 209.374 134.681 208.2 134.639L208.2 134.639L208.193 134.638C206.58 134.555 205.326 134.67 204.675 134.869C203.739 135.186 203.065 135.487 202.495 135.859C201.926 136.231 201.44 136.687 200.898 137.338ZM208.052 139.841L208.052 139.841L208.057 139.843L210.315 140.548L210.237 141.52L208.856 141.718C207.674 141.899 205.452 141.739 203.567 141.464C202.615 141.325 201.719 141.152 201.053 140.967C200.723 140.875 200.428 140.774 200.205 140.664C200.096 140.609 199.978 140.54 199.881 140.45C199.791 140.368 199.647 140.201 199.647 139.953C199.647 139.565 199.94 139.352 200.127 139.258C200.33 139.155 200.585 139.093 200.846 139.052C201.379 138.969 202.097 138.954 202.887 138.991C204.472 139.067 206.454 139.362 208.052 139.841Z" fill="white" stroke="black"/>
<mask id="path-16-inside-2_26_117" fill="white">
<path d="M119.007 140.574C118.583 141.195 118.612 141.251 119.204 141.646C119.543 141.872 121.293 143.396 123.043 145.033C130.324 151.778 134.586 158.241 137.351 166.765C139.355 173.002 139.525 174.272 139.666 184.968C139.75 190.246 139.722 196.37 139.609 198.6L139.412 202.636L138.311 200.745C134.219 193.745 126.57 186.012 117.737 179.944C113.983 177.376 110.766 175.485 104.895 172.324C99.8436 169.643 87.2845 163.519 87.1434 163.716C87.0869 163.773 86.9458 164.732 86.7765 165.861C86.5507 167.639 86.5789 167.95 86.9458 168.176C87.1998 168.289 89.2036 169.163 91.405 170.123C99.2509 173.482 109.693 178.957 114.773 182.372C120.503 186.238 126.175 191.121 129.929 195.382C132.159 197.922 136.251 203.821 137.493 206.276C138.593 208.449 140.908 213.981 140.766 214.094C140.682 214.179 140.202 213.36 139.666 212.316C136.956 207.01 133.852 202.861 128.631 197.64C122.027 191.064 114.858 185.984 104.444 180.537C99.8718 178.138 81.9786 170.179 80.1441 169.728C79.6361 169.587 79.0999 169.925 77.6606 171.252C76.4752 172.324 75.9107 173.002 76.1083 173.199C76.2776 173.34 77.4065 173.877 78.6483 174.385C83.1357 176.191 86.8894 177.856 89.5141 179.211C92.3363 180.65 98.2349 184.404 97.2753 184.15C96.9648 184.065 91.1792 182.174 84.434 179.888L72.1571 175.796L70.6331 177.348C69.7864 178.195 69.1373 178.928 69.1938 178.985C69.2784 179.013 72.1289 179.86 75.5439 180.819C78.9588 181.807 83.4744 183.105 85.5629 183.726C87.6514 184.347 91.8001 185.561 94.7353 186.407C108.169 190.302 113.927 192.899 121.829 198.571C126.655 202.015 129.195 204.188 131.876 207.179C135.771 211.526 135.799 211.639 132.13 208.082C124.03 200.237 116.58 196.144 101.085 191.036C93.2677 188.44 85.6476 186.436 69.3913 182.682L66.0893 181.92L64.537 183.585C63.6903 184.488 63.013 185.307 62.9848 185.391C62.9848 185.476 64.6781 185.899 66.7384 186.351C93.0983 191.939 105.121 195.495 116.749 201.196C120.954 203.256 127.05 206.671 127.05 206.982C127.05 207.066 126.288 206.756 125.385 206.276C121.406 204.272 115.705 201.93 111.387 200.519C99.1662 196.568 80.3699 191.516 67.6415 188.778L61.1503 187.395L60.0778 188.44C59.4852 189.004 58.4409 190.218 57.7354 191.092L56.4936 192.701L57.9894 193.124C58.8078 193.35 61.6301 194.112 64.2548 194.818C68.6293 195.947 85.2524 200.519 87.482 201.168C88.3287 201.422 88.5827 201.365 89.8245 200.519L91.1792 199.559L94.9893 200.349C104.529 202.382 113.87 205.091 120.982 207.885C124.905 209.437 130.042 211.864 129.816 212.062C129.76 212.118 128.32 211.751 126.627 211.243C112.431 206.897 99.9847 203.595 92.8726 202.297L91.0099 201.958L88.8085 203.454L86.6354 204.978L88.6956 205.514C92.2799 206.446 110.088 211.554 113.475 212.626C123.522 215.759 136.646 220.5 136.646 220.952C136.646 221.601 134.67 223.661 132.977 224.79C131.876 225.524 131.001 226.201 131.001 226.314C131.001 226.427 131.481 226.851 132.074 227.217C134.049 228.572 137.662 232.185 139.158 234.33C140.879 236.841 142.319 239.805 143.56 243.502L144.435 246.155L145.226 243.784C147.568 236.813 151.039 231.648 155.809 228.008C156.91 227.161 157.813 226.427 157.813 226.343C157.813 226.23 157.164 225.75 156.402 225.214C154.596 223.972 153.128 222.561 152.592 221.516L152.168 220.698L155.216 219.513C163.796 216.154 192.978 207.123 201.389 205.232L202.518 204.978L200.147 203.482L197.776 201.958L195.377 202.438C188.604 203.821 170.852 208.59 160.861 211.751C159.647 212.118 158.66 212.372 158.66 212.316C158.66 212.034 165.207 208.986 168.82 207.603C175.537 205.034 185.838 202.071 194.418 200.237L197.607 199.559L198.877 200.378C199.582 200.829 200.344 201.196 200.598 201.196C200.824 201.196 206.553 199.672 213.355 197.838C220.129 195.975 227.128 194.084 228.878 193.632C230.627 193.153 232.151 192.701 232.236 192.616C232.405 192.447 231.361 191.149 229.16 188.694L227.946 187.339L220.891 188.919C208.896 191.629 199.639 194.056 187.531 197.697C174.662 201.563 170.711 202.974 165.377 205.571C163.373 206.53 161.764 207.292 161.764 207.236C161.764 207.179 163.006 206.333 164.53 205.317C173.956 199.079 187.785 194.14 210.363 188.919C214.343 187.988 222.923 186.125 225.265 185.702L226.253 185.504L224.418 183.642L222.584 181.779L210.589 184.827C195.405 188.665 189.704 190.33 182.084 193.068C177.484 194.733 171.868 197.189 169.384 198.6C164.615 201.309 159.026 205.684 155.301 209.607C153.862 211.131 153.692 211.243 154.426 210.227C155.612 208.619 161.623 202.664 164.191 200.603C169.666 196.144 176.779 192.221 184.201 189.568C185.923 188.948 192.216 187 198.2 185.222C204.183 183.472 210.476 181.581 212.17 181.045C213.863 180.537 216.234 179.86 217.447 179.578C218.633 179.267 219.592 178.9 219.564 178.759C219.508 178.59 218.802 177.856 218.012 177.094L216.544 175.739L213.073 176.925C211.154 177.574 206.695 179.098 203.11 180.311C199.554 181.525 195.547 182.908 194.22 183.416C192.865 183.896 192.019 184.121 192.245 183.896C193.232 182.936 198.397 179.634 200.711 178.477C203.505 177.066 212.367 173.256 212.819 173.256C213.44 173.256 213.101 172.804 211.267 171.167L209.432 169.53L208.388 169.954C197.268 174.498 193.543 176.134 188.858 178.364C172.404 186.295 162.3 193.886 154.567 204.16C152.817 206.502 150.503 210.199 149.205 212.767C148.104 214.941 147.766 215.307 148.33 213.671C151.378 205.204 155.442 198.995 162.441 192.024C169.328 185.166 175.452 180.904 186.459 175.316C189.874 173.594 194.841 171.252 197.466 170.151C200.119 169.022 202.32 168.063 202.348 168.006C202.518 167.893 202.094 164.337 201.868 163.97C201.53 163.462 187.08 170.433 179.262 174.893C166.788 182.005 157.982 189.851 151.265 199.785L149.431 202.494L149.233 191.318C149.007 176.755 149.346 173.228 151.632 166.539C154.511 158.241 159.393 150.875 166.082 144.864C167.183 143.848 168.65 142.662 169.3 142.267C170.626 141.421 170.739 141.11 170.005 140.433C169.554 140.009 169.158 140.151 164.445 142.493C158.97 145.174 157.079 146.557 154.003 150.113C150.136 154.544 146.58 161.205 144.633 167.611C144.576 167.837 144.125 166.877 143.673 165.494C141.557 159.201 137.464 152.371 133.175 148.053C130.634 145.485 130.465 145.372 125.159 142.691C122.196 141.195 119.684 139.953 119.599 139.953C119.543 139.953 119.261 140.235 119.007 140.574Z"/>
</mask>
<path d="M119.007 140.574C118.583 141.195 118.612 141.251 119.204 141.646C119.543 141.872 121.293 143.396 123.043 145.033C130.324 151.778 134.586 158.241 137.351 166.765C139.355 173.002 139.525 174.272 139.666 184.968C139.75 190.246 139.722 196.37 139.609 198.6L139.412 202.636L138.311 200.745C134.219 193.745 126.57 186.012 117.737 179.944C113.983 177.376 110.766 175.485 104.895 172.324C99.8436 169.643 87.2845 163.519 87.1434 163.716C87.0869 163.773 86.9458 164.732 86.7765 165.861C86.5507 167.639 86.5789 167.95 86.9458 168.176C87.1998 168.289 89.2036 169.163 91.405 170.123C99.2509 173.482 109.693 178.957 114.773 182.372C120.503 186.238 126.175 191.121 129.929 195.382C132.159 197.922 136.251 203.821 137.493 206.276C138.593 208.449 140.908 213.981 140.766 214.094C140.682 214.179 140.202 213.36 139.666 212.316C136.956 207.01 133.852 202.861 128.631 197.64C122.027 191.064 114.858 185.984 104.444 180.537C99.8718 178.138 81.9786 170.179 80.1441 169.728C79.6361 169.587 79.0999 169.925 77.6606 171.252C76.4752 172.324 75.9107 173.002 76.1083 173.199C76.2776 173.34 77.4065 173.877 78.6483 174.385C83.1357 176.191 86.8894 177.856 89.5141 179.211C92.3363 180.65 98.2349 184.404 97.2753 184.15C96.9648 184.065 91.1792 182.174 84.434 179.888L72.1571 175.796L70.6331 177.348C69.7864 178.195 69.1373 178.928 69.1938 178.985C69.2784 179.013 72.1289 179.86 75.5439 180.819C78.9588 181.807 83.4744 183.105 85.5629 183.726C87.6514 184.347 91.8001 185.561 94.7353 186.407C108.169 190.302 113.927 192.899 121.829 198.571C126.655 202.015 129.195 204.188 131.876 207.179C135.771 211.526 135.799 211.639 132.13 208.082C124.03 200.237 116.58 196.144 101.085 191.036C93.2677 188.44 85.6476 186.436 69.3913 182.682L66.0893 181.92L64.537 183.585C63.6903 184.488 63.013 185.307 62.9848 185.391C62.9848 185.476 64.6781 185.899 66.7384 186.351C93.0983 191.939 105.121 195.495 116.749 201.196C120.954 203.256 127.05 206.671 127.05 206.982C127.05 207.066 126.288 206.756 125.385 206.276C121.406 204.272 115.705 201.93 111.387 200.519C99.1662 196.568 80.3699 191.516 67.6415 188.778L61.1503 187.395L60.0778 188.44C59.4852 189.004 58.4409 190.218 57.7354 191.092L56.4936 192.701L57.9894 193.124C58.8078 193.35 61.6301 194.112 64.2548 194.818C68.6293 195.947 85.2524 200.519 87.482 201.168C88.3287 201.422 88.5827 201.365 89.8245 200.519L91.1792 199.559L94.9893 200.349C104.529 202.382 113.87 205.091 120.982 207.885C124.905 209.437 130.042 211.864 129.816 212.062C129.76 212.118 128.32 211.751 126.627 211.243C112.431 206.897 99.9847 203.595 92.8726 202.297L91.0099 201.958L88.8085 203.454L86.6354 204.978L88.6956 205.514C92.2799 206.446 110.088 211.554 113.475 212.626C123.522 215.759 136.646 220.5 136.646 220.952C136.646 221.601 134.67 223.661 132.977 224.79C131.876 225.524 131.001 226.201 131.001 226.314C131.001 226.427 131.481 226.851 132.074 227.217C134.049 228.572 137.662 232.185 139.158 234.33C140.879 236.841 142.319 239.805 143.56 243.502L144.435 246.155L145.226 243.784C147.568 236.813 151.039 231.648 155.809 228.008C156.91 227.161 157.813 226.427 157.813 226.343C157.813 226.23 157.164 225.75 156.402 225.214C154.596 223.972 153.128 222.561 152.592 221.516L152.168 220.698L155.216 219.513C163.796 216.154 192.978 207.123 201.389 205.232L202.518 204.978L200.147 203.482L197.776 201.958L195.377 202.438C188.604 203.821 170.852 208.59 160.861 211.751C159.647 212.118 158.66 212.372 158.66 212.316C158.66 212.034 165.207 208.986 168.82 207.603C175.537 205.034 185.838 202.071 194.418 200.237L197.607 199.559L198.877 200.378C199.582 200.829 200.344 201.196 200.598 201.196C200.824 201.196 206.553 199.672 213.355 197.838C220.129 195.975 227.128 194.084 228.878 193.632C230.627 193.153 232.151 192.701 232.236 192.616C232.405 192.447 231.361 191.149 229.16 188.694L227.946 187.339L220.891 188.919C208.896 191.629 199.639 194.056 187.531 197.697C174.662 201.563 170.711 202.974 165.377 205.571C163.373 206.53 161.764 207.292 161.764 207.236C161.764 207.179 163.006 206.333 164.53 205.317C173.956 199.079 187.785 194.14 210.363 188.919C214.343 187.988 222.923 186.125 225.265 185.702L226.253 185.504L224.418 183.642L222.584 181.779L210.589 184.827C195.405 188.665 189.704 190.33 182.084 193.068C177.484 194.733 171.868 197.189 169.384 198.6C164.615 201.309 159.026 205.684 155.301 209.607C153.862 211.131 153.692 211.243 154.426 210.227C155.612 208.619 161.623 202.664 164.191 200.603C169.666 196.144 176.779 192.221 184.201 189.568C185.923 188.948 192.216 187 198.2 185.222C204.183 183.472 210.476 181.581 212.17 181.045C213.863 180.537 216.234 179.86 217.447 179.578C218.633 179.267 219.592 178.9 219.564 178.759C219.508 178.59 218.802 177.856 218.012 177.094L216.544 175.739L213.073 176.925C211.154 177.574 206.695 179.098 203.11 180.311C199.554 181.525 195.547 182.908 194.22 183.416C192.865 183.896 192.019 184.121 192.245 183.896C193.232 182.936 198.397 179.634 200.711 178.477C203.505 177.066 212.367 173.256 212.819 173.256C213.44 173.256 213.101 172.804 211.267 171.167L209.432 169.53L208.388 169.954C197.268 174.498 193.543 176.134 188.858 178.364C172.404 186.295 162.3 193.886 154.567 204.16C152.817 206.502 150.503 210.199 149.205 212.767C148.104 214.941 147.766 215.307 148.33 213.671C151.378 205.204 155.442 198.995 162.441 192.024C169.328 185.166 175.452 180.904 186.459 175.316C189.874 173.594 194.841 171.252 197.466 170.151C200.119 169.022 202.32 168.063 202.348 168.006C202.518 167.893 202.094 164.337 201.868 163.97C201.53 163.462 187.08 170.433 179.262 174.893C166.788 182.005 157.982 189.851 151.265 199.785L149.431 202.494L149.233 191.318C149.007 176.755 149.346 173.228 151.632 166.539C154.511 158.241 159.393 150.875 166.082 144.864C167.183 143.848 168.65 142.662 169.3 142.267C170.626 141.421 170.739 141.11 170.005 140.433C169.554 140.009 169.158 140.151 164.445 142.493C158.97 145.174 157.079 146.557 154.003 150.113C150.136 154.544 146.58 161.205 144.633 167.611C144.576 167.837 144.125 166.877 143.673 165.494C141.557 159.201 137.464 152.371 133.175 148.053C130.634 145.485 130.465 145.372 125.159 142.691C122.196 141.195 119.684 139.953 119.599 139.953C119.543 139.953 119.261 140.235 119.007 140.574Z" fill="white" stroke="black" stroke-width="2" mask="url(#path-16-inside-2_26_117)"/>
<path d="M123.29 157.231L123.291 157.23C123.877 156.672 124.369 156.259 124.796 155.983C125.219 155.71 125.627 155.54 126.034 155.54C126.172 155.54 126.301 155.507 126.397 155.46C126.449 155.435 126.479 155.411 126.495 155.397C126.495 155.36 126.491 155.275 126.454 155.128C126.404 154.929 126.313 154.69 126.195 154.45C126.078 154.211 125.943 153.988 125.812 153.818C125.746 153.734 125.687 153.669 125.638 153.624C125.595 153.585 125.571 153.572 125.566 153.569C125.566 153.569 125.566 153.569 125.566 153.569L125.566 153.569L125.555 153.564C125.446 153.518 125.363 153.444 125.316 153.399C125.26 153.345 125.207 153.283 125.156 153.22C125.054 153.092 124.943 152.93 124.83 152.748C124.602 152.382 124.345 151.904 124.112 151.393L124.111 151.391C122.366 147.527 118.045 144.915 113.427 144.997L113.427 144.997H113.419C112.655 144.997 110.976 145.241 109.656 145.522C108.348 145.8 106.536 146.302 105.654 146.606C104.534 147.007 102.255 148.006 100.242 148.944C99.2373 149.411 98.3077 149.86 97.6315 150.206C97.3894 150.33 97.1832 150.439 97.0193 150.53C97.1507 150.658 97.3188 150.814 97.5198 150.992C98.0688 151.481 98.8351 152.119 99.6946 152.81C101.414 154.192 103.483 155.763 104.894 156.727C109.543 159.844 113.197 160.882 117.038 160.287C119.595 159.879 121.476 158.964 123.29 157.231ZM122.152 152.473L122.152 152.473L122.165 152.476C122.612 152.577 123.018 152.688 123.313 152.799C123.455 152.852 123.601 152.915 123.716 152.991C123.77 153.027 123.854 153.089 123.921 153.185C123.995 153.29 124.077 153.488 123.987 153.714L123.97 153.755L123.946 153.793C123.874 153.909 123.775 153.985 123.706 154.031C123.63 154.082 123.545 154.125 123.461 154.162C123.293 154.237 123.084 154.307 122.854 154.372C122.39 154.503 121.786 154.63 121.125 154.741C119.805 154.963 118.21 155.129 116.975 155.129C115.585 155.129 113.298 154.899 111.863 154.641L111.862 154.641C111.242 154.528 110.768 154.441 110.426 154.369C110.255 154.334 110.111 154.301 109.994 154.27C109.886 154.241 109.77 154.206 109.674 154.157C109.632 154.135 109.543 154.086 109.468 153.996C109.373 153.88 109.295 153.678 109.385 153.458C109.451 153.296 109.575 153.216 109.618 153.19C109.675 153.155 109.733 153.131 109.775 153.116C109.931 153.059 110.18 153.007 110.437 152.954C112.25 152.566 114.515 152.317 116.647 152.228C118.773 152.139 120.809 152.208 122.152 152.473ZM123.157 153.195C123.157 153.195 123.156 153.195 123.154 153.197C123.156 153.196 123.157 153.195 123.157 153.195ZM123.164 153.825C123.164 153.825 123.163 153.825 123.163 153.824L123.164 153.825Z" fill="white" stroke="black"/>
<path d="M172.636 155.185L172.637 155.185C173.657 155.171 175.312 154.998 176.742 154.788C177.458 154.683 178.13 154.568 178.646 154.455C178.903 154.4 179.13 154.342 179.31 154.285C179.399 154.257 179.486 154.226 179.562 154.19C179.624 154.162 179.736 154.106 179.827 154.009C179.827 154.008 179.828 154.008 179.828 154.007L179.46 153.669L172.636 155.185ZM172.636 155.185C171.434 155.2 169.671 154.997 168.218 154.74C167.49 154.612 166.823 154.467 166.331 154.324C166.088 154.253 165.868 154.178 165.7 154.097C165.619 154.058 165.524 154.005 165.443 153.936C165.379 153.881 165.215 153.726 165.215 153.472C165.215 153.189 165.397 153.012 165.509 152.929C165.628 152.841 165.771 152.779 165.905 152.732C166.179 152.638 166.547 152.564 166.965 152.505C167.811 152.385 168.965 152.312 170.232 152.287C172.762 152.238 175.817 152.378 177.882 152.753L172.636 155.185ZM172.117 145.373L172.114 145.374C171.317 145.594 170.279 145.978 169.807 146.213C168.66 146.801 167.538 147.717 166.632 148.758C165.723 149.804 165.058 150.944 164.787 151.963L164.787 151.963L164.787 151.966C164.598 152.656 164.169 153.328 163.584 153.587C163.534 153.613 163.424 153.704 163.28 153.904C163.141 154.096 163.005 154.342 162.893 154.599C162.781 154.857 162.702 155.108 162.667 155.309C162.656 155.375 162.65 155.429 162.648 155.473C162.66 155.476 162.673 155.479 162.686 155.483C162.828 155.516 163.016 155.54 163.203 155.54C164.082 155.54 164.752 156.035 165.843 157.126C167.869 159.152 170.149 160.146 173.076 160.282L173.077 160.282C178.182 160.526 182.203 158.634 190.03 152.046C190.619 151.541 191.157 151.067 191.544 150.706C191.629 150.628 191.705 150.556 191.773 150.491C191.69 150.444 191.595 150.393 191.491 150.337C191 150.074 190.311 149.727 189.525 149.346C187.954 148.583 186.016 147.692 184.546 147.075C182.357 146.175 179.957 145.544 177.741 145.243C175.515 144.94 173.518 144.976 172.117 145.373ZM179.201 154.077C179.201 154.077 179.201 154.077 179.2 154.076L179.201 154.077ZM179.161 153.274C179.161 153.274 179.158 153.275 179.155 153.277C179.159 153.275 179.161 153.274 179.161 153.274Z" fill="white" stroke="black"/>
</svg>
