<svg width="831" height="831" viewBox="0 0 831 831" fill="none" xmlns="http://www.w3.org/2000/svg">
<path d="M413.093 84.7304C411.714 86.0288 303.943 143.079 278.948 155.82C273.024 158.822 268.236 161.338 268.399 161.5C268.561 161.663 276.838 165.558 286.901 170.265C296.964 174.972 312.627 182.357 321.797 186.658C330.967 191.04 351.417 200.616 367.242 207.92C383.067 215.304 400.352 223.339 405.627 225.773L415.203 230.237L420.64 227.64C423.643 226.179 431.028 222.689 437.033 219.93C443.038 217.171 453.994 212.058 461.379 208.569C468.764 205.16 482.965 198.587 493.028 193.961C512.667 185.035 525.489 178.948 525.489 178.542C525.489 178.38 522.649 177.65 519.24 176.919C515.751 176.189 498.709 172.294 481.261 168.236C463.895 164.26 445.311 160.04 439.955 158.985L430.297 156.956L428.756 158.579C425.915 161.744 422.263 163.042 416.583 163.124C411.876 163.124 410.74 162.799 407.656 160.689C397.106 153.223 398.242 138.778 409.847 133.422C414.31 131.393 419.342 131.474 424.779 133.828C427.295 134.883 433.868 136.749 439.468 137.966C452.939 140.807 502.685 151.925 525.489 157.118C542.531 161.014 552.269 164.26 552.269 166.045C552.269 167.262 554.136 166.857 558.112 164.747C560.222 163.61 562.495 162.718 563.225 162.718C563.874 162.718 564.442 162.393 564.442 162.069C564.442 161.257 566.39 162.312 518.591 137.804C498.952 127.741 467.871 111.511 449.531 101.772C431.109 91.9529 415.609 84 414.96 84C414.31 84 413.499 84.3246 413.093 84.7304Z" fill="white"/>
<path d="M411.633 142.267C405.059 149.165 415.041 158.092 421.777 151.356C424.617 148.435 423.481 148.354 446.366 153.791C460.649 157.199 485.806 162.88 501.955 166.451C507.068 167.587 513.641 169.048 516.563 169.697C519.484 170.346 524.597 171.482 527.924 172.131C536.851 173.917 539.123 175.296 542.288 180.977C544.885 185.684 544.966 186.171 544.966 195.016V204.187L542.45 206.378C539.61 208.731 537.662 212.626 537.662 215.872C537.662 219.119 540.665 224.312 543.586 226.017C548.78 229.181 557.139 227.072 560.385 221.715C563.793 216.197 561.602 208.082 556.003 205.404L553.243 204.105L552.919 193.312C552.675 183.98 552.351 182.113 550.728 178.948C547.563 172.862 544.398 169.535 540.34 167.749C538.149 166.856 523.136 163.123 506.824 159.472C490.513 155.82 464.301 149.977 448.557 146.406C432.813 142.917 418.612 139.995 416.908 139.995C414.554 139.995 413.256 140.563 411.633 142.267Z" fill="white"/>
<path d="M338.027 214.574V224.962L346.792 228.695C356.53 232.752 401.57 252.229 408.954 255.556C411.551 256.692 414.148 257.666 414.716 257.666C415.69 257.666 433.625 250.2 481.261 229.912L493.434 224.718L493.678 214.412C493.84 206.459 493.678 204.105 492.866 204.105C492.298 204.105 484.913 207.352 476.392 211.328C467.952 215.304 450.667 223.339 438.088 229.182L415.284 239.731L391.426 228.776C378.36 222.689 362.211 215.142 355.475 212.058C348.821 208.893 342.085 205.891 340.705 205.242L338.027 204.105V214.574Z" fill="white"/>
<path d="M540.502 239.812C531.413 257.828 529.628 276.25 535.633 289.721C537.743 294.509 543.83 303.923 544.885 303.923C545.209 303.923 545.94 301.651 546.508 298.81C547.076 296.051 547.968 291.588 548.536 288.91L549.591 284.04L550.484 287.287C550.971 289.072 552.188 293.779 553.162 297.674L554.948 304.897L556.814 302.543C559.817 298.81 563.631 292.156 565.903 286.719C567.932 282.012 568.094 280.713 568.094 270.245C568.094 257.504 567.283 254.258 560.709 239.975L557.22 232.509H550.728H544.154L540.502 239.812Z" fill="white"/>
<path d="M475.418 243.789C470.874 245.818 467.059 247.684 467.059 247.928C467.059 248.171 469.007 249.551 471.361 250.93C492.541 263.752 508.609 285.907 515.507 311.876C517.293 318.449 517.699 322.02 517.942 333.949C518.267 346.203 518.104 349.287 516.562 356.672C510.557 386.13 489.863 412.992 462.596 426.706C439.549 438.23 408.062 440.421 382.661 432.062C359.046 424.353 337.946 406.824 325.205 384.183C311.653 360.161 309.543 326.402 319.93 300.352C327.234 281.931 338.352 267.323 354.014 255.394C357.666 252.635 361.561 249.957 362.698 249.47C365.376 248.252 365.376 247.684 362.616 246.548C361.318 246.061 357.504 244.519 354.095 243.059L347.847 240.462L342.734 244.519C339.894 246.71 334.538 251.823 330.724 255.8C300.373 287.53 289.985 332.083 303.537 372.659C316.928 412.748 351.742 442.125 395.645 450.484C406.114 452.432 425.834 452.513 435.816 450.565C483.777 441.233 519.646 408.204 531.008 362.758C541.233 322.182 525.489 274.87 492.46 246.954C488.565 243.627 484.994 240.705 484.507 240.462C484.101 240.218 479.963 241.679 475.418 243.789Z" fill="white"/>
<path d="M403.112 278.603C401.245 286.962 399.541 295.158 399.216 296.781C398.973 298.486 398.405 299.865 397.999 299.865C397.431 299.865 366.431 282.823 351.58 274.302C349.47 273.085 347.522 272.273 347.36 272.436C346.954 272.842 357.666 290.046 369.92 308.549C374.708 315.852 378.604 322.02 378.604 322.344C378.604 322.75 373.978 324.211 368.216 325.753C342.815 332.488 318.957 339.062 318.632 339.305C318.47 339.468 318.47 339.792 318.713 340.036C319.119 340.441 365.7 354.075 375.114 356.591C378.117 357.321 380.227 358.295 380.227 358.944C380.227 359.512 375.763 366.491 370.326 374.363C358.965 390.837 350.849 402.766 349.794 404.552C349.145 405.526 349.389 405.526 351.093 404.471C352.148 403.74 356.368 401.306 360.344 399.033C364.402 396.842 374.87 390.999 383.635 386.049C396.7 378.745 399.703 377.366 400.028 378.421C400.271 379.232 402.868 389.62 405.79 401.711C411.795 426.219 413.499 432.468 413.986 431.9C414.473 431.494 400.109 369.25 397.593 360.567C397.269 359.512 398.242 358.62 401.407 356.996L405.627 354.887L408.63 356.591C410.334 357.565 412.282 358.295 412.931 358.295C413.58 358.295 414.392 358.944 414.716 359.675C414.96 360.486 415.203 375.337 415.122 392.785C415.041 410.151 415.041 426.138 415.041 428.248C415.203 434.659 416.989 433.036 419.91 423.785C428.837 395.706 434.112 379.719 434.599 379.151C434.923 378.745 436.627 379.151 438.332 379.963C443.931 382.722 479.557 402.28 481.91 403.984C487.429 407.798 485.725 404.552 470.306 381.423C455.374 359.025 453.588 355.942 455.049 355.536C455.617 355.292 464.138 353.101 473.958 350.585C501.793 343.525 513.316 340.279 513.316 339.549C513.316 338.737 512.992 338.656 480.855 330.541C466.329 326.889 454.4 323.886 454.237 323.805C453.994 323.562 456.834 318.693 463.976 307.169C477.122 285.907 484.913 273.247 484.913 272.842C484.913 272.436 463.732 283.229 444.743 293.211C435.086 298.323 432.489 299.378 432.326 298.323C431.515 294.103 424.617 263.671 424.455 263.428C424.292 263.266 422.101 263.996 419.667 265.051L415.122 266.917V294.428C415.122 311.876 414.797 321.776 414.311 321.614C413.905 321.452 410.253 318.774 406.276 315.69C400.271 310.983 398.973 309.604 398.973 307.737C398.892 305.871 402.868 286.232 407.331 265.619C407.494 264.807 407.413 263.996 407.088 263.752C406.763 263.59 404.978 270.245 403.112 278.603ZM460.08 293.535C451.397 301.732 442.308 310.09 439.955 312.2L435.735 316.015L434.274 308.63C432.651 300.19 432.164 301.164 440.929 296.619C443.931 295.077 452.777 290.452 460.567 286.313C468.358 282.174 475.012 278.766 475.337 278.766C475.743 278.766 468.845 285.42 460.08 293.535ZM388.748 304.572C391.831 306.601 398.567 311.308 403.598 315.041C411.957 321.208 413.742 323.399 410.659 323.399C410.091 323.399 408.468 324.292 407.169 325.428L404.735 327.457L388.342 311.064C368.459 291.101 365.863 287.855 375.844 295.402C379.821 298.486 385.583 302.543 388.748 304.572ZM467.871 328.674C481.018 331.92 494.489 335.248 497.735 335.978C500.981 336.79 503.497 337.601 503.254 337.763C503.091 337.926 497.005 337.763 489.701 337.276C482.397 336.79 469.656 336.221 461.379 335.897C453.101 335.653 444.905 335.167 443.201 334.842C440.117 334.355 440.036 334.274 438.575 329.08C437.764 326.159 437.114 323.318 437.033 322.75C437.033 321.208 439.63 321.695 467.871 328.674ZM419.504 331.839C423.075 333.3 424.86 336.059 424.86 340.036C424.86 343.85 423.318 346.447 419.991 348.151C416.096 350.18 413.661 349.693 410.172 346.203C405.384 341.415 406.033 335.816 411.714 332.488C415.284 330.379 415.934 330.379 419.504 331.839ZM391.912 337.682C396.944 344.58 397.593 346.609 394.509 345.797C392.399 345.311 368.459 342.714 347.36 340.766C339.813 340.117 332.834 339.224 332.022 338.9C331.048 338.494 334.538 337.926 341.355 337.276C351.904 336.303 373.247 333.543 379.821 332.326C386.962 331.028 387.043 331.028 391.912 337.682ZM446.609 358.133C469.332 387.429 471.117 389.944 466.167 385.4C464.625 384.02 459.431 379.313 454.481 374.931C449.612 370.549 441.821 363.326 437.196 358.944L428.837 350.91L430.46 348.881C431.353 347.745 432.326 345.716 432.651 344.337L433.138 341.74L436.303 345.311C438.088 347.339 442.633 353.101 446.609 358.133Z" fill="white"/>
<path d="M230.582 308.143C230.338 309.198 230.095 315.852 230.095 323.075C230.095 333.706 230.338 336.952 231.637 340.766C235.694 353.182 246.163 361.46 259.634 362.921C264.26 363.407 267.506 365.112 270.996 368.764C273.592 371.442 276.108 372.01 276.838 370.062C277.163 369.413 276.189 367.059 274.729 364.787C271.645 360.08 271.564 358.863 273.511 351.803C277.407 337.358 271.645 323.562 258.336 315.771C255.252 313.986 233.747 306.357 231.718 306.357C231.393 306.357 230.906 307.169 230.582 308.143ZM252.655 334.517C256.55 340.523 260.851 348.962 262.15 353.426C262.718 355.292 262.556 355.292 259.796 352.614C254.035 347.177 251.681 342.551 248.192 329.648C247.542 327.132 248.516 328.187 252.655 334.517Z" fill="white"/>
<path d="M590.573 309.117C570.529 315.041 561.764 322.182 558.356 335.248C556.733 341.577 556.814 345.392 558.843 353.02L560.466 359.35L557.544 364.138C552.756 371.847 555.11 373.714 562.008 367.627C564.28 365.599 566.309 363.976 566.552 363.976C566.796 363.976 569.798 363.407 573.207 362.677C588.301 359.593 597.066 351.803 600.636 338.413C602.259 332.407 601.935 306.276 600.231 306.357C599.987 306.439 595.605 307.656 590.573 309.117ZM582.783 334.598C580.024 342.714 577.102 347.745 572.801 351.884C569.555 355.049 569.23 355.211 569.717 353.426C570.772 349.287 575.804 339.873 579.943 334.111C582.296 330.947 584.325 328.35 584.487 328.512C584.568 328.674 583.838 331.433 582.783 334.598Z" fill="white"/>
<path d="M172.882 351.803C166.066 352.858 153 355.941 153 356.428C153 356.672 154.217 358.538 155.759 360.648C157.22 362.677 160.791 368.195 163.55 372.902C175.073 392.217 180.348 398.222 188.95 402.117C199.013 406.581 208.508 407.23 220.194 404.146C222.791 403.497 226.849 403.01 229.202 403.01C231.474 403.091 233.665 402.929 233.909 402.604C234.234 402.279 234.071 400.738 233.584 399.033C231.799 393.109 230.987 389.457 230.257 383.452C228.472 368.52 219.058 357.889 203.314 353.02C198.04 351.397 180.186 350.667 172.882 351.803ZM201.691 375.905C208.914 378.583 216.38 383.614 221.168 388.97C223.44 391.486 225.063 393.677 224.82 393.84C224.171 394.489 209.401 385.806 200.068 379.232C190.005 372.253 190.33 371.604 201.691 375.905Z" fill="white"/>
<path d="M632.205 352.29C624.089 353.832 614.027 359.025 609.807 363.813C604.288 369.981 601.61 376.554 600.799 386.211C600.393 390.675 599.5 395.463 598.851 396.761C596.416 401.711 597.877 404.146 602.584 402.848C603.801 402.523 607.697 403.091 612.322 404.308C621.087 406.581 630.5 406.499 638.048 404.227C647.218 401.387 656.226 393.19 662.718 381.829C664.26 379.151 668.48 372.172 672.132 366.41C675.783 360.567 678.624 355.86 678.461 355.86C678.299 355.86 676.027 355.292 673.43 354.643C660.04 351.072 642.998 350.099 632.205 352.29ZM633.016 378.34C623.359 384.832 608.265 394.002 607.291 394.002C606.885 394.002 607.291 392.947 608.184 391.649C611.186 387.429 617.11 382.154 621.33 379.8C625.55 377.528 637.723 373.065 639.914 372.983C640.563 372.902 637.48 375.337 633.016 378.34Z" fill="white"/>
<path d="M242.754 380.936C242.511 381.261 242.673 385.968 243.16 391.243C244.946 411.937 253.061 427.274 267.425 437.013C269.859 438.636 276.757 442.531 282.681 445.615C291.365 450.078 293.718 451.052 294.854 450.322C297.208 448.78 296.883 446.832 293.88 443.505C292.257 441.72 290.959 439.934 290.959 439.61C290.959 439.204 291.852 436.201 292.988 432.955C295.909 424.272 296.721 418.266 295.828 411.774C293.069 392.298 274.972 380.206 248.597 380.206C245.595 380.206 242.998 380.531 242.754 380.936ZM268.48 408.366C274.404 419.24 276.352 423.217 279.76 431.738L281.302 435.795L277.163 431.738C271.726 426.382 268.804 421.675 266.37 414.29C264.422 408.447 261.663 397.248 262.15 397.248C262.231 397.248 265.152 402.279 268.48 408.366Z" fill="white"/>
<path d="M570.123 381.423C553.324 384.264 542.45 391.973 537.581 404.308C536.12 408.041 535.796 410.719 535.714 417.13C535.714 424.191 536.039 426.138 538.311 432.468L540.827 439.691L539.285 441.882C538.474 443.099 537.175 444.56 536.445 445.128C534.903 446.426 534.903 448.699 536.526 450.078C538.068 451.377 541.801 449.835 555.434 442.531C577.021 430.845 587.327 414.452 588.545 389.701L589.032 380.206L582.62 380.287C579.131 380.368 573.45 380.855 570.123 381.423ZM568.5 404.633C565.416 417.293 561.44 425.246 554.785 431.9C552.838 433.848 551.215 435.39 551.052 435.39C550.565 435.39 552.594 429.952 555.597 423.217C558.437 416.887 569.474 397.167 569.961 397.654C570.123 397.735 569.474 400.9 568.5 404.633Z" fill="white"/>
<path d="M224.414 424.759C218.246 426.706 213.458 429.303 207.778 433.685C202.016 438.149 192.765 446.913 192.765 448.049C192.765 449.104 204.613 455.272 212.89 458.518C232.042 465.903 250.058 462.819 258.985 450.646C261.014 447.968 262.475 446.751 263.773 446.751C264.747 446.751 266.126 446.183 266.694 445.452C267.668 444.235 267.344 443.667 264.098 440.746C262.069 438.96 259.228 435.795 257.849 433.685C254.927 429.303 250.302 425.976 245.027 424.353C239.833 422.811 229.932 422.973 224.414 424.759ZM255.577 439.204C256.794 439.528 256.875 439.772 255.982 440.34C252.087 442.856 236.262 445.047 231.069 443.748C229.446 443.342 229.77 443.099 233.503 441.719C242.998 438.311 249.652 437.5 255.577 439.204Z" fill="white"/>
<path d="M588.382 424.272C582.864 426.138 580.105 427.924 576.859 431.819C575.154 433.848 572.071 437.5 569.961 439.853C567.77 442.125 566.065 444.641 566.065 445.371C566.065 446.67 566.39 446.832 569.149 447.076C569.717 447.157 571.421 448.78 572.963 450.646C579.537 458.924 586.759 462.332 598.121 462.332C609.238 462.332 620.356 459.005 632.854 451.782L639.184 448.13L636.506 445.29C629.202 437.662 619.788 430.277 613.296 427.112C607.047 424.109 605.749 423.785 599.013 423.541C594.306 423.298 590.492 423.622 588.382 424.272ZM598.121 441.314L604.613 443.343L600.636 443.911C594.306 444.884 575.804 442.206 575.804 440.259C575.804 437.986 589.194 438.636 598.121 441.314Z" fill="white"/>
<path d="M342.491 442.044C341.273 443.829 341.355 443.992 343.059 445.128C344.033 445.777 349.064 450.159 354.096 454.866C375.033 474.262 387.287 492.845 395.24 517.353C401.002 535.288 401.488 538.94 401.894 569.697C402.138 584.872 402.057 602.482 401.732 608.893L401.164 620.498L397.999 615.061C386.232 594.935 364.24 572.699 338.839 555.252C328.046 547.867 318.794 542.43 301.915 533.34C287.388 525.631 251.275 508.021 250.87 508.589C250.707 508.751 250.302 511.511 249.815 514.757C249.166 519.869 249.247 520.762 250.302 521.411C251.032 521.736 256.794 524.251 263.124 527.011C285.684 536.668 315.71 552.411 330.318 562.231C346.792 573.349 363.103 587.388 373.897 599.642C380.308 606.946 392.075 623.906 395.646 630.967C398.81 637.215 405.465 653.121 405.059 653.446C404.816 653.689 403.436 651.336 401.894 648.333C394.104 633.077 385.177 621.147 370.164 606.134C351.174 587.226 330.561 572.618 300.616 556.956C287.469 550.058 236.019 527.173 230.744 525.874C229.283 525.469 227.741 526.443 223.603 530.257C220.194 533.34 218.571 535.288 219.139 535.856C219.626 536.262 222.872 537.804 226.443 539.265C239.346 544.458 250.139 549.246 257.687 553.142C265.802 557.28 282.763 568.074 280.003 567.343C279.111 567.1 262.475 561.663 243.079 555.089L207.778 543.322L203.396 547.786C200.961 550.22 199.095 552.33 199.257 552.492C199.5 552.574 207.697 555.008 217.516 557.767C227.336 560.608 240.32 564.341 246.325 566.126C252.33 567.911 264.26 571.401 272.7 573.836C311.328 585.035 327.883 592.501 350.606 608.812C364.483 618.713 371.787 624.961 379.496 633.564C390.695 646.061 390.776 646.386 380.227 636.161C356.936 613.6 335.512 601.833 290.959 587.144C268.48 579.678 246.569 573.917 199.825 563.123L190.33 560.932L185.867 565.72C183.432 568.317 181.484 570.671 181.403 570.914C181.403 571.157 186.272 572.375 192.197 573.673C267.993 589.741 302.564 599.967 335.999 616.359C348.09 622.283 365.619 632.103 365.619 632.996C365.619 633.239 363.428 632.346 360.831 630.967C349.389 625.205 332.996 618.469 320.58 614.412C285.441 603.05 231.393 588.524 194.793 580.652L176.128 576.676L173.045 579.678C171.34 581.302 168.338 584.791 166.309 587.307L162.738 591.932L167.039 593.15C169.393 593.799 177.508 595.99 185.055 598.019C197.634 601.265 245.433 614.412 251.844 616.278C254.278 617.009 255.008 616.846 258.579 614.412L262.475 611.652L273.43 613.925C300.86 619.768 327.721 627.558 348.171 635.592C359.452 640.056 374.221 647.035 373.572 647.603C373.41 647.765 369.271 646.71 364.402 645.25C323.582 632.752 287.794 623.257 267.344 619.524L261.988 618.55L255.658 622.852L249.409 627.234L255.333 628.776C265.639 631.454 316.847 646.142 326.585 649.226C355.475 658.234 393.211 671.868 393.211 673.166C393.211 675.032 387.53 680.957 382.661 684.203C379.496 686.313 376.98 688.26 376.98 688.585C376.98 688.91 378.36 690.127 380.064 691.182C385.745 695.077 396.132 705.465 400.433 711.632C405.384 718.855 409.523 727.376 413.093 738.007L415.609 745.635L417.881 738.818C424.617 718.774 434.599 703.923 448.313 693.454C451.478 691.019 454.075 688.91 454.075 688.666C454.075 688.341 452.209 686.962 450.018 685.42C444.824 681.849 440.604 677.792 439.062 674.789L437.845 672.436L446.609 669.027C471.279 659.37 555.191 633.401 579.374 627.964L582.621 627.234L575.804 622.933L568.987 618.55L562.089 619.93C542.612 623.906 491.568 637.621 462.84 646.71C459.35 647.765 456.51 648.496 456.51 648.333C456.51 647.522 475.337 638.757 485.725 634.781C505.039 627.396 534.659 618.875 559.33 613.6L568.5 611.652L572.152 614.006C574.181 615.304 576.372 616.359 577.102 616.359C577.751 616.359 594.225 611.977 613.783 606.702C633.26 601.346 653.385 595.909 658.417 594.611C663.448 593.231 667.83 591.932 668.074 591.689C668.561 591.202 665.558 587.469 659.228 580.409L655.739 576.514L635.451 581.058C600.961 588.849 574.343 595.828 539.529 606.296C502.523 617.414 491.162 621.472 475.824 628.938C470.062 631.697 465.437 633.888 465.437 633.726C465.437 633.564 469.007 631.129 473.389 628.208C500.494 610.273 540.259 596.071 605.181 581.058C616.623 578.38 641.294 573.024 648.029 571.807L650.87 571.239L645.595 565.883L640.32 560.527L605.83 569.291C562.17 580.328 545.777 585.116 523.866 592.987C510.638 597.775 494.489 604.836 487.348 608.893C473.633 616.684 457.565 629.263 446.853 640.543C442.714 644.925 442.227 645.25 444.337 642.328C447.745 637.702 465.031 620.579 472.416 614.655C488.159 601.833 508.61 590.553 529.953 582.925C534.903 581.139 553 575.54 570.204 570.427C587.408 565.396 605.505 559.958 610.375 558.417C615.244 556.956 622.061 555.008 625.55 554.197C628.958 553.304 631.718 552.249 631.637 551.843C631.474 551.356 629.445 549.246 627.173 547.055L622.953 543.16L612.971 546.568C607.453 548.435 594.631 552.817 584.325 556.307C574.1 559.796 562.576 563.773 558.762 565.233C554.866 566.613 552.432 567.262 553.081 566.613C555.921 563.854 570.772 554.359 577.427 551.032C585.461 546.974 610.943 536.019 612.241 536.019C614.026 536.019 613.053 534.72 607.778 530.013L602.503 525.306L599.5 526.524C567.526 539.589 556.814 544.296 543.343 550.707C496.031 573.511 466.978 595.341 444.743 624.88C439.711 631.616 433.057 642.247 429.324 649.632C426.159 655.881 425.185 656.935 426.808 652.229C435.572 627.883 447.258 610.029 467.384 589.985C487.185 570.265 504.795 558.011 536.445 541.943C546.264 536.992 560.547 530.257 568.094 527.092C575.723 523.846 582.052 521.086 582.134 520.924C582.621 520.6 581.403 510.374 580.754 509.319C579.78 507.859 538.23 527.903 515.751 540.725C479.882 561.176 454.562 583.736 435.248 612.302L429.973 620.092L429.405 587.956C428.756 546.081 429.729 535.937 436.303 516.704C444.58 492.845 458.62 471.665 477.853 454.379C481.018 451.458 485.238 448.049 487.104 446.913C490.918 444.479 491.243 443.586 489.133 441.638C487.835 440.421 486.698 440.827 473.146 447.562C457.402 455.272 451.965 459.248 443.12 469.474C432.002 482.215 421.777 501.366 416.177 519.788C416.015 520.437 414.716 517.678 413.418 513.702C407.331 495.605 395.564 475.966 383.229 463.549C375.925 456.165 375.439 455.84 360.182 448.131C351.661 443.829 344.438 440.259 344.195 440.259C344.033 440.259 343.221 441.07 342.491 442.044Z" fill="white"/>
<path d="M315.305 454.866C311.491 455.678 306.216 457.138 303.619 458.031C297.045 460.385 277.163 469.636 277.163 470.366C277.163 471.502 292.907 484.081 301.103 489.681C314.655 498.77 325.53 501.935 337.054 500.149C344.682 498.932 350.363 496.173 355.8 490.979C359.127 487.814 361.156 486.516 362.698 486.516C363.915 486.516 365.051 485.948 365.376 485.217C365.944 483.675 363.509 478.725 361.886 478.076C361.318 477.832 359.776 475.398 358.478 472.557C353.203 460.871 340.218 453.081 326.423 453.324C324.069 453.324 319.119 454.055 315.305 454.866ZM351.255 477.67C353.771 478.238 355.637 478.887 355.475 479.293C354.664 480.591 343.546 482.458 336.648 482.458C332.752 482.458 326.26 481.809 322.203 481.078C315.061 479.78 314.98 479.699 318.145 479.05C328.37 476.858 343.87 476.209 351.255 477.67Z" fill="white"/>
<path d="M494.814 454.46C492.46 455.11 489.376 456.246 487.916 456.976C480.937 460.547 474.444 468.013 472.74 474.424C472.253 476.209 471.198 477.67 470.062 478.157C468.196 479.05 465.842 484.406 466.735 485.866C466.978 486.191 468.277 486.516 469.575 486.516C471.442 486.516 472.984 487.489 476.149 490.654C482.235 496.741 489.133 499.743 497.897 500.149C513.154 500.88 525.084 495.118 547.644 476.128C551.052 473.207 553.893 470.61 553.893 470.285C553.893 469.717 540.016 462.981 531.495 459.411C518.672 454.136 503.416 452.026 494.814 454.46ZM511.531 478.481C514.371 478.968 516.481 479.536 516.319 479.699C515.426 480.673 502.361 482.539 496.68 482.62C490.026 482.701 476.798 480.348 476.798 479.131C476.798 476.858 499.926 476.372 511.531 478.481Z" fill="white"/>
</svg>
