<?xml version="1.0" standalone="no"?>
<!DOCTYPE svg PUBLIC "-//W3C//DTD SVG 20010904//EN"
 "http://www.w3.org/TR/2001/REC-SVG-20010904/DTD/svg10.dtd">
<svg version="1.0" xmlns="http://www.w3.org/2000/svg"
 width="1024.000000pt" height="1024.000000pt" viewBox="0 0 1024.000000 1024.000000"
 preserveAspectRatio="xMidYMid meet">

<g transform="translate(0.000000,1024.000000) scale(0.100000,-0.100000)"
fill="#000000" stroke="none">
<path d="M5185 9161 c-17 -16 -1345 -719 -1653 -876 -73 -37 -132 -68 -130
-70 2 -2 104 -50 228 -108 124 -58 317 -149 430 -202 113 -54 365 -172 560
-262 195 -91 408 -190 473 -220 l118 -55 67 32 c37 18 128 61 202 95 74 34
209 97 300 140 91 42 266 123 390 180 242 110 400 185 400 190 0 2 -35 11 -77
20 -43 9 -253 57 -468 107 -214 49 -443 101 -509 114 l-119 25 -19 -20 c-35
-39 -80 -55 -150 -56 -58 0 -72 4 -110 30 -130 92 -116 270 27 336 55 25 117
24 184 -5 31 -13 112 -36 181 -51 166 -35 779 -172 1060 -236 210 -48 330 -88
330 -110 0 -15 23 -10 72 16 26 14 54 25 63 25 8 0 15 4 15 8 0 10 24 -3 -565
299 -242 124 -625 324 -851 444 -227 121 -418 219 -426 219 -8 0 -18 -4 -23
-9z"/>
<path d="M5167 8452 c-81 -85 42 -195 125 -112 35 36 21 37 303 -30 176 -42
486 -112 685 -156 63 -14 144 -32 180 -40 36 -8 99 -22 140 -30 110 -22 138
-39 177 -109 32 -58 33 -64 33 -173 l0 -113 -31 -27 c-35 -29 -59 -77 -59
-117 0 -40 37 -104 73 -125 64 -39 167 -13 207 53 42 68 15 168 -54 201 l-34
16 -4 133 c-3 115 -7 138 -27 177 -39 75 -78 116 -128 138 -27 11 -212 57
-413 102 -201 45 -524 117 -718 161 -194 43 -369 79 -390 79 -29 0 -45 -7 -65
-28z"/>
<path d="M4260 7561 l0 -128 108 -46 c120 -50 675 -290 766 -331 32 -14 64
-26 71 -26 12 0 233 92 820 342 l150 64 3 127 c2 98 0 127 -10 127 -7 0 -98
-40 -203 -89 -104 -49 -317 -148 -472 -220 l-281 -130 -294 135 c-161 75 -360
168 -443 206 -82 39 -165 76 -182 84 l-33 14 0 -129z"/>
<path d="M6755 7250 c-112 -222 -134 -449 -60 -615 26 -59 101 -175 114 -175
4 0 13 28 20 63 7 34 18 89 25 122 l13 60 11 -40 c6 -22 21 -80 33 -128 l22
-89 23 29 c37 46 84 128 112 195 25 58 27 74 27 203 0 157 -10 197 -91 373
l-43 92 -80 0 -81 0 -45 -90z"/>
<path d="M5953 7201 c-56 -25 -103 -48 -103 -51 0 -3 24 -20 53 -37 261 -158
459 -431 544 -751 22 -81 27 -125 30 -272 4 -151 2 -189 -17 -280 -74 -363
-329 -694 -665 -863 -284 -142 -672 -169 -985 -66 -291 95 -551 311 -708 590
-167 296 -193 712 -65 1033 90 227 227 407 420 554 45 34 93 67 107 73 33 15
33 22 -1 36 -16 6 -63 25 -105 43 l-77 32 -63 -50 c-35 -27 -101 -90 -148
-139 -374 -391 -502 -940 -335 -1440 165 -494 594 -856 1135 -959 129 -24 372
-25 495 -1 591 115 1033 522 1173 1082 126 500 -68 1083 -475 1427 -48 41 -92
77 -98 80 -5 3 -56 -15 -112 -41z"/>
<path d="M5062 6772 c-23 -103 -44 -204 -48 -224 -3 -21 -10 -38 -15 -38 -7 0
-389 210 -572 315 -26 15 -50 25 -52 23 -5 -5 127 -217 278 -445 59 -90 107
-166 107 -170 0 -5 -57 -23 -128 -42 -313 -83 -607 -164 -611 -167 -2 -2 -2
-6 1 -9 5 -5 579 -173 695 -204 37 -9 63 -21 63 -29 0 -7 -55 -93 -122 -190
-140 -203 -240 -350 -253 -372 -8 -12 -5 -12 16 1 13 9 65 39 114 67 50 27
179 99 287 160 161 90 198 107 202 94 3 -10 35 -138 71 -287 74 -302 95 -379
101 -372 6 5 -171 772 -202 879 -4 13 8 24 47 44 l52 26 37 -21 c21 -12 45
-21 53 -21 8 0 18 -8 22 -17 3 -10 6 -193 5 -408 -1 -214 -1 -411 -1 -437 2
-79 24 -59 60 55 110 346 175 543 181 550 4 5 25 0 46 -10 69 -34 508 -275
537 -296 68 -47 47 -7 -143 278 -184 276 -206 314 -188 319 7 3 112 30 233 61
343 87 485 127 485 136 0 10 -4 11 -400 111 -179 45 -326 82 -328 83 -3 3 32
63 120 205 162 262 258 418 258 423 0 5 -261 -128 -495 -251 -119 -63 -151
-76 -153 -63 -10 52 -95 427 -97 430 -2 2 -29 -7 -59 -20 l-56 -23 0 -339 c0
-215 -4 -337 -10 -335 -5 2 -50 35 -99 73 -74 58 -90 75 -90 98 -1 23 48 265
103 519 2 10 1 20 -3 23 -4 2 -26 -80 -49 -183z m702 -184 c-107 -101 -219
-204 -248 -230 l-52 -47 -18 91 c-20 104 -26 92 82 148 37 19 146 76 242 127
96 51 178 93 182 93 5 0 -80 -82 -188 -182z m-879 -136 c38 -25 121 -83 183
-129 103 -76 125 -103 87 -103 -7 0 -27 -11 -43 -25 l-30 -25 -202 202 c-245
246 -277 286 -154 193 49 -38 120 -88 159 -113z m975 -297 c162 -40 328 -81
368 -90 40 -10 71 -20 68 -22 -2 -2 -77 0 -167 6 -90 6 -247 13 -349 17 -102
3 -203 9 -224 13 -38 6 -39 7 -57 71 -10 36 -18 71 -19 78 0 19 32 13 380 -73z
m-596 -39 c44 -18 66 -52 66 -101 0 -47 -19 -79 -60 -100 -48 -25 -78 -19
-121 24 -59 59 -51 128 19 169 44 26 52 26 96 8z m-340 -72 c62 -85 70 -110
32 -100 -26 6 -321 38 -581 62 -93 8 -179 19 -189 23 -12 5 31 12 115 20 130
12 393 46 474 61 88 16 89 16 149 -66z m674 -252 c280 -361 302 -392 241 -336
-19 17 -83 75 -144 129 -60 54 -156 143 -213 197 l-103 99 20 25 c11 14 23 39
27 56 l6 32 39 -44 c22 -25 78 -96 127 -158z"/>
<path d="M2936 6408 c-3 -13 -6 -95 -6 -184 0 -131 3 -171 19 -218 50 -153
179 -255 345 -273 57 -6 97 -27 140 -72 32 -33 63 -40 72 -16 4 8 -8 37 -26
65 -38 58 -39 73 -15 160 48 178 -23 348 -187 444 -38 22 -303 116 -328 116
-4 0 -10 -10 -14 -22z m272 -325 c48 -74 101 -178 117 -233 7 -23 5 -23 -29
10 -71 67 -100 124 -143 283 -8 31 4 18 55 -60z"/>
<path d="M7372 6396 c-247 -73 -355 -161 -397 -322 -20 -78 -19 -125 6 -219
l20 -78 -36 -59 c-59 -95 -30 -118 55 -43 28 25 53 45 56 45 3 0 40 7 82 16
186 38 294 134 338 299 20 74 16 396 -5 395 -3 -1 -57 -16 -119 -34z m-96
-314 c-34 -100 -70 -162 -123 -213 -40 -39 -44 -41 -38 -19 13 51 75 167 126
238 29 39 54 71 56 69 1 -2 -8 -36 -21 -75z"/>
<path d="M2225 5870 c-84 -13 -245 -51 -245 -57 0 -3 15 -26 34 -52 18 -25 62
-93 96 -151 142 -238 207 -312 313 -360 124 -55 241 -63 385 -25 32 8 82 14
111 14 28 -1 55 1 58 5 4 4 2 23 -4 44 -22 73 -32 118 -41 192 -22 184 -138
315 -332 375 -65 20 -285 29 -375 15z m355 -297 c89 -33 181 -95 240 -161 28
-31 48 -58 45 -60 -8 -8 -190 99 -305 180 -124 86 -120 94 20 41z"/>
<path d="M7885 5864 c-100 -19 -224 -83 -276 -142 -68 -76 -101 -157 -111
-276 -5 -55 -16 -114 -24 -130 -30 -61 -12 -91 46 -75 15 4 63 -3 120 -18 108
-28 224 -27 317 1 113 35 224 136 304 276 19 33 71 119 116 190 45 72 80 130
78 130 -2 0 -30 7 -62 15 -165 44 -375 56 -508 29z m10 -321 c-119 -80 -305
-193 -317 -193 -5 0 0 13 11 29 37 52 110 117 162 146 52 28 202 83 229 84 8
1 -30 -29 -85 -66z"/>
<path d="M3086 5511 c-3 -4 -1 -62 5 -127 22 -255 122 -444 299 -564 30 -20
115 -68 188 -106 107 -55 136 -67 150 -58 29 19 25 43 -12 84 -20 22 -36 44
-36 48 0 5 11 42 25 82 36 107 46 181 35 261 -34 240 -257 389 -582 389 -37 0
-69 -4 -72 -9z m317 -338 c73 -134 97 -183 139 -288 l19 -50 -51 50 c-67 66
-103 124 -133 215 -24 72 -58 210 -52 210 1 0 37 -62 78 -137z"/>
<path d="M7120 5505 c-207 -35 -341 -130 -401 -282 -18 -46 -22 -79 -23 -158
0 -87 4 -111 32 -189 l31 -89 -19 -27 c-10 -15 -26 -33 -35 -40 -19 -16 -19
-44 1 -61 19 -16 65 3 233 93 266 144 393 346 408 651 l6 117 -79 -1 c-43 -1
-113 -7 -154 -14z m-20 -286 c-38 -156 -87 -254 -169 -336 -24 -24 -44 -43
-46 -43 -6 0 19 67 56 150 35 78 171 321 177 315 2 -1 -6 -40 -18 -86z"/>
<path d="M2860 4971 c-76 -24 -135 -56 -205 -110 -71 -55 -185 -163 -185 -177
0 -13 146 -89 248 -129 236 -91 458 -53 568 97 25 33 43 48 59 48 12 0 29 7
36 16 12 15 8 22 -32 58 -25 22 -60 61 -77 87 -36 54 -93 95 -158 115 -64 19
-186 17 -254 -5z m384 -178 c15 -4 16 -7 5 -14 -48 -31 -243 -58 -307 -42 -20
5 -16 8 30 25 117 42 199 52 272 31z"/>
<path d="M7345 4977 c-68 -23 -102 -45 -142 -93 -21 -25 -59 -70 -85 -99 -27
-28 -48 -59 -48 -68 0 -16 4 -18 38 -21 7 -1 28 -21 47 -44 81 -102 170 -144
310 -144 137 0 274 41 428 130 l78 45 -33 35 c-90 94 -206 185 -286 224 -77
37 -93 41 -176 44 -58 3 -105 -1 -131 -9z m120 -210 l80 -25 -49 -7 c-78 -12
-306 21 -306 45 0 28 165 20 275 -13z"/>
<path d="M4315 4758 c-15 -22 -14 -24 7 -38 12 -8 74 -62 136 -120 258 -239
409 -468 507 -770 71 -221 77 -266 82 -645 3 -187 2 -404 -2 -483 l-7 -143
-39 67 c-145 248 -416 522 -729 737 -133 91 -247 158 -455 270 -179 95 -624
312 -629 305 -2 -2 -7 -36 -13 -76 -8 -63 -7 -74 6 -82 9 -4 80 -35 158 -69
278 -119 648 -313 828 -434 203 -137 404 -310 537 -461 79 -90 224 -299 268
-386 39 -77 121 -273 116 -277 -3 -3 -20 26 -39 63 -96 188 -206 335 -391 520
-234 233 -488 413 -857 606 -162 85 -796 367 -861 383 -18 5 -37 -7 -88 -54
-42 -38 -62 -62 -55 -69 6 -5 46 -24 90 -42 159 -64 292 -123 385 -171 100
-51 309 -184 275 -175 -11 3 -216 70 -455 151 l-435 145 -54 -55 c-30 -30 -53
-56 -51 -58 3 -1 104 -31 225 -65 121 -35 281 -81 355 -103 74 -22 221 -65
325 -95 476 -138 680 -230 960 -431 171 -122 261 -199 356 -305 138 -154 139
-158 9 -32 -287 278 -551 423 -1100 604 -277 92 -547 163 -1123 296 l-117 27
-55 -59 c-30 -32 -54 -61 -55 -64 0 -3 60 -18 133 -34 934 -198 1360 -324
1772 -526 149 -73 365 -194 365 -205 0 -3 -27 8 -59 25 -141 71 -343 154 -496
204 -433 140 -1099 319 -1550 416 l-230 49 -38 -37 c-21 -20 -58 -63 -83 -94
l-44 -57 53 -15 c29 -8 129 -35 222 -60 155 -40 744 -202 823 -225 30 -9 39
-7 83 23 l48 34 135 -28 c338 -72 669 -168 921 -267 139 -55 321 -141 313
-148 -2 -2 -53 11 -113 29 -503 154 -944 271 -1196 317 l-66 12 -78 -53 -77
-54 73 -19 c127 -33 758 -214 878 -252 356 -111 821 -279 821 -295 0 -23 -70
-96 -130 -136 -39 -26 -70 -50 -70 -54 0 -4 17 -19 38 -32 70 -48 198 -176
251 -252 61 -89 112 -194 156 -325 l31 -94 28 84 c83 247 206 430 375 559 39
30 71 56 71 59 0 4 -23 21 -50 40 -64 44 -116 94 -135 131 l-15 29 108 42
c304 119 1338 439 1636 506 l40 9 -84 53 -84 54 -85 -17 c-240 -49 -869 -218
-1223 -330 -43 -13 -78 -22 -78 -20 0 10 232 118 360 167 238 91 603 196 907
261 l113 24 45 -29 c25 -16 52 -29 61 -29 8 0 211 54 452 119 240 66 488 133
550 149 62 17 116 33 119 36 6 6 -31 52 -109 139 l-43 48 -250 -56 c-425 -96
-753 -182 -1182 -311 -456 -137 -596 -187 -785 -279 -71 -34 -128 -61 -128
-59 0 2 44 32 98 68 334 221 824 396 1624 581 141 33 445 99 528 114 l35 7
-65 66 -65 66 -425 -108 c-538 -136 -740 -195 -1010 -292 -163 -59 -362 -146
-450 -196 -169 -96 -367 -251 -499 -390 -51 -54 -57 -58 -31 -22 42 57 255
268 346 341 194 158 446 297 709 391 61 22 284 91 496 154 212 62 435 129 495
148 60 18 144 42 187 52 42 11 76 24 75 29 -2 6 -27 32 -55 59 l-52 48 -123
-42 c-68 -23 -226 -77 -353 -120 -126 -43 -268 -92 -315 -110 -48 -17 -78 -25
-70 -17 35 34 218 151 300 192 99 50 413 185 429 185 22 0 10 16 -55 74 l-65
58 -37 -15 c-394 -161 -526 -219 -692 -298 -583 -281 -941 -550 -1215 -914
-62 -83 -144 -214 -190 -305 -39 -77 -51 -90 -31 -32 108 300 252 520 500 767
244 243 461 394 851 592 121 61 297 144 390 183 94 40 172 74 173 76 6 4 -9
130 -17 143 -12 18 -524 -229 -801 -387 -442 -252 -754 -530 -992 -882 l-65
-96 -7 396 c-8 516 4 641 85 878 102 294 275 555 512 768 39 36 91 78 114 92
47 30 51 41 25 65 -16 15 -30 10 -197 -73 -194 -95 -261 -144 -370 -270 -137
-157 -263 -393 -332 -620 -2 -8 -18 26 -34 75 -75 223 -220 465 -372 618 -90
91 -96 95 -284 190 -105 53 -194 97 -197 97 -2 0 -12 -10 -21 -22z"/>
<path d="M3980 4600 c-47 -10 -112 -28 -144 -39 -81 -29 -326 -143 -326 -152
0 -14 194 -169 295 -238 167 -112 301 -151 443 -129 94 15 164 49 231 113 41
39 66 55 85 55 15 0 29 7 33 16 7 19 -23 80 -43 88 -7 3 -26 33 -42 68 -65
144 -225 240 -395 237 -29 0 -90 -9 -137 -19z m443 -281 c31 -7 54 -15 52 -20
-10 -16 -147 -39 -232 -39 -48 0 -128 8 -178 17 -88 16 -89 17 -50 25 126 27
317 35 408 17z"/>
<path d="M6192 4605 c-29 -8 -67 -22 -85 -31 -86 -44 -166 -136 -187 -215 -6
-22 -19 -40 -33 -46 -23 -11 -52 -77 -41 -95 3 -4 19 -8 35 -8 23 0 42 -12 81
-51 75 -75 160 -112 268 -117 188 -9 335 62 613 296 42 36 77 68 77 72 0 7
-171 90 -276 134 -158 65 -346 91 -452 61z m206 -296 c35 -6 61 -13 59 -15
-11 -12 -172 -35 -242 -36 -82 -1 -245 28 -245 43 0 28 285 34 428 8z"/>
</g>
</svg>
